G04*
G04 #@! TF.GenerationSoftware,Altium Limited,Altium Designer,25.5.2 (35)*
G04*
G04 Layer_Color=65535*
%FSLAX44Y44*%
%MOMM*%
G71*
G04*
G04 #@! TF.SameCoordinates,1C876D45-0CCD-4BF8-8A60-7BCD78DFC47F*
G04*
G04*
G04 #@! TF.FilePolarity,Positive*
G04*
G01*
G75*
%ADD10C,0.2500*%
%ADD11C,0.1270*%
%ADD12C,0.2000*%
%ADD13C,0.3000*%
%ADD14C,0.1000*%
%ADD15C,0.1524*%
%ADD16C,0.2540*%
%ADD17C,0.0762*%
G36*
X1112590Y895859D02*
X1115579D01*
Y895112D01*
X1117074D01*
Y894365D01*
X1118568D01*
Y893618D01*
X1119316D01*
Y892870D01*
X1120810D01*
Y892123D01*
X1121557D01*
Y891376D01*
X1123052D01*
Y890629D01*
X1123799D01*
Y889881D01*
X1124547D01*
Y889134D01*
X1125294D01*
Y888387D01*
X1126041D01*
Y887639D01*
X1126788D01*
Y886892D01*
X1127535D01*
Y886145D01*
X1128283D01*
Y885398D01*
X1129030D01*
Y884650D01*
X1129777D01*
Y883903D01*
X1130525D01*
Y882409D01*
X1131272D01*
Y881662D01*
X1132019D01*
Y880167D01*
X1132766D01*
Y878672D01*
X1133513D01*
Y877178D01*
X1134261D01*
Y874189D01*
X1135008D01*
Y869705D01*
X1134261D01*
Y868211D01*
X1133513D01*
Y867464D01*
X1132766D01*
Y866716D01*
X1131272D01*
Y865969D01*
X1126788D01*
Y866716D01*
X1123799D01*
Y867464D01*
X1122305D01*
Y868211D01*
X1120810D01*
Y868958D01*
X1119316D01*
Y869705D01*
X1117821D01*
Y870453D01*
X1117074D01*
Y871200D01*
X1116327D01*
Y871947D01*
X1115579D01*
Y872694D01*
X1114832D01*
Y873442D01*
X1113338D01*
Y874936D01*
X1112590D01*
Y875683D01*
X1111843D01*
Y876431D01*
X1111096D01*
Y877178D01*
X1110349D01*
Y878672D01*
X1109601D01*
Y880167D01*
X1108854D01*
Y881662D01*
X1108107D01*
Y883156D01*
X1107360D01*
Y886145D01*
X1106612D01*
Y893618D01*
X1107360D01*
Y895112D01*
X1108854D01*
Y895859D01*
X1110349D01*
Y896607D01*
X1112590D01*
Y895859D01*
D02*
G37*
G36*
X1148459Y854013D02*
X1149953D01*
Y853266D01*
X1150700D01*
Y851771D01*
X1151448D01*
Y848782D01*
X1140239D01*
Y851771D01*
X1140986D01*
Y853266D01*
X1141733D01*
Y854013D01*
X1143228D01*
Y854760D01*
X1148459D01*
Y854013D01*
D02*
G37*
G36*
X1113338Y869705D02*
X1114832D01*
Y868958D01*
X1116327D01*
Y868211D01*
X1117821D01*
Y867464D01*
X1118568D01*
Y866716D01*
X1119316D01*
Y865969D01*
X1120063D01*
Y865222D01*
X1120810D01*
Y864475D01*
X1121557D01*
Y863727D01*
X1122305D01*
Y862980D01*
X1123052D01*
Y861486D01*
X1123799D01*
Y859991D01*
X1124547D01*
Y857749D01*
X1125294D01*
Y854013D01*
X1126041D01*
Y851771D01*
X1125294D01*
Y848782D01*
X1126041D01*
Y848035D01*
X1128283D01*
Y847288D01*
X1132019D01*
Y848035D01*
X1132766D01*
Y848782D01*
X1133513D01*
Y854760D01*
X1132766D01*
Y856255D01*
X1132019D01*
Y857749D01*
X1131272D01*
Y858496D01*
X1130525D01*
Y859244D01*
Y859991D01*
X1129777D01*
Y860738D01*
X1129030D01*
Y862233D01*
X1128283D01*
Y862980D01*
X1127535D01*
Y863727D01*
X1126788D01*
Y864475D01*
X1127535D01*
Y863727D01*
X1128283D01*
Y862980D01*
X1129030D01*
Y862233D01*
X1129777D01*
Y861486D01*
X1130525D01*
Y859991D01*
X1131272D01*
Y859244D01*
X1132019D01*
Y857749D01*
X1132766D01*
Y857002D01*
X1133513D01*
Y855508D01*
X1134261D01*
Y852518D01*
X1135008D01*
Y848782D01*
X1134261D01*
Y846540D01*
X1133513D01*
Y845793D01*
X1132766D01*
Y845046D01*
X1132019D01*
Y844299D01*
X1130525D01*
Y843551D01*
X1123799D01*
Y844299D01*
X1121557D01*
Y845046D01*
X1119316D01*
Y845793D01*
X1117821D01*
Y846540D01*
X1116327D01*
Y847288D01*
X1115579D01*
Y848035D01*
X1114832D01*
Y848782D01*
X1113338D01*
Y849529D01*
X1112590D01*
Y850277D01*
X1111843D01*
Y851024D01*
X1111096D01*
Y851771D01*
X1110349D01*
Y852518D01*
X1109601D01*
Y854013D01*
X1108854D01*
Y854760D01*
X1108107D01*
Y856255D01*
X1107360D01*
Y857749D01*
X1106612D01*
Y859244D01*
X1105865D01*
Y862980D01*
X1105118D01*
Y865969D01*
X1105865D01*
Y868211D01*
X1106612D01*
Y868958D01*
X1107360D01*
Y869705D01*
X1108854D01*
Y870453D01*
X1113338D01*
Y869705D01*
D02*
G37*
G36*
X1151448Y844299D02*
X1149206D01*
Y843551D01*
X1148459D01*
Y840562D01*
X1149206D01*
Y839815D01*
X1151448D01*
Y839068D01*
X1148459D01*
Y839815D01*
X1145470D01*
Y840562D01*
X1143228D01*
Y841310D01*
X1140986D01*
Y842804D01*
X1143228D01*
Y843551D01*
X1146217D01*
Y844299D01*
X1148459D01*
Y845046D01*
X1151448D01*
Y844299D01*
D02*
G37*
G36*
X1089425Y847288D02*
X1090920D01*
Y846540D01*
X1092414D01*
Y845046D01*
X1093162D01*
Y844299D01*
X1093909D01*
Y843551D01*
X1094656D01*
Y842057D01*
X1095404D01*
Y841310D01*
X1096151D01*
Y839815D01*
X1096898D01*
Y838321D01*
X1097645D01*
Y837573D01*
X1098392D01*
Y836826D01*
X1099140D01*
Y836079D01*
X1099887D01*
Y835332D01*
X1099140D01*
Y834584D01*
X1096898D01*
Y835332D01*
X1094656D01*
Y836079D01*
X1093909D01*
Y836826D01*
X1092414D01*
Y837573D01*
X1091667D01*
Y838321D01*
X1090173D01*
Y839068D01*
X1089425D01*
Y839815D01*
X1088678D01*
Y840562D01*
X1087184D01*
Y841310D01*
X1086436D01*
Y842057D01*
X1084942D01*
Y842804D01*
X1085689D01*
Y845046D01*
X1086436D01*
Y846540D01*
X1087184D01*
Y847288D01*
X1088678D01*
Y848035D01*
X1089425D01*
Y847288D01*
D02*
G37*
G36*
X1148459Y835332D02*
X1149953D01*
Y834584D01*
X1150700D01*
Y833837D01*
X1151448D01*
Y830101D01*
X1140239D01*
Y833090D01*
X1140986D01*
Y834584D01*
X1141733D01*
Y835332D01*
X1143228D01*
Y836079D01*
X1148459D01*
Y835332D01*
D02*
G37*
G36*
X1151448Y824870D02*
X1140986D01*
Y825617D01*
X1151448D01*
Y824870D01*
D02*
G37*
G36*
X1149953Y820387D02*
X1150700D01*
Y819639D01*
X1151448D01*
Y815903D01*
X1149953D01*
Y817398D01*
X1150700D01*
Y818892D01*
X1149953D01*
Y819639D01*
X1149206D01*
Y820387D01*
X1148459D01*
Y819639D01*
X1146964D01*
Y818892D01*
X1146217D01*
Y817398D01*
X1145470D01*
Y816650D01*
X1143975D01*
Y815903D01*
X1141733D01*
Y816650D01*
X1140986D01*
Y817398D01*
X1140239D01*
Y820387D01*
X1140986D01*
Y821134D01*
X1141733D01*
Y818892D01*
X1140986D01*
Y818145D01*
X1141733D01*
Y817398D01*
X1142481D01*
Y816650D01*
X1143228D01*
Y817398D01*
X1144722D01*
Y818892D01*
X1145470D01*
Y819639D01*
X1146217D01*
Y820387D01*
X1146964D01*
Y821134D01*
X1149953D01*
Y820387D01*
D02*
G37*
G36*
X1081206Y869705D02*
X1083447D01*
Y868958D01*
X1084942D01*
Y868211D01*
X1086436D01*
Y867464D01*
X1087931D01*
Y866716D01*
X1088678D01*
Y865969D01*
X1090173D01*
Y865222D01*
X1090920D01*
Y864475D01*
X1092414D01*
Y863727D01*
X1093162D01*
Y862980D01*
X1093909D01*
Y862233D01*
X1094656D01*
Y861486D01*
X1096151D01*
Y860738D01*
X1096898D01*
Y859991D01*
X1097645D01*
Y859244D01*
X1098392D01*
Y858496D01*
X1099140D01*
Y857749D01*
X1099887D01*
Y857002D01*
X1100634D01*
Y856255D01*
X1101382D01*
Y855508D01*
X1102876D01*
Y854760D01*
X1103623D01*
Y854013D01*
X1104370D01*
Y853266D01*
X1105118D01*
Y852518D01*
X1105865D01*
Y851771D01*
X1106612D01*
Y851024D01*
X1107360D01*
Y850277D01*
X1108107D01*
Y849529D01*
X1108854D01*
Y848782D01*
X1109601D01*
Y848035D01*
X1110349D01*
Y847288D01*
X1111096D01*
Y846540D01*
X1111843D01*
Y845793D01*
X1112590D01*
Y845046D01*
X1113338D01*
Y844299D01*
X1114085D01*
Y843551D01*
X1114832D01*
Y842804D01*
X1115579D01*
Y842057D01*
X1116327D01*
Y841310D01*
X1117074D01*
Y840562D01*
X1117821D01*
Y839815D01*
X1118568D01*
Y839068D01*
X1120063D01*
Y838321D01*
X1120810D01*
Y837573D01*
X1121557D01*
Y836826D01*
X1122305D01*
Y836079D01*
X1123052D01*
Y835332D01*
X1123799D01*
Y834584D01*
X1125294D01*
Y833837D01*
X1126041D01*
Y833090D01*
X1127535D01*
Y832343D01*
X1128283D01*
Y831595D01*
X1129777D01*
Y830848D01*
X1133513D01*
Y830101D01*
X1132766D01*
Y829354D01*
X1130525D01*
Y828606D01*
X1129030D01*
Y827859D01*
X1129777D01*
Y827112D01*
X1130525D01*
Y826365D01*
Y825617D01*
X1131272D01*
Y824870D01*
X1132019D01*
Y824123D01*
Y823375D01*
X1132766D01*
Y821881D01*
X1133513D01*
Y820387D01*
X1134261D01*
Y817398D01*
X1135008D01*
Y813661D01*
X1134261D01*
Y811419D01*
X1133513D01*
Y810672D01*
X1132019D01*
Y809925D01*
X1130525D01*
Y810672D01*
X1128283D01*
Y811419D01*
X1127535D01*
Y812167D01*
X1126041D01*
Y812914D01*
X1124547D01*
Y813661D01*
X1123799D01*
Y814408D01*
X1123052D01*
Y815156D01*
X1121557D01*
Y815903D01*
X1120810D01*
Y816650D01*
X1120063D01*
Y817398D01*
X1118568D01*
Y818145D01*
X1117821D01*
Y818892D01*
X1117074D01*
Y819639D01*
X1116327D01*
Y820387D01*
X1115579D01*
Y821134D01*
X1114832D01*
Y821881D01*
X1113338D01*
Y822628D01*
X1112590D01*
Y823375D01*
X1111843D01*
Y824123D01*
X1111096D01*
Y824870D01*
X1109601D01*
Y825617D01*
X1108854D01*
Y826365D01*
X1106612D01*
Y830101D01*
X1107360D01*
Y831595D01*
X1108107D01*
Y832343D01*
X1111843D01*
Y831595D01*
X1113338D01*
Y830848D01*
X1114085D01*
Y830101D01*
X1115579D01*
Y829354D01*
X1116327D01*
Y828606D01*
X1117074D01*
Y827859D01*
X1117821D01*
Y827112D01*
X1118568D01*
Y826365D01*
X1119316D01*
Y825617D01*
X1120063D01*
Y824870D01*
X1120810D01*
Y824123D01*
X1121557D01*
Y823375D01*
X1122305D01*
Y822628D01*
X1123052D01*
Y821881D01*
X1123799D01*
Y821134D01*
X1124547D01*
Y820387D01*
X1125294D01*
Y819639D01*
X1126041D01*
Y818892D01*
X1126788D01*
Y818145D01*
X1127535D01*
Y817398D01*
X1128283D01*
Y816650D01*
X1129030D01*
Y815903D01*
X1129777D01*
Y815156D01*
X1130525D01*
Y814408D01*
X1133513D01*
Y819639D01*
X1132766D01*
Y821134D01*
X1132019D01*
Y823375D01*
X1131272D01*
Y824123D01*
X1130525D01*
Y825617D01*
X1129777D01*
Y827112D01*
X1129030D01*
Y827859D01*
X1128283D01*
Y829354D01*
X1125294D01*
Y830101D01*
X1123052D01*
Y830848D01*
X1121557D01*
Y831595D01*
X1120063D01*
Y832343D01*
X1119316D01*
Y833090D01*
X1117821D01*
Y833837D01*
X1116327D01*
Y834584D01*
X1115579D01*
Y835332D01*
X1114832D01*
Y836079D01*
X1113338D01*
Y836826D01*
X1112590D01*
Y837573D01*
X1111096D01*
Y838321D01*
X1110349D01*
Y839068D01*
X1109601D01*
Y839815D01*
X1108107D01*
Y840562D01*
X1107360D01*
Y841310D01*
X1106612D01*
Y842057D01*
X1105865D01*
Y842804D01*
X1105118D01*
Y843551D01*
X1103623D01*
Y844299D01*
X1102876D01*
Y845046D01*
X1102129D01*
Y845793D01*
X1101382D01*
Y846540D01*
X1100634D01*
Y847288D01*
X1099887D01*
Y848035D01*
X1098392D01*
Y848782D01*
X1097645D01*
Y849529D01*
X1096898D01*
Y850277D01*
X1096151D01*
Y851024D01*
X1095404D01*
Y851771D01*
X1094656D01*
Y852518D01*
X1093909D01*
Y853266D01*
X1092414D01*
Y854013D01*
X1091667D01*
Y854760D01*
X1090920D01*
Y855508D01*
X1090173D01*
Y856255D01*
X1089425D01*
Y857002D01*
X1088678D01*
Y857749D01*
X1087931D01*
Y858496D01*
X1087184D01*
Y859244D01*
X1085689D01*
Y859991D01*
X1084942D01*
Y860738D01*
X1084195D01*
Y861486D01*
X1083447D01*
Y862233D01*
X1082700D01*
Y862980D01*
X1081206D01*
Y863727D01*
X1080458D01*
Y864475D01*
X1079711D01*
Y865222D01*
X1078217D01*
Y865969D01*
X1077469D01*
Y866716D01*
X1075975D01*
Y867464D01*
X1074480D01*
Y868211D01*
X1075228D01*
Y868958D01*
X1075975D01*
Y869705D01*
X1077469D01*
Y870453D01*
X1081206D01*
Y869705D01*
D02*
G37*
G36*
X1151448Y811419D02*
X1149953D01*
Y810672D01*
X1148459D01*
Y809925D01*
X1146964D01*
Y809178D01*
X1146217D01*
Y807683D01*
X1149953D01*
Y808430D01*
X1150700D01*
Y807683D01*
X1151448D01*
Y806936D01*
X1140986D01*
Y808430D01*
X1140239D01*
Y809925D01*
X1140986D01*
Y811419D01*
X1142481D01*
Y812167D01*
X1144722D01*
Y811419D01*
X1146217D01*
Y810672D01*
X1147711D01*
Y811419D01*
X1149206D01*
Y812167D01*
X1151448D01*
Y811419D01*
D02*
G37*
G36*
Y798716D02*
X1140986D01*
Y799463D01*
X1140239D01*
Y800211D01*
X1140986D01*
Y802452D01*
X1140239D01*
Y803200D01*
X1141733D01*
Y799463D01*
X1145470D01*
Y803200D01*
X1146217D01*
Y799463D01*
X1149953D01*
Y803200D01*
X1151448D01*
Y798716D01*
D02*
G37*
G36*
X1133513D02*
X1132766D01*
Y799463D01*
X1133513D01*
Y798716D01*
D02*
G37*
G36*
X1082700Y837573D02*
X1084942D01*
Y836826D01*
X1086436D01*
Y836079D01*
X1087184D01*
Y835332D01*
X1088678D01*
Y834584D01*
X1089425D01*
Y833837D01*
X1090920D01*
Y833090D01*
X1091667D01*
Y832343D01*
X1092414D01*
Y831595D01*
X1093909D01*
Y830848D01*
X1094656D01*
Y830101D01*
X1095404D01*
Y829354D01*
X1096151D01*
Y828606D01*
X1096898D01*
Y827859D01*
X1098392D01*
Y827112D01*
X1099140D01*
Y826365D01*
X1099887D01*
Y825617D01*
X1100634D01*
Y824870D01*
X1101382D01*
Y824123D01*
X1102129D01*
Y823375D01*
X1102876D01*
Y822628D01*
X1103623D01*
Y821881D01*
X1104370D01*
Y821134D01*
X1105118D01*
Y820387D01*
X1105865D01*
Y819639D01*
X1106612D01*
Y818892D01*
X1107360D01*
Y818145D01*
X1108107D01*
Y817398D01*
X1109601D01*
Y816650D01*
X1110349D01*
Y815903D01*
X1111096D01*
Y815156D01*
X1111843D01*
Y814408D01*
X1112590D01*
Y813661D01*
X1113338D01*
Y812914D01*
X1114085D01*
Y812167D01*
X1114832D01*
Y811419D01*
X1115579D01*
Y810672D01*
X1116327D01*
Y809925D01*
X1117074D01*
Y809178D01*
X1117821D01*
Y808430D01*
X1118568D01*
Y807683D01*
X1119316D01*
Y806936D01*
X1120063D01*
Y806189D01*
X1120810D01*
Y805441D01*
X1122305D01*
Y804694D01*
X1123052D01*
Y803947D01*
X1123799D01*
Y803200D01*
X1124547D01*
Y802452D01*
X1126041D01*
Y801705D01*
X1126788D01*
Y800958D01*
X1128283D01*
Y800211D01*
X1129777D01*
Y799463D01*
X1131272D01*
Y798716D01*
X1132766D01*
Y797969D01*
X1131272D01*
Y797222D01*
X1126788D01*
Y797969D01*
X1124547D01*
Y798716D01*
X1123052D01*
Y799463D01*
X1121557D01*
Y800211D01*
X1120063D01*
Y800958D01*
X1118568D01*
Y801705D01*
X1117074D01*
Y802452D01*
X1116327D01*
Y803200D01*
X1115579D01*
Y803947D01*
X1114085D01*
Y804694D01*
X1113338D01*
Y805441D01*
X1111843D01*
Y806189D01*
X1111096D01*
Y806936D01*
X1110349D01*
Y807683D01*
X1108854D01*
Y808430D01*
X1108107D01*
Y809178D01*
X1107360D01*
Y809925D01*
X1106612D01*
Y810672D01*
X1105118D01*
Y811419D01*
X1104370D01*
Y812167D01*
X1103623D01*
Y812914D01*
X1102876D01*
Y813661D01*
X1102129D01*
Y814408D01*
X1101382D01*
Y815156D01*
X1100634D01*
Y815903D01*
X1099140D01*
Y816650D01*
X1098392D01*
Y817398D01*
X1097645D01*
Y818145D01*
X1096898D01*
Y818892D01*
X1096151D01*
Y819639D01*
X1095404D01*
Y820387D01*
X1093909D01*
Y821134D01*
X1093162D01*
Y821881D01*
X1092414D01*
Y822628D01*
X1091667D01*
Y823375D01*
X1090920D01*
Y824123D01*
X1090173D01*
Y824870D01*
X1089425D01*
Y825617D01*
X1087931D01*
Y826365D01*
X1087184D01*
Y827112D01*
X1086436D01*
Y827859D01*
X1085689D01*
Y828606D01*
X1084942D01*
Y829354D01*
X1084195D01*
Y830101D01*
X1083447D01*
Y830848D01*
X1081953D01*
Y831595D01*
X1081206D01*
Y832343D01*
X1080458D01*
Y833090D01*
X1078964D01*
Y833837D01*
X1078217D01*
Y834584D01*
X1076722D01*
Y835332D01*
X1075228D01*
Y836079D01*
X1074480D01*
Y836826D01*
X1075228D01*
Y837573D01*
X1075975D01*
Y838321D01*
X1082700D01*
Y837573D01*
D02*
G37*
G36*
X1141733Y794980D02*
X1144722D01*
Y794232D01*
X1146964D01*
Y793485D01*
X1149206D01*
Y792738D01*
X1151448D01*
Y791991D01*
X1149953D01*
Y791244D01*
X1147711D01*
Y790496D01*
X1144722D01*
Y789749D01*
X1142481D01*
Y789002D01*
X1140239D01*
Y789749D01*
X1140986D01*
Y790496D01*
X1143975D01*
Y791244D01*
X1146217D01*
Y791991D01*
X1149206D01*
Y792738D01*
X1146217D01*
Y793485D01*
X1143975D01*
Y794232D01*
X1140986D01*
Y794980D01*
X1140239D01*
Y795727D01*
X1141733D01*
Y794980D01*
D02*
G37*
G36*
X1110349Y802452D02*
X1109601D01*
Y801705D01*
X1108107D01*
Y796474D01*
X1108854D01*
Y794980D01*
X1109601D01*
Y793485D01*
X1110349D01*
Y791991D01*
X1111096D01*
Y791244D01*
X1111843D01*
Y790496D01*
X1112590D01*
Y789749D01*
X1113338D01*
Y788254D01*
X1114085D01*
Y787507D01*
X1114832D01*
Y786760D01*
X1115579D01*
Y786013D01*
X1116327D01*
Y785266D01*
X1117074D01*
Y784518D01*
X1117821D01*
Y783771D01*
X1118568D01*
Y783024D01*
X1119316D01*
Y782276D01*
X1120063D01*
Y781529D01*
X1120810D01*
Y780782D01*
X1122305D01*
Y780035D01*
X1123052D01*
Y779287D01*
X1123799D01*
Y778540D01*
X1125294D01*
Y777793D01*
X1126041D01*
Y777046D01*
X1127535D01*
Y776298D01*
X1129030D01*
Y775551D01*
X1131272D01*
Y774804D01*
X1132019D01*
Y775551D01*
X1133513D01*
Y777046D01*
X1132766D01*
Y778540D01*
X1132019D01*
Y779287D01*
X1131272D01*
Y780035D01*
X1130525D01*
Y780782D01*
X1129777D01*
Y781529D01*
X1129030D01*
Y782276D01*
X1128283D01*
Y783024D01*
X1127535D01*
Y783771D01*
X1126788D01*
Y784518D01*
X1126041D01*
Y785266D01*
X1125294D01*
Y786013D01*
X1124547D01*
Y786760D01*
X1123799D01*
Y787507D01*
X1123052D01*
Y788254D01*
X1122305D01*
Y789002D01*
X1121557D01*
Y789749D01*
X1120063D01*
Y790496D01*
X1119316D01*
Y791244D01*
X1118568D01*
Y791991D01*
X1117821D01*
Y792738D01*
X1117074D01*
Y793485D01*
X1116327D01*
Y794232D01*
X1115579D01*
Y794980D01*
X1114085D01*
Y795727D01*
X1112590D01*
Y797222D01*
X1118568D01*
Y796474D01*
X1120810D01*
Y795727D01*
X1121557D01*
Y794980D01*
X1123052D01*
Y794232D01*
X1124547D01*
Y793485D01*
X1125294D01*
Y792738D01*
X1126788D01*
Y791991D01*
X1128283D01*
Y791244D01*
X1129030D01*
Y790496D01*
X1130525D01*
Y789749D01*
X1136503D01*
Y789002D01*
X1135755D01*
Y787507D01*
X1135008D01*
Y786760D01*
X1134261D01*
Y786013D01*
X1133513D01*
Y785266D01*
X1128283D01*
Y786013D01*
X1126788D01*
Y786760D01*
X1126041D01*
Y786013D01*
X1126788D01*
Y785266D01*
X1127535D01*
Y784518D01*
X1128283D01*
Y783771D01*
X1129030D01*
Y783024D01*
X1129777D01*
Y782276D01*
X1130525D01*
Y781529D01*
X1131272D01*
Y780782D01*
X1132019D01*
Y780035D01*
X1132766D01*
Y779287D01*
X1133513D01*
Y777793D01*
X1134261D01*
Y773309D01*
X1133513D01*
Y772562D01*
X1132766D01*
Y771815D01*
X1126041D01*
Y772562D01*
X1123799D01*
Y773309D01*
X1122305D01*
Y774057D01*
X1120810D01*
Y774804D01*
X1119316D01*
Y775551D01*
X1118568D01*
Y776298D01*
X1117074D01*
Y777046D01*
X1116327D01*
Y777793D01*
X1115579D01*
Y778540D01*
X1114085D01*
Y779287D01*
X1113338D01*
Y780035D01*
X1112590D01*
Y780782D01*
X1111843D01*
Y781529D01*
X1111096D01*
Y783024D01*
X1110349D01*
Y783771D01*
X1109601D01*
Y784518D01*
X1108854D01*
Y786013D01*
X1108107D01*
Y786760D01*
X1107360D01*
Y788254D01*
X1106612D01*
Y789749D01*
X1105865D01*
Y792738D01*
X1105118D01*
Y800211D01*
X1105865D01*
Y801705D01*
X1106612D01*
Y802452D01*
X1107360D01*
Y803200D01*
X1110349D01*
Y802452D01*
D02*
G37*
G36*
X1150700Y785266D02*
X1151448D01*
Y784518D01*
X1140986D01*
Y786013D01*
X1150700D01*
Y785266D01*
D02*
G37*
G36*
X1151448Y780035D02*
X1150700D01*
Y779287D01*
X1149206D01*
Y778540D01*
X1148459D01*
Y777793D01*
X1146964D01*
Y777046D01*
X1145470D01*
Y776298D01*
X1143975D01*
Y775551D01*
X1151448D01*
Y774804D01*
X1149953D01*
Y774057D01*
X1149206D01*
Y774804D01*
X1140986D01*
Y775551D01*
X1142481D01*
Y776298D01*
X1143228D01*
Y777046D01*
X1144722D01*
Y777793D01*
X1146217D01*
Y778540D01*
X1147711D01*
Y780035D01*
X1146964D01*
Y779287D01*
X1140986D01*
Y780782D01*
X1151448D01*
Y780035D01*
D02*
G37*
G36*
X1085689Y794980D02*
X1089425D01*
Y794232D01*
X1090920D01*
Y793485D01*
X1092414D01*
Y792738D01*
X1093162D01*
Y791991D01*
X1094656D01*
Y791244D01*
X1095404D01*
Y790496D01*
X1096151D01*
Y789749D01*
X1096898D01*
Y789002D01*
X1097645D01*
Y788254D01*
X1098392D01*
Y786760D01*
X1099140D01*
Y786013D01*
X1099887D01*
Y784518D01*
X1100634D01*
Y783771D01*
X1101382D01*
Y781529D01*
X1102129D01*
Y779287D01*
X1102876D01*
Y774804D01*
X1103623D01*
Y773309D01*
X1102876D01*
Y768826D01*
X1102129D01*
Y767331D01*
X1101382D01*
Y768826D01*
X1100634D01*
Y770320D01*
X1099887D01*
Y771815D01*
X1099140D01*
Y773309D01*
X1098392D01*
Y774804D01*
X1097645D01*
Y775551D01*
X1096898D01*
Y776298D01*
X1096151D01*
Y777046D01*
X1095404D01*
Y777793D01*
X1094656D01*
Y779287D01*
X1093909D01*
Y780035D01*
X1093162D01*
Y780782D01*
X1092414D01*
Y781529D01*
X1090920D01*
Y782276D01*
X1090173D01*
Y783024D01*
X1089425D01*
Y783771D01*
X1087931D01*
Y784518D01*
X1087184D01*
Y785266D01*
X1085689D01*
Y786013D01*
X1083447D01*
Y786760D01*
X1080458D01*
Y786013D01*
X1079711D01*
Y785266D01*
X1078964D01*
Y783771D01*
X1078217D01*
Y777793D01*
X1078964D01*
Y775551D01*
X1079711D01*
Y773309D01*
X1080458D01*
Y771815D01*
X1081206D01*
Y770320D01*
X1081953D01*
Y769573D01*
X1082700D01*
Y768079D01*
X1083447D01*
Y767331D01*
X1084195D01*
Y765837D01*
X1084942D01*
Y765089D01*
X1085689D01*
Y764342D01*
X1086436D01*
Y762848D01*
X1087184D01*
Y762101D01*
X1087931D01*
Y761353D01*
X1088678D01*
Y760606D01*
X1089425D01*
Y759859D01*
X1090173D01*
Y759111D01*
X1090920D01*
Y758364D01*
X1091667D01*
Y757617D01*
X1092414D01*
Y756870D01*
X1093162D01*
Y756123D01*
X1093909D01*
Y755375D01*
X1094656D01*
Y754628D01*
X1095404D01*
Y753881D01*
X1096151D01*
Y753133D01*
X1096898D01*
Y752386D01*
X1097645D01*
Y751639D01*
X1099140D01*
Y750892D01*
X1099887D01*
Y750144D01*
X1100634D01*
Y749397D01*
X1101382D01*
Y748650D01*
X1102876D01*
Y747903D01*
X1103623D01*
Y747155D01*
X1104370D01*
Y746408D01*
X1105865D01*
Y745661D01*
X1106612D01*
Y744914D01*
X1107360D01*
Y744166D01*
X1108854D01*
Y743419D01*
X1109601D01*
Y742672D01*
X1111096D01*
Y741925D01*
X1112590D01*
Y741177D01*
X1113338D01*
Y740430D01*
X1114832D01*
Y739683D01*
X1116327D01*
Y738936D01*
X1117074D01*
Y738188D01*
X1118568D01*
Y737441D01*
X1120063D01*
Y736694D01*
X1121557D01*
Y735947D01*
X1123052D01*
Y735199D01*
X1124547D01*
Y734452D01*
X1126788D01*
Y733705D01*
X1129030D01*
Y732958D01*
X1131272D01*
Y732210D01*
X1133513D01*
Y731463D01*
X1139492D01*
Y732210D01*
X1140986D01*
Y732958D01*
X1142481D01*
Y734452D01*
X1143228D01*
Y738936D01*
X1142481D01*
Y741177D01*
X1141733D01*
Y741925D01*
X1140986D01*
Y743419D01*
X1140239D01*
Y744166D01*
X1139492D01*
Y744914D01*
X1138744D01*
Y745661D01*
X1137997D01*
Y747155D01*
X1137250D01*
Y747903D01*
X1136503D01*
Y748650D01*
X1135008D01*
Y749397D01*
X1134261D01*
Y750144D01*
X1133513D01*
Y750892D01*
X1132766D01*
Y751639D01*
X1131272D01*
Y752386D01*
X1130525D01*
Y753133D01*
X1129777D01*
Y753881D01*
X1128283D01*
Y754628D01*
X1127535D01*
Y755375D01*
X1126041D01*
Y756123D01*
X1125294D01*
Y756870D01*
X1123799D01*
Y757617D01*
X1122305D01*
Y758364D01*
X1120810D01*
Y759111D01*
X1118568D01*
Y759859D01*
X1116327D01*
Y766584D01*
X1117074D01*
Y768079D01*
X1117821D01*
Y768826D01*
X1118568D01*
Y769573D01*
X1122305D01*
Y768826D01*
X1123799D01*
Y768079D01*
X1125294D01*
Y767331D01*
X1126041D01*
Y766584D01*
X1127535D01*
Y765837D01*
X1128283D01*
Y765089D01*
X1129030D01*
Y764342D01*
X1130525D01*
Y763595D01*
X1131272D01*
Y762848D01*
X1132019D01*
Y762101D01*
X1132766D01*
Y761353D01*
X1133513D01*
Y760606D01*
X1134261D01*
Y759859D01*
X1135008D01*
Y759111D01*
X1136503D01*
Y758364D01*
X1137250D01*
Y757617D01*
X1137997D01*
Y756870D01*
X1138744D01*
Y756123D01*
X1139492D01*
Y755375D01*
X1140239D01*
Y754628D01*
X1140986D01*
Y753881D01*
X1141733D01*
Y753133D01*
X1142481D01*
Y752386D01*
X1143228D01*
Y751639D01*
X1143975D01*
Y750892D01*
X1144722D01*
Y750144D01*
X1146217D01*
Y749397D01*
X1146964D01*
Y748650D01*
X1147711D01*
Y747903D01*
X1148459D01*
Y747155D01*
X1149206D01*
Y746408D01*
X1149953D01*
Y745661D01*
X1151448D01*
Y744914D01*
X1152195D01*
Y744166D01*
X1152942D01*
Y743419D01*
X1153689D01*
Y742672D01*
X1155184D01*
Y741925D01*
X1156678D01*
Y741177D01*
X1158173D01*
Y740430D01*
X1161909D01*
Y739683D01*
X1160415D01*
Y738936D01*
X1153689D01*
Y739683D01*
X1151448D01*
Y740430D01*
X1149953D01*
Y741177D01*
X1148459D01*
Y741925D01*
X1146964D01*
Y742672D01*
X1145470D01*
Y743419D01*
X1143975D01*
Y744166D01*
X1143228D01*
Y744914D01*
X1141733D01*
Y745661D01*
X1140986D01*
Y744914D01*
X1141733D01*
Y743419D01*
X1142481D01*
Y742672D01*
X1143228D01*
Y741177D01*
X1143975D01*
Y739683D01*
X1144722D01*
Y731463D01*
X1143975D01*
Y729221D01*
X1143228D01*
Y728474D01*
X1142481D01*
Y727727D01*
X1141733D01*
Y726980D01*
X1140986D01*
Y726232D01*
X1140239D01*
Y725485D01*
X1138744D01*
Y724738D01*
X1136503D01*
Y723990D01*
X1126788D01*
Y724738D01*
X1123799D01*
Y725485D01*
X1120810D01*
Y726232D01*
X1119316D01*
Y726980D01*
X1117074D01*
Y727727D01*
X1115579D01*
Y728474D01*
X1114085D01*
Y729221D01*
X1112590D01*
Y729968D01*
X1111096D01*
Y730716D01*
X1109601D01*
Y731463D01*
X1108107D01*
Y732210D01*
X1107360D01*
Y732958D01*
X1105865D01*
Y733705D01*
X1105118D01*
Y734452D01*
X1103623D01*
Y735199D01*
X1102876D01*
Y735947D01*
X1102129D01*
Y736694D01*
X1100634D01*
Y737441D01*
X1099887D01*
Y738188D01*
X1099140D01*
Y738936D01*
X1098392D01*
Y739683D01*
X1097645D01*
Y740430D01*
X1096151D01*
Y741177D01*
X1095404D01*
Y741925D01*
X1094656D01*
Y742672D01*
X1093909D01*
Y743419D01*
X1093162D01*
Y744166D01*
X1092414D01*
Y744914D01*
X1091667D01*
Y746408D01*
X1090920D01*
Y747155D01*
X1090173D01*
Y747903D01*
X1089425D01*
Y748650D01*
X1088678D01*
Y749397D01*
X1087931D01*
Y750892D01*
X1087184D01*
Y751639D01*
X1086436D01*
Y752386D01*
X1085689D01*
Y753881D01*
X1084942D01*
Y755375D01*
X1084195D01*
Y756123D01*
X1083447D01*
Y757617D01*
X1082700D01*
Y759111D01*
X1081953D01*
Y760606D01*
X1081206D01*
Y762101D01*
X1080458D01*
Y763595D01*
X1079711D01*
Y765837D01*
X1078964D01*
Y768079D01*
X1078217D01*
Y771068D01*
X1077469D01*
Y774804D01*
X1076722D01*
Y788254D01*
X1077469D01*
Y790496D01*
X1078217D01*
Y791991D01*
X1078964D01*
Y792738D01*
X1079711D01*
Y793485D01*
X1080458D01*
Y794232D01*
X1081206D01*
Y794980D01*
X1084195D01*
Y795727D01*
X1085689D01*
Y794980D01*
D02*
G37*
G36*
X1149953Y769573D02*
X1150700D01*
Y768826D01*
X1151448D01*
Y766584D01*
X1150700D01*
Y765089D01*
X1149206D01*
Y764342D01*
X1140986D01*
Y765837D01*
X1149953D01*
Y767331D01*
X1150700D01*
Y768079D01*
X1149953D01*
Y768826D01*
X1149206D01*
Y769573D01*
X1140239D01*
Y770320D01*
X1149953D01*
Y769573D01*
D02*
G37*
G36*
X1111096Y719507D02*
X1110349D01*
Y720254D01*
X1111096D01*
Y719507D01*
D02*
G37*
G36*
X1131272Y716518D02*
X1130525D01*
Y717265D01*
X1131272D01*
Y716518D01*
D02*
G37*
G36*
X1135008Y714276D02*
X1134261D01*
Y715023D01*
X1135008D01*
Y714276D01*
D02*
G37*
G36*
X1095404D02*
X1094656D01*
Y715023D01*
X1095404D01*
Y714276D01*
D02*
G37*
G36*
X1141733Y710540D02*
X1140986D01*
Y711287D01*
X1141733D01*
Y710540D01*
D02*
G37*
G36*
X1086436Y709793D02*
X1085689D01*
Y710540D01*
X1086436D01*
Y709793D01*
D02*
G37*
G36*
X1084195Y708298D02*
X1084942D01*
Y707551D01*
X1084195D01*
Y708298D01*
X1083447D01*
Y709045D01*
X1084195D01*
Y708298D01*
D02*
G37*
G36*
X1082700Y706804D02*
X1083447D01*
Y706056D01*
X1082700D01*
Y706804D01*
X1081953D01*
Y707551D01*
X1082700D01*
Y706804D01*
D02*
G37*
G36*
X1081953Y706056D02*
X1081206D01*
Y706804D01*
X1081953D01*
Y706056D01*
D02*
G37*
G36*
X1148459Y705309D02*
X1147711D01*
Y706056D01*
X1148459D01*
Y705309D01*
D02*
G37*
G36*
X1147711Y704562D02*
X1146964D01*
Y705309D01*
X1147711D01*
Y704562D01*
D02*
G37*
G36*
X1116327Y717265D02*
X1121557D01*
Y716518D01*
X1126041D01*
Y715771D01*
X1128283D01*
Y715023D01*
X1131272D01*
Y714276D01*
X1132766D01*
Y713529D01*
X1133513D01*
Y712782D01*
X1135008D01*
Y712034D01*
X1136503D01*
Y711287D01*
X1137997D01*
Y710540D01*
X1138744D01*
Y709793D01*
X1140239D01*
Y709045D01*
X1140986D01*
Y708298D01*
X1141733D01*
Y707551D01*
X1142481D01*
Y706804D01*
X1143975D01*
Y706056D01*
X1144722D01*
Y704562D01*
X1145470D01*
Y702320D01*
X1146217D01*
Y701573D01*
X1146964D01*
Y702320D01*
X1146217D01*
Y703067D01*
X1146964D01*
Y702320D01*
X1148459D01*
Y700826D01*
X1149206D01*
Y700078D01*
X1149953D01*
Y699331D01*
X1150700D01*
Y698584D01*
X1151448D01*
Y697089D01*
X1152195D01*
Y695595D01*
X1152942D01*
Y694100D01*
X1153689D01*
Y692606D01*
X1154437D01*
Y691111D01*
X1155184D01*
Y689617D01*
X1155931D01*
Y688122D01*
X1156678D01*
Y685133D01*
X1157426D01*
Y682144D01*
X1158173D01*
Y676166D01*
X1158920D01*
Y673177D01*
X1159668D01*
Y672430D01*
X1158920D01*
Y670188D01*
X1158173D01*
Y664957D01*
X1157426D01*
Y661968D01*
X1156678D01*
Y658979D01*
X1155931D01*
Y657485D01*
X1155184D01*
Y655243D01*
X1154437D01*
Y653748D01*
X1153689D01*
Y652254D01*
X1152942D01*
Y650759D01*
X1152195D01*
Y650012D01*
X1151448D01*
Y648518D01*
X1150700D01*
Y647770D01*
X1149953D01*
Y646276D01*
X1149206D01*
Y645529D01*
X1148459D01*
Y644781D01*
X1147711D01*
Y644034D01*
X1146964D01*
Y643287D01*
X1146217D01*
Y642540D01*
X1147711D01*
Y641792D01*
X1146217D01*
Y642540D01*
X1145470D01*
Y641792D01*
X1144722D01*
Y641045D01*
X1143975D01*
Y640298D01*
X1143228D01*
Y639551D01*
X1142481D01*
Y638803D01*
X1141733D01*
Y638056D01*
X1140239D01*
Y637309D01*
X1138744D01*
Y635814D01*
X1137997D01*
Y636562D01*
X1137250D01*
Y635814D01*
X1136503D01*
Y635067D01*
X1135008D01*
Y634320D01*
X1134261D01*
Y633573D01*
X1132766D01*
Y632825D01*
X1131272D01*
Y632078D01*
X1129030D01*
Y631331D01*
X1126041D01*
Y630583D01*
X1123799D01*
Y629836D01*
X1119316D01*
Y629089D01*
X1109601D01*
Y629836D01*
X1105118D01*
Y630583D01*
X1101382D01*
Y631331D01*
X1099887D01*
Y632078D01*
X1097645D01*
Y632825D01*
X1095404D01*
Y633573D01*
X1093909D01*
Y634320D01*
X1093162D01*
Y635067D01*
X1091667D01*
Y635814D01*
X1090173D01*
Y636562D01*
X1089425D01*
Y637309D01*
X1088678D01*
Y638056D01*
X1087184D01*
Y638803D01*
X1086436D01*
Y639551D01*
X1085689D01*
Y640298D01*
X1084942D01*
Y641045D01*
X1083447D01*
Y641792D01*
X1082700D01*
Y642540D01*
X1081953D01*
Y644034D01*
X1081206D01*
Y644781D01*
X1080458D01*
Y645529D01*
X1079711D01*
Y646276D01*
X1078964D01*
Y647023D01*
X1078217D01*
Y648518D01*
X1077469D01*
Y649265D01*
X1076722D01*
Y650759D01*
X1075975D01*
Y652254D01*
X1075228D01*
Y653748D01*
X1074480D01*
Y655243D01*
X1073733D01*
Y656737D01*
X1072986D01*
Y658979D01*
X1072238D01*
Y661221D01*
X1071491D01*
Y663463D01*
X1070744D01*
Y667199D01*
X1069997D01*
Y679155D01*
X1070744D01*
Y682891D01*
X1071491D01*
Y685880D01*
X1072238D01*
Y688122D01*
X1072986D01*
Y690364D01*
X1073733D01*
Y692606D01*
X1074480D01*
Y693353D01*
X1075228D01*
Y694847D01*
X1075975D01*
Y696342D01*
X1076722D01*
Y697089D01*
X1077469D01*
Y698584D01*
X1078217D01*
Y699331D01*
X1078964D01*
Y700078D01*
X1079711D01*
Y701573D01*
X1080458D01*
Y702320D01*
X1081206D01*
Y703067D01*
X1081953D01*
Y703814D01*
X1082700D01*
Y704562D01*
X1081953D01*
Y705309D01*
X1082700D01*
Y704562D01*
X1083447D01*
Y705309D01*
X1084195D01*
Y706056D01*
X1084942D01*
Y706804D01*
X1085689D01*
Y707551D01*
X1086436D01*
Y708298D01*
X1087184D01*
Y709045D01*
X1088678D01*
Y709793D01*
X1089425D01*
Y710540D01*
X1090920D01*
Y711287D01*
X1091667D01*
Y712034D01*
X1093162D01*
Y712782D01*
X1094656D01*
Y713529D01*
X1096151D01*
Y714276D01*
X1097645D01*
Y715023D01*
X1099887D01*
Y715771D01*
X1102876D01*
Y716518D01*
X1105865D01*
Y717265D01*
X1111843D01*
Y718012D01*
X1116327D01*
Y717265D01*
D02*
G37*
G36*
X1080458Y704562D02*
X1079711D01*
Y705309D01*
X1080458D01*
Y704562D01*
D02*
G37*
G36*
X1079711Y703814D02*
X1078964D01*
Y704562D01*
X1079711D01*
Y703814D01*
D02*
G37*
G36*
X1150700Y700826D02*
X1149953D01*
Y701573D01*
X1150700D01*
Y700826D01*
D02*
G37*
G36*
X1153689Y698584D02*
X1152942D01*
Y699331D01*
X1153689D01*
Y698584D01*
D02*
G37*
G36*
X1073733Y693353D02*
X1072986D01*
Y694100D01*
X1073733D01*
Y693353D01*
D02*
G37*
G36*
X1161162Y673177D02*
X1160415D01*
Y674672D01*
X1161162D01*
Y673177D01*
D02*
G37*
G36*
Y670188D02*
X1160415D01*
Y670935D01*
X1161162D01*
Y670188D01*
D02*
G37*
G36*
X1069249Y664210D02*
X1068502D01*
Y664957D01*
X1069249D01*
Y664210D01*
D02*
G37*
G36*
X1072986Y654496D02*
X1073733D01*
Y653748D01*
X1072986D01*
Y654496D01*
X1072238D01*
Y655243D01*
X1072986D01*
Y654496D01*
D02*
G37*
G36*
X1151448Y644781D02*
X1150700D01*
Y645529D01*
X1151448D01*
Y644781D01*
D02*
G37*
G36*
X1078217D02*
X1077469D01*
Y645529D01*
X1078217D01*
Y644781D01*
D02*
G37*
G36*
X1078964Y643287D02*
X1078217D01*
Y644034D01*
X1078964D01*
Y643287D01*
D02*
G37*
G36*
X1148459Y642540D02*
X1147711D01*
Y643287D01*
X1148459D01*
Y642540D01*
D02*
G37*
G36*
X1082700Y639551D02*
X1081953D01*
Y640298D01*
X1082700D01*
Y639551D01*
D02*
G37*
G36*
X1087184Y637309D02*
X1086436D01*
Y638056D01*
X1087184D01*
Y637309D01*
D02*
G37*
G36*
X1085689D02*
X1084942D01*
Y638056D01*
X1085689D01*
Y637309D01*
D02*
G37*
G36*
X1087184Y635814D02*
X1086436D01*
Y636562D01*
X1087184D01*
Y635814D01*
D02*
G37*
G36*
X1091667Y634320D02*
X1090173D01*
Y635067D01*
X1091667D01*
Y634320D01*
D02*
G37*
G36*
X1129030Y629089D02*
X1128283D01*
Y629836D01*
X1129030D01*
Y629089D01*
D02*
G37*
G36*
X1125294Y627594D02*
X1124547D01*
Y628342D01*
X1125294D01*
Y627594D01*
D02*
G37*
G36*
X1105118D02*
X1104370D01*
Y628342D01*
X1105118D01*
Y627594D01*
D02*
G37*
%LPC*%
G36*
X1111843Y892870D02*
X1108107D01*
Y892123D01*
X1107360D01*
Y890629D01*
X1108107D01*
Y889134D01*
X1108854D01*
Y887639D01*
X1109601D01*
Y886892D01*
X1110349D01*
Y885398D01*
X1111096D01*
Y884650D01*
X1111843D01*
Y883903D01*
X1112590D01*
Y883156D01*
X1113338D01*
Y882409D01*
X1114085D01*
Y881662D01*
X1114832D01*
Y880914D01*
X1115579D01*
Y880167D01*
X1116327D01*
Y879420D01*
X1117074D01*
Y878672D01*
X1117821D01*
Y877925D01*
X1118568D01*
Y877178D01*
X1120063D01*
Y876431D01*
X1120810D01*
Y875683D01*
X1121557D01*
Y874936D01*
X1123052D01*
Y874189D01*
X1123799D01*
Y873442D01*
X1125294D01*
Y872694D01*
X1126041D01*
Y871947D01*
X1127535D01*
Y871200D01*
X1129030D01*
Y870453D01*
X1130525D01*
Y869705D01*
X1133513D01*
Y873442D01*
X1132766D01*
Y874936D01*
X1132019D01*
Y876431D01*
X1131272D01*
Y877178D01*
X1130525D01*
Y877925D01*
X1129777D01*
Y878672D01*
X1129030D01*
Y879420D01*
X1128283D01*
Y880167D01*
X1127535D01*
Y880914D01*
X1126788D01*
Y881662D01*
X1126041D01*
Y882409D01*
X1125294D01*
Y883156D01*
X1124547D01*
Y883903D01*
X1123799D01*
Y884650D01*
X1123052D01*
Y885398D01*
X1121557D01*
Y886145D01*
X1120810D01*
Y886892D01*
X1120063D01*
Y887639D01*
X1119316D01*
Y888387D01*
X1117821D01*
Y889134D01*
X1117074D01*
Y889881D01*
X1115579D01*
Y890629D01*
X1114832D01*
Y891376D01*
X1113338D01*
Y892123D01*
X1111843D01*
Y892870D01*
D02*
G37*
G36*
X1146964Y854013D02*
X1146217D01*
Y853266D01*
X1145470D01*
Y854013D01*
X1144722D01*
Y853266D01*
X1142481D01*
Y852518D01*
X1141733D01*
Y849529D01*
X1150700D01*
Y851024D01*
X1149953D01*
Y852518D01*
X1149206D01*
Y853266D01*
X1146964D01*
Y854013D01*
D02*
G37*
G36*
X1109601Y867464D02*
X1107360D01*
Y865222D01*
X1108107D01*
Y863727D01*
X1108854D01*
Y862980D01*
X1109601D01*
Y862233D01*
X1110349D01*
Y860738D01*
X1111096D01*
Y859991D01*
X1111843D01*
Y859244D01*
X1112590D01*
Y858496D01*
X1113338D01*
Y857749D01*
X1114085D01*
Y857002D01*
X1114832D01*
Y856255D01*
X1115579D01*
Y855508D01*
X1116327D01*
Y854760D01*
X1117074D01*
Y854013D01*
X1118568D01*
Y853266D01*
X1119316D01*
Y852518D01*
X1120063D01*
Y851771D01*
X1121557D01*
Y851024D01*
X1122305D01*
Y850277D01*
X1123799D01*
Y849529D01*
X1124547D01*
Y854013D01*
X1123799D01*
Y855508D01*
X1123052D01*
Y856255D01*
X1122305D01*
Y857002D01*
X1121557D01*
Y858496D01*
X1120810D01*
Y859244D01*
X1120063D01*
Y859991D01*
X1119316D01*
Y860738D01*
X1118568D01*
Y861486D01*
X1117821D01*
Y862233D01*
X1116327D01*
Y862980D01*
X1115579D01*
Y863727D01*
X1114832D01*
Y864475D01*
X1113338D01*
Y865222D01*
X1112590D01*
Y865969D01*
X1111096D01*
Y866716D01*
X1109601D01*
Y867464D01*
D02*
G37*
G36*
X1146964Y842804D02*
X1143975D01*
Y842057D01*
X1143228D01*
Y841310D01*
X1146217D01*
Y840562D01*
X1146964D01*
Y842804D01*
D02*
G37*
G36*
X1147711Y835332D02*
X1143975D01*
Y834584D01*
X1142481D01*
Y833837D01*
X1141733D01*
Y830848D01*
X1149953D01*
Y831595D01*
X1150700D01*
Y832343D01*
X1149953D01*
Y833837D01*
X1149206D01*
Y834584D01*
X1147711D01*
Y835332D01*
D02*
G37*
G36*
X1145470Y810672D02*
X1141733D01*
Y807683D01*
X1142481D01*
Y808430D01*
X1143228D01*
Y807683D01*
X1145470D01*
Y810672D01*
D02*
G37*
G36*
X1139492Y705309D02*
X1138744D01*
Y704562D01*
X1139492D01*
Y703814D01*
X1137997D01*
Y704562D01*
X1135755D01*
Y703814D01*
X1132766D01*
Y703067D01*
X1131272D01*
Y702320D01*
X1130525D01*
Y701573D01*
X1129030D01*
Y700826D01*
X1127535D01*
Y700078D01*
X1126788D01*
Y699331D01*
X1124547D01*
Y698584D01*
X1123052D01*
Y697837D01*
X1121557D01*
Y697089D01*
X1120063D01*
Y697837D01*
X1120810D01*
Y698584D01*
X1119316D01*
Y697089D01*
X1117821D01*
Y698584D01*
X1118568D01*
Y699331D01*
X1120063D01*
Y700826D01*
X1117074D01*
Y700078D01*
X1115579D01*
Y699331D01*
X1114085D01*
Y698584D01*
X1111843D01*
Y697837D01*
X1102876D01*
Y697089D01*
X1100634D01*
Y696342D01*
X1099140D01*
Y695595D01*
X1096898D01*
Y694847D01*
X1094656D01*
Y694100D01*
X1093909D01*
Y693353D01*
X1093162D01*
Y692606D01*
X1092414D01*
Y691859D01*
X1091667D01*
Y691111D01*
X1089425D01*
Y690364D01*
X1088678D01*
Y689617D01*
X1087931D01*
Y688869D01*
X1087184D01*
Y688122D01*
X1086436D01*
Y686628D01*
X1085689D01*
Y685133D01*
X1084942D01*
Y683639D01*
X1084195D01*
Y682891D01*
X1083447D01*
Y679902D01*
X1082700D01*
Y677661D01*
X1081953D01*
Y676166D01*
X1081206D01*
Y673924D01*
X1081953D01*
Y673177D01*
X1082700D01*
Y672430D01*
X1081953D01*
Y668693D01*
X1082700D01*
Y667946D01*
X1083447D01*
Y661221D01*
X1084195D01*
Y656737D01*
X1084942D01*
Y655243D01*
X1085689D01*
Y653748D01*
X1086436D01*
Y653001D01*
X1087184D01*
Y651507D01*
X1087931D01*
Y650759D01*
X1089425D01*
Y650012D01*
X1090920D01*
Y649265D01*
X1093162D01*
Y648518D01*
X1093909D01*
Y650012D01*
X1093162D01*
Y650759D01*
X1094656D01*
Y650012D01*
X1095404D01*
Y649265D01*
X1096898D01*
Y648518D01*
X1102129D01*
Y649265D01*
X1104370D01*
Y650012D01*
X1108854D01*
Y649265D01*
X1108107D01*
Y648518D01*
X1109601D01*
Y649265D01*
X1111843D01*
Y648518D01*
X1114832D01*
Y647770D01*
X1119316D01*
Y648518D01*
X1120810D01*
Y650012D01*
X1120063D01*
Y649265D01*
X1117821D01*
Y650012D01*
X1119316D01*
Y650759D01*
X1120063D01*
Y651507D01*
X1120810D01*
Y653001D01*
X1122305D01*
Y653748D01*
X1123052D01*
Y653001D01*
X1124547D01*
Y652254D01*
X1126041D01*
Y653001D01*
X1125294D01*
Y653748D01*
X1126041D01*
Y654496D01*
X1123799D01*
Y655243D01*
X1126788D01*
Y655990D01*
X1126041D01*
Y657485D01*
X1129777D01*
Y658232D01*
X1131272D01*
Y659726D01*
X1130525D01*
Y660474D01*
X1129777D01*
Y661221D01*
X1132019D01*
Y662716D01*
X1131272D01*
Y663463D01*
X1130525D01*
Y664210D01*
X1129030D01*
Y663463D01*
X1129777D01*
Y662716D01*
X1130525D01*
Y661968D01*
X1129030D01*
Y662716D01*
X1127535D01*
Y661968D01*
X1126041D01*
Y661221D01*
X1124547D01*
Y661968D01*
X1122305D01*
Y662716D01*
X1121557D01*
Y663463D01*
X1123052D01*
Y662716D01*
X1126041D01*
Y663463D01*
X1128283D01*
Y664210D01*
X1124547D01*
Y665704D01*
X1125294D01*
Y666452D01*
X1126041D01*
Y665704D01*
X1128283D01*
Y667199D01*
X1129030D01*
Y666452D01*
X1129777D01*
Y665704D01*
X1132019D01*
Y666452D01*
X1132766D01*
Y667199D01*
X1135755D01*
Y667946D01*
X1138744D01*
Y670188D01*
X1137997D01*
Y669441D01*
X1137250D01*
Y668693D01*
X1136503D01*
Y670188D01*
X1137250D01*
Y670935D01*
X1137997D01*
Y671683D01*
X1138744D01*
Y670935D01*
X1141733D01*
Y671683D01*
X1143228D01*
Y672430D01*
X1141733D01*
Y673177D01*
X1143228D01*
Y673924D01*
X1143975D01*
Y674672D01*
X1143228D01*
Y676913D01*
X1142481D01*
Y677661D01*
X1143228D01*
Y679155D01*
X1143975D01*
Y681397D01*
X1143228D01*
Y682144D01*
X1142481D01*
Y682891D01*
X1141733D01*
Y683639D01*
X1142481D01*
Y682891D01*
X1145470D01*
Y683639D01*
X1143228D01*
Y684386D01*
X1144722D01*
Y685133D01*
X1145470D01*
Y685880D01*
X1143975D01*
Y686628D01*
X1145470D01*
Y688122D01*
X1143975D01*
Y688869D01*
X1140986D01*
Y689617D01*
Y690364D01*
X1143975D01*
Y688869D01*
X1146964D01*
Y690364D01*
X1146217D01*
Y692606D01*
X1145470D01*
Y694100D01*
X1146964D01*
Y694847D01*
X1146217D01*
Y696342D01*
X1145470D01*
Y697089D01*
X1144722D01*
Y697837D01*
X1145470D01*
Y698584D01*
X1146217D01*
Y700078D01*
X1145470D01*
Y702320D01*
X1144722D01*
Y703067D01*
X1143228D01*
Y704562D01*
X1139492D01*
Y705309D01*
D02*
G37*
G36*
X1120810Y701573D02*
X1120063D01*
Y700826D01*
X1120810D01*
Y701573D01*
D02*
G37*
G36*
X1122305Y700078D02*
X1121557D01*
Y699331D01*
X1122305D01*
Y700078D01*
D02*
G37*
G36*
X1121557Y699331D02*
X1120810D01*
Y698584D01*
X1121557D01*
Y699331D01*
D02*
G37*
G36*
X1133513Y664957D02*
X1132766D01*
Y664210D01*
X1131272D01*
Y663463D01*
X1132019D01*
Y662716D01*
X1134261D01*
Y663463D01*
X1135755D01*
Y664210D01*
X1133513D01*
Y664957D01*
D02*
G37*
G36*
X1135008Y661968D02*
X1132766D01*
Y661221D01*
X1135008D01*
Y661968D01*
D02*
G37*
G36*
X1131272Y656737D02*
X1130525D01*
Y655990D01*
X1131272D01*
Y656737D01*
D02*
G37*
G36*
X1129777D02*
X1129030D01*
Y655990D01*
X1129777D01*
Y656737D01*
D02*
G37*
G36*
X1135755Y646276D02*
X1135008D01*
Y645529D01*
X1135755D01*
Y646276D01*
D02*
G37*
G36*
X1131272D02*
X1130525D01*
Y645529D01*
X1131272D01*
Y646276D01*
D02*
G37*
G36*
X1137250Y645529D02*
X1136503D01*
Y644034D01*
X1137250D01*
Y645529D01*
D02*
G37*
G36*
X1132766Y644781D02*
X1132019D01*
Y644034D01*
X1132766D01*
Y644781D01*
D02*
G37*
G36*
X1131272Y638056D02*
X1129777D01*
Y637309D01*
X1131272D01*
Y638056D01*
D02*
G37*
G36*
X1137250Y642540D02*
X1136503D01*
Y641792D01*
X1135755D01*
Y640298D01*
X1135008D01*
Y639551D01*
X1134261D01*
Y637309D01*
X1133513D01*
Y636562D01*
X1135008D01*
Y637309D01*
X1137250D01*
Y638056D01*
X1137997D01*
Y638803D01*
X1137250D01*
Y641045D01*
X1137997D01*
Y641792D01*
X1137250D01*
Y642540D01*
D02*
G37*
%LPD*%
G36*
X1139492Y704562D02*
D01*
D01*
D01*
D01*
D02*
G37*
G36*
X1141733Y702320D02*
X1140986D01*
Y703067D01*
X1141733D01*
Y702320D01*
D02*
G37*
G36*
X1143228Y700078D02*
X1142481D01*
Y700826D01*
X1143228D01*
Y700078D01*
D02*
G37*
G36*
X1130525D02*
X1129777D01*
Y700826D01*
X1130525D01*
Y700078D01*
D02*
G37*
G36*
X1143228Y697837D02*
X1142481D01*
Y698584D01*
X1143228D01*
Y697837D01*
D02*
G37*
G36*
X1103623Y695595D02*
X1105118D01*
Y694847D01*
X1101382D01*
Y695595D01*
X1102876D01*
Y696342D01*
X1103623D01*
Y695595D01*
D02*
G37*
G36*
X1137997Y694100D02*
X1137250D01*
Y694847D01*
X1137997D01*
Y694100D01*
D02*
G37*
G36*
X1143975D02*
X1144722D01*
Y693353D01*
X1143975D01*
Y694100D01*
X1141733D01*
Y694847D01*
X1143975D01*
Y694100D01*
D02*
G37*
G36*
X1141733Y691859D02*
X1140986D01*
Y692606D01*
X1141733D01*
Y691859D01*
D02*
G37*
G36*
X1137250Y692606D02*
X1136503D01*
Y691859D01*
X1135755D01*
Y693353D01*
X1136503D01*
Y694100D01*
X1137250D01*
Y692606D01*
D02*
G37*
G36*
X1108107D02*
X1107360D01*
Y691859D01*
X1105118D01*
Y691111D01*
X1103623D01*
Y688122D01*
X1104370D01*
Y684386D01*
X1102876D01*
Y683639D01*
X1102129D01*
Y682891D01*
X1099140D01*
Y682144D01*
X1097645D01*
Y682891D01*
Y683639D01*
Y685880D01*
X1098392D01*
Y692606D01*
X1099140D01*
Y694847D01*
X1101382D01*
Y691859D01*
X1102876D01*
Y692606D01*
X1103623D01*
Y693353D01*
X1104370D01*
Y694100D01*
X1106612D01*
Y694847D01*
X1108107D01*
Y692606D01*
D02*
G37*
G36*
X1140239Y682891D02*
X1139492D01*
Y683639D01*
X1140239D01*
Y682891D01*
D02*
G37*
G36*
X1122305D02*
X1121557D01*
Y686628D01*
X1122305D01*
Y682891D01*
D02*
G37*
G36*
X1134261Y680650D02*
X1133513D01*
Y681397D01*
X1134261D01*
Y680650D01*
D02*
G37*
G36*
X1114085Y686628D02*
X1113338D01*
Y685133D01*
X1114085D01*
Y676913D01*
X1114832D01*
Y676166D01*
X1114085D01*
Y675419D01*
X1113338D01*
Y676166D01*
X1110349D01*
Y678408D01*
X1109601D01*
Y679155D01*
X1108854D01*
Y677661D01*
X1106612D01*
Y678408D01*
X1104370D01*
Y677661D01*
X1105118D01*
Y676913D01*
X1106612D01*
Y676166D01*
X1107360D01*
Y674672D01*
X1106612D01*
Y675419D01*
X1105865D01*
Y676166D01*
X1105118D01*
Y673177D01*
X1104370D01*
Y671683D01*
X1103623D01*
Y670935D01*
X1102876D01*
Y667946D01*
X1103623D01*
Y667199D01*
X1104370D01*
Y666452D01*
X1105865D01*
Y665704D01*
X1107360D01*
Y664957D01*
X1108854D01*
Y664210D01*
X1107360D01*
Y663463D01*
X1105865D01*
Y662716D01*
X1106612D01*
Y661968D01*
X1107360D01*
Y661221D01*
X1108107D01*
Y660474D01*
X1107360D01*
Y661221D01*
X1105865D01*
Y660474D01*
X1106612D01*
Y659726D01*
X1107360D01*
Y658979D01*
X1109601D01*
Y660474D01*
X1108854D01*
Y661221D01*
X1111843D01*
Y661968D01*
X1112590D01*
Y663463D01*
X1113338D01*
Y664210D01*
X1114085D01*
Y664957D01*
X1114832D01*
Y666452D01*
X1115579D01*
Y667946D01*
X1116327D01*
Y666452D01*
X1117074D01*
Y665704D01*
X1117821D01*
Y664210D01*
X1119316D01*
Y662716D01*
X1120063D01*
Y661968D01*
X1120810D01*
Y660474D01*
X1120063D01*
Y658979D01*
X1120810D01*
Y658232D01*
X1120063D01*
Y657485D01*
X1120810D01*
Y656737D01*
X1118568D01*
Y655990D01*
X1117821D01*
Y655243D01*
X1117074D01*
Y654496D01*
X1118568D01*
Y653748D01*
X1117074D01*
Y654496D01*
X1116327D01*
Y653748D01*
X1117074D01*
Y653001D01*
X1117821D01*
Y652254D01*
X1118568D01*
Y651507D01*
X1116327D01*
Y652254D01*
X1115579D01*
Y653001D01*
X1114085D01*
Y653748D01*
X1113338D01*
Y654496D01*
X1112590D01*
Y655243D01*
X1110349D01*
Y655990D01*
X1108854D01*
Y655243D01*
X1108107D01*
Y654496D01*
X1106612D01*
Y653748D01*
X1105865D01*
Y652254D01*
X1105118D01*
Y651507D01*
X1104370D01*
Y650759D01*
X1102129D01*
Y651507D01*
X1102876D01*
Y652254D01*
X1103623D01*
Y653001D01*
X1104370D01*
Y653748D01*
X1105118D01*
Y654496D01*
X1105865D01*
Y656737D01*
X1100634D01*
Y655990D01*
X1098392D01*
Y655243D01*
X1096151D01*
Y655990D01*
X1093909D01*
Y655243D01*
X1090920D01*
Y655990D01*
X1090173D01*
Y656737D01*
X1088678D01*
Y657485D01*
X1087931D01*
Y658232D01*
X1087184D01*
Y658979D01*
X1086436D01*
Y659726D01*
X1088678D01*
Y660474D01*
X1089425D01*
Y661221D01*
X1090920D01*
Y660474D01*
Y659726D01*
Y658979D01*
X1088678D01*
Y657485D01*
X1090173D01*
Y658232D01*
X1092414D01*
Y657485D01*
X1093162D01*
Y658979D01*
X1092414D01*
Y660474D01*
X1093909D01*
Y661221D01*
X1096151D01*
Y661968D01*
X1097645D01*
Y661221D01*
X1099140D01*
Y661968D01*
X1098392D01*
Y662716D01*
X1097645D01*
Y663463D01*
X1096898D01*
Y669441D01*
X1097645D01*
Y671683D01*
X1096898D01*
Y672430D01*
X1097645D01*
Y675419D01*
X1096898D01*
Y676913D01*
X1097645D01*
Y679155D01*
X1098392D01*
Y678408D01*
X1100634D01*
Y679155D01*
X1102876D01*
Y679902D01*
X1104370D01*
Y679155D01*
X1106612D01*
Y680650D01*
X1105865D01*
Y681397D01*
X1106612D01*
Y682144D01*
X1107360D01*
Y682891D01*
X1108107D01*
Y683639D01*
X1108854D01*
Y685880D01*
X1108107D01*
Y686628D01*
X1107360D01*
Y687375D01*
X1109601D01*
Y688122D01*
X1114085D01*
Y686628D01*
D02*
G37*
G36*
X1138744Y678408D02*
X1137250D01*
Y679155D01*
X1138744D01*
Y678408D01*
D02*
G37*
G36*
X1137250Y677661D02*
X1136503D01*
Y678408D01*
X1137250D01*
Y677661D01*
D02*
G37*
G36*
X1126041Y690364D02*
X1124547D01*
Y689617D01*
X1123052D01*
Y688869D01*
X1121557D01*
Y687375D01*
X1120810D01*
Y685133D01*
X1120063D01*
Y680650D01*
X1120810D01*
Y679155D01*
X1121557D01*
Y678408D01*
X1123052D01*
Y677661D01*
X1123799D01*
Y676913D01*
X1121557D01*
Y677661D01*
X1120810D01*
Y678408D01*
X1120063D01*
Y679155D01*
X1119316D01*
Y679902D01*
X1118568D01*
Y680650D01*
Y681397D01*
X1117821D01*
Y682144D01*
X1117074D01*
Y683639D01*
X1116327D01*
Y684386D01*
X1115579D01*
Y685133D01*
X1116327D01*
Y685880D01*
X1117074D01*
Y687375D01*
X1117821D01*
Y688869D01*
X1118568D01*
Y689617D01*
X1120810D01*
Y690364D01*
X1122305D01*
Y691111D01*
X1125294D01*
Y691859D01*
X1126041D01*
Y690364D01*
D02*
G37*
G36*
X1120810Y676166D02*
X1119316D01*
Y676913D01*
X1120810D01*
Y676166D01*
D02*
G37*
G36*
X1135008Y675419D02*
X1134261D01*
Y676166D01*
X1135008D01*
Y675419D01*
D02*
G37*
G36*
X1118568Y676166D02*
X1119316D01*
Y675419D01*
X1118568D01*
Y676166D01*
X1117821D01*
Y676913D01*
X1118568D01*
Y676166D01*
D02*
G37*
G36*
X1134261Y674672D02*
X1133513D01*
Y675419D01*
X1134261D01*
Y674672D01*
D02*
G37*
G36*
X1117821Y675419D02*
Y674672D01*
X1117074D01*
Y676166D01*
X1117821D01*
Y675419D01*
D02*
G37*
G36*
X1129030Y671683D02*
X1128283D01*
Y673177D01*
Y673924D01*
Y674672D01*
X1129030D01*
Y671683D01*
D02*
G37*
G36*
X1122305Y670188D02*
X1121557D01*
Y670935D01*
X1122305D01*
Y670188D01*
D02*
G37*
G36*
X1129777D02*
Y669441D01*
X1129030D01*
Y670935D01*
X1129777D01*
Y670188D01*
D02*
G37*
G36*
X1118568Y667946D02*
X1117074D01*
Y668693D01*
X1118568D01*
Y667946D01*
D02*
G37*
G36*
X1111843Y663463D02*
X1111096D01*
Y664210D01*
X1111843D01*
Y663463D01*
D02*
G37*
G36*
X1128283Y660474D02*
X1127535D01*
Y661221D01*
X1128283D01*
Y660474D01*
D02*
G37*
G36*
X1122305Y658979D02*
X1121557D01*
Y659726D01*
X1122305D01*
Y658979D01*
D02*
G37*
G36*
X1123052Y655990D02*
X1121557D01*
Y656737D01*
X1123052D01*
Y655990D01*
D02*
G37*
%LPC*%
G36*
X1108854Y680650D02*
X1108107D01*
Y679155D01*
X1108854D01*
Y680650D01*
D02*
G37*
G36*
X1102129Y665704D02*
X1101382D01*
Y664957D01*
X1100634D01*
Y664210D01*
X1099887D01*
Y663463D01*
X1100634D01*
Y662716D01*
X1102129D01*
Y661968D01*
X1103623D01*
Y663463D01*
X1102876D01*
Y664957D01*
X1102129D01*
Y665704D01*
D02*
G37*
G36*
X1111843Y659726D02*
X1110349D01*
Y658232D01*
X1111843D01*
Y659726D01*
D02*
G37*
G36*
X1099140Y658979D02*
X1096898D01*
Y658232D01*
X1099140D01*
Y658979D01*
D02*
G37*
%LPD*%
D10*
X1632520Y985520D02*
G03*
X1632520Y985520I-1250J0D01*
G01*
X828410Y1356120D02*
G03*
X828410Y1356120I-1250J0D01*
G01*
X475330Y815353D02*
G03*
X475330Y815353I-1250J0D01*
G01*
X1116460Y1461770D02*
G03*
X1116460Y1461770I-1250J0D01*
G01*
X827460Y374423D02*
G03*
X827460Y374423I-1250J0D01*
G01*
X588380Y984223D02*
G03*
X588380Y984223I-1250J0D01*
G01*
X882720Y848253D02*
G03*
X882720Y848253I-1250J0D01*
G01*
X505940Y427963D02*
G03*
X505940Y427963I-1250J0D01*
G01*
X883990Y778403D02*
G03*
X883990Y778403I-1250J0D01*
G01*
D11*
X1466690Y490530D02*
G03*
X1452872Y468416I12242J-23024D01*
G01*
Y468844D02*
G03*
X1466690Y446730I26061J910D01*
G01*
X1305350Y561340D02*
G03*
X1305350Y561340I-29000J0D01*
G01*
X1312970Y831850D02*
G03*
X1312970Y831850I-29000J0D01*
G01*
X1276140Y1271270D02*
G03*
X1276140Y1271270I-29000J0D01*
G01*
X1448470Y762310D02*
G03*
X1434652Y740196I12242J-23024D01*
G01*
Y740624D02*
G03*
X1448470Y718510I26061J910D01*
G01*
X1431130Y1148390D02*
G03*
X1417312Y1126276I12242J-23024D01*
G01*
Y1126704D02*
G03*
X1431130Y1104590I26061J910D01*
G01*
X1488880Y445630D02*
Y491630D01*
X1363230Y534670D02*
X1428230D01*
X1363230Y585470D02*
X1428230D01*
X1321320Y1236980D02*
X1386320D01*
X1321320Y1287780D02*
X1386320D01*
X1256979Y1496386D02*
X1342188Y1441051D01*
X1302974Y1380667D02*
X1342188Y1441051D01*
X1347635Y1449438D01*
X1262426Y1504773D02*
X1347635Y1449438D01*
X1256979Y1496386D02*
X1262426Y1504773D01*
X1217765Y1436002D02*
X1256979Y1496386D01*
X1217765Y1436002D02*
X1302974Y1380667D01*
X1519660Y737840D02*
X1710660D01*
Y892840D01*
X1519660D02*
X1710660D01*
X1519660Y737840D02*
Y892840D01*
X1470660Y717410D02*
Y763410D01*
X1497080Y1074390D02*
X1688080D01*
Y1229390D01*
X1497080D02*
X1688080D01*
X1497080Y1074390D02*
Y1229390D01*
X1523750Y426690D02*
X1714750D01*
Y581690D01*
X1523750D02*
X1714750D01*
X1523750Y426690D02*
Y581690D01*
X1453320Y1103490D02*
Y1149490D01*
X1359420Y811530D02*
X1424420D01*
X1359420Y862330D02*
X1424420D01*
X1742990Y1082375D02*
Y1183975D01*
X1814990D01*
X1824990D01*
Y1082375D02*
Y1183975D01*
X1814990Y1082375D02*
X1824990D01*
X1742990D02*
X1814990D01*
Y1183975D01*
X1761130Y775970D02*
Y877570D01*
X1833130D01*
X1843130D01*
Y775970D02*
Y877570D01*
X1833130Y775970D02*
X1843130D01*
X1761130D02*
X1833130D01*
Y877570D01*
X1764940Y458470D02*
Y560070D01*
X1836940D01*
X1846940D01*
Y458470D02*
Y560070D01*
X1836940Y458470D02*
X1846940D01*
X1764940D02*
X1836940D01*
Y560070D01*
X872614Y129153D02*
X904400Y112252D01*
X924267Y124057D02*
X934948Y144144D01*
X927884Y147900D02*
X934948Y144144D01*
X871291Y152225D02*
X881971Y172312D01*
X889035Y168556D01*
D12*
X1477180Y426740D02*
G03*
X1477180Y426740I-1000J0D01*
G01*
X1345930Y572770D02*
G03*
X1345930Y572770I-1000J0D01*
G01*
X1277350Y523240D02*
G03*
X1277350Y523240I-1000J0D01*
G01*
X1284970Y793750D02*
G03*
X1284970Y793750I-1000J0D01*
G01*
X1304020Y1275080D02*
G03*
X1304020Y1275080I-1000J0D01*
G01*
X1248140Y1233170D02*
G03*
X1248140Y1233170I-1000J0D01*
G01*
X1458960Y698520D02*
G03*
X1458960Y698520I-1000J0D01*
G01*
X1441620Y1084600D02*
G03*
X1441620Y1084600I-1000J0D01*
G01*
X1342120Y849630D02*
G03*
X1342120Y849630I-1000J0D01*
G01*
X845230Y583533D02*
G03*
X845230Y583533I-1000J0D01*
G01*
X1581980Y980070D02*
X1595560D01*
X1581980D02*
Y1029070D01*
X1595560D01*
Y980070D02*
Y1029070D01*
X1536520Y1006917D02*
Y1031979D01*
X1514020Y1006917D02*
Y1031979D01*
X1379620Y758460D02*
Y760460D01*
X1366120Y758460D02*
Y760460D01*
X1344060Y901970D02*
Y903970D01*
X1330560Y901970D02*
Y903970D01*
X1307100Y1319130D02*
X1309100D01*
X1307100Y1332630D02*
X1309100D01*
X907870Y1333669D02*
Y1358731D01*
X885370Y1333669D02*
Y1358731D01*
X761130Y1349010D02*
Y1351010D01*
X747630Y1349010D02*
Y1351010D01*
X814470Y1366790D02*
Y1368790D01*
X800970Y1366790D02*
Y1368790D01*
X834410Y1361620D02*
X860410D01*
Y1335620D02*
Y1336120D01*
Y1361120D02*
Y1361620D01*
X834410Y1335620D02*
X860410D01*
X834410D02*
Y1336120D01*
Y1361120D02*
Y1361620D01*
X1399940Y480330D02*
Y482330D01*
X1386440Y480330D02*
Y482330D01*
X1407340Y984650D02*
X1409340D01*
X1407340Y971150D02*
X1409340D01*
X1415180Y1191530D02*
Y1193530D01*
X1401680Y1191530D02*
Y1193530D01*
X1086120Y1392790D02*
X1088120D01*
X1086120Y1406290D02*
X1088120D01*
X786080Y323143D02*
X788580D01*
X786080Y337143D02*
X788580D01*
X484580Y890253D02*
X665580D01*
Y575253D02*
Y578503D01*
Y823603D02*
Y890253D01*
X484580Y575253D02*
X665580D01*
X484580D02*
Y578503D01*
Y823603D02*
Y890253D01*
X1506040Y947589D02*
Y972651D01*
X1483540Y947589D02*
Y972651D01*
X1407430Y1029100D02*
X1409430D01*
X1407430Y1015600D02*
X1409430D01*
X1032510Y1449320D02*
X1108710D01*
X1032510Y1474220D02*
X1108710D01*
Y1449320D02*
Y1474220D01*
X1032510Y1449320D02*
Y1474220D01*
X1350880Y642890D02*
Y644890D01*
X1364380Y642890D02*
Y644890D01*
X854230Y478033D02*
X898230D01*
X854230Y581033D02*
X898230D01*
X789180Y438333D02*
X798180D01*
X789180Y468333D02*
X798180D01*
X800680Y453833D02*
Y456833D01*
X786680Y449833D02*
Y456833D01*
X631140Y344733D02*
X633640D01*
X631140Y358733D02*
X633640D01*
X918850Y303343D02*
Y318843D01*
X909600Y319593D02*
X921600D01*
X909600Y302593D02*
X921600D01*
X806960Y377773D02*
Y394273D01*
X815960Y377773D02*
Y394273D01*
X806960Y377773D02*
X815960D01*
X806960Y394273D02*
X815960D01*
X586130Y950223D02*
X592130D01*
X586130Y990223D02*
X592130D01*
Y950223D02*
Y990223D01*
X558130D02*
X564130D01*
X558130Y950223D02*
X564130D01*
X558130D02*
Y990223D01*
X991180Y306033D02*
Y308533D01*
X977180Y306033D02*
Y308533D01*
X573060Y460083D02*
X575060D01*
X573060Y446583D02*
X575060D01*
X889820Y843853D02*
X897970D01*
Y837253D02*
Y843853D01*
X889820Y814653D02*
X897970D01*
Y821253D01*
X822020Y805393D02*
Y807393D01*
X808520Y805393D02*
Y807393D01*
X503690Y393963D02*
X509690D01*
X503690Y433963D02*
X509690D01*
Y393963D02*
Y433963D01*
X475690D02*
X481690D01*
X475690Y393963D02*
X481690D01*
X475690D02*
Y433963D01*
X891090Y774003D02*
X899240D01*
Y767403D02*
Y774003D01*
X891090Y744803D02*
X899240D01*
Y751403D01*
X939330Y787613D02*
Y789613D01*
X952830Y787613D02*
Y789613D01*
D13*
X1514160Y876530D02*
G03*
X1514160Y876530I-1000J0D01*
G01*
X1491580Y1213080D02*
G03*
X1491580Y1213080I-1000J0D01*
G01*
X1518250Y565380D02*
G03*
X1518250Y565380I-1000J0D01*
G01*
X862230Y573533D02*
G03*
X862230Y573533I-2000J0D01*
G01*
X891161Y175999D02*
G03*
X891161Y175999I-1000J0D01*
G01*
D14*
X804180Y437833D02*
G03*
X804180Y437833I-500J0D01*
G01*
D15*
X907345Y380435D02*
X926395D01*
Y392169D02*
Y400197D01*
X907345Y411931D02*
X926395D01*
D16*
X1188712Y256540D02*
X1163320D01*
X1188712Y281932D01*
Y288280D01*
X1182364Y294628D01*
X1169668D01*
X1163320Y288280D01*
X1201408D02*
X1207756Y294628D01*
X1220452D01*
X1226799Y288280D01*
Y262888D01*
X1220452Y256540D01*
X1207756D01*
X1201408Y262888D01*
Y288280D01*
X1239495D02*
X1245843Y294628D01*
X1258539D01*
X1264887Y288280D01*
Y262888D01*
X1258539Y256540D01*
X1245843D01*
X1239495Y262888D01*
Y288280D01*
X1277583D02*
X1283931Y294628D01*
X1296627D01*
X1302975Y288280D01*
Y262888D01*
X1296627Y256540D01*
X1283931D01*
X1277583Y262888D01*
Y288280D01*
X1341062Y256540D02*
X1315671D01*
X1341062Y281932D01*
Y288280D01*
X1334715Y294628D01*
X1322019D01*
X1315671Y288280D01*
X1379150Y294628D02*
X1366454Y288280D01*
X1353758Y275584D01*
Y262888D01*
X1360106Y256540D01*
X1372802D01*
X1379150Y262888D01*
Y269236D01*
X1372802Y275584D01*
X1353758D01*
X1391846Y288280D02*
X1398194Y294628D01*
X1410890D01*
X1417238Y288280D01*
Y281932D01*
X1410890Y275584D01*
X1404542D01*
X1410890D01*
X1417238Y269236D01*
Y262888D01*
X1410890Y256540D01*
X1398194D01*
X1391846Y262888D01*
X1429934D02*
X1436282Y256540D01*
X1448978D01*
X1455326Y262888D01*
Y288280D01*
X1448978Y294628D01*
X1436282D01*
X1429934Y288280D01*
Y281932D01*
X1436282Y275584D01*
X1455326D01*
X675458Y1121556D02*
X666857Y1129880D01*
X649931Y1129602D01*
X641607Y1121001D01*
X641746Y1112538D01*
X650347Y1104214D01*
X667273Y1104492D01*
X675874Y1096167D01*
X676013Y1087705D01*
X667689Y1079103D01*
X650763Y1078826D01*
X642162Y1087150D01*
X718466Y1079936D02*
X701540Y1079658D01*
X692939Y1087982D01*
X692661Y1104908D01*
X700985Y1113509D01*
X717911Y1113787D01*
X726512Y1105463D01*
X726651Y1097000D01*
X692800Y1096445D01*
X743299Y1114203D02*
X743854Y1080352D01*
X743577Y1097277D01*
X751901Y1105879D01*
X760225Y1114480D01*
X768688Y1114619D01*
X811834Y1064536D02*
X820297Y1064675D01*
X828621Y1073276D01*
X827927Y1115590D01*
X802539Y1115174D01*
X794215Y1106572D01*
X794492Y1089647D01*
X803094Y1081323D01*
X828482Y1081739D01*
X845408Y1082017D02*
X862333Y1082294D01*
X853870Y1082155D01*
X853316Y1116006D01*
X844853Y1115868D01*
X896184Y1082849D02*
X913110Y1083126D01*
X921434Y1091728D01*
X921157Y1108653D01*
X912555Y1116977D01*
X895630Y1116700D01*
X887305Y1108099D01*
X887583Y1091173D01*
X896184Y1082849D01*
X988443Y1135152D02*
X1023126Y1084930D01*
X1022294Y1135707D02*
X989275Y1084375D01*
X1065440Y1085624D02*
X1048515Y1085346D01*
X1039913Y1093670D01*
X1039636Y1110596D01*
X1047960Y1119197D01*
X1064885Y1119475D01*
X1073487Y1111151D01*
X1073626Y1102688D01*
X1039774Y1102133D01*
X1091106Y1069114D02*
X1090274Y1119891D01*
X1115662Y1120307D01*
X1124264Y1111983D01*
X1124541Y1095058D01*
X1116217Y1086456D01*
X1090829Y1086040D01*
X746703Y243781D02*
Y231085D01*
X749242Y228545D01*
X754321D01*
X756860Y231085D01*
Y243781D01*
X772095Y241241D02*
X769556Y243781D01*
X764477D01*
X761938Y241241D01*
Y238702D01*
X764477Y236163D01*
X769556D01*
X772095Y233624D01*
Y231085D01*
X769556Y228545D01*
X764477D01*
X761938Y231085D01*
X777173Y243781D02*
Y228545D01*
X784791D01*
X787330Y231085D01*
Y233624D01*
X784791Y236163D01*
X777173D01*
X784791D01*
X787330Y238702D01*
Y241241D01*
X784791Y243781D01*
X777173D01*
X792408Y236163D02*
X802565D01*
X817800Y241241D02*
X815261Y243781D01*
X810183D01*
X807643Y241241D01*
Y231085D01*
X810183Y228545D01*
X815261D01*
X817800Y231085D01*
X822878Y228545D02*
X827957D01*
X825418D01*
Y243781D01*
X822878Y241241D01*
X1569724Y1065527D02*
Y1052832D01*
X1572263Y1050293D01*
X1577342D01*
X1579881Y1052832D01*
Y1065527D01*
X1584959Y1062988D02*
X1587498Y1065527D01*
X1592577D01*
X1595116Y1062988D01*
Y1060449D01*
X1592577Y1057910D01*
X1590038D01*
X1592577D01*
X1595116Y1055371D01*
Y1052832D01*
X1592577Y1050293D01*
X1587498D01*
X1584959Y1052832D01*
X847094Y1402077D02*
Y1389382D01*
X849633Y1386842D01*
X854712D01*
X857251Y1389382D01*
Y1402077D01*
X872486Y1386842D02*
X862329D01*
X872486Y1396999D01*
Y1399538D01*
X869947Y1402077D01*
X864868D01*
X862329Y1399538D01*
X896296Y442914D02*
Y430218D01*
X898835Y427679D01*
X903913D01*
X906453Y430218D01*
Y442914D01*
X911531Y427679D02*
X916609D01*
X914070D01*
Y442914D01*
X911531Y440375D01*
X487353Y461711D02*
X484813Y464250D01*
X479735D01*
X477196Y461711D01*
Y459172D01*
X479735Y456633D01*
X484813D01*
X487353Y454093D01*
Y451554D01*
X484813Y449015D01*
X479735D01*
X477196Y451554D01*
X502588Y449015D02*
X492431D01*
X502588Y459172D01*
Y461711D01*
X500049Y464250D01*
X494970D01*
X492431Y461711D01*
X569903Y1017971D02*
X567364Y1020510D01*
X562285D01*
X559746Y1017971D01*
Y1015432D01*
X562285Y1012893D01*
X567364D01*
X569903Y1010353D01*
Y1007814D01*
X567364Y1005275D01*
X562285D01*
X559746Y1007814D01*
X574981Y1005275D02*
X580059D01*
X577520D01*
Y1020510D01*
X574981Y1017971D01*
X1043954Y1362712D02*
Y1377947D01*
X1051571D01*
X1054110Y1375408D01*
Y1370329D01*
X1051571Y1367790D01*
X1043954D01*
X1049032D02*
X1054110Y1362712D01*
X1059189D02*
X1066806D01*
X1069345Y1365251D01*
X1066806Y1367790D01*
X1061728D01*
X1059189Y1370329D01*
X1061728Y1372868D01*
X1069345D01*
X1076963Y1375408D02*
Y1372868D01*
X1074424D01*
X1079502D01*
X1076963D01*
Y1365251D01*
X1079502Y1362712D01*
X1094737D02*
X1089659D01*
X1087120Y1365251D01*
Y1370329D01*
X1089659Y1372868D01*
X1094737D01*
X1097276Y1370329D01*
Y1367790D01*
X1087120D01*
X1102355Y1362712D02*
Y1372868D01*
X1104894D01*
X1107433Y1370329D01*
Y1362712D01*
Y1370329D01*
X1109972Y1372868D01*
X1112511Y1370329D01*
Y1362712D01*
X1117590Y1357633D02*
Y1372868D01*
X1125207D01*
X1127747Y1370329D01*
Y1365251D01*
X1125207Y1362712D01*
X1117590D01*
X1388117Y946152D02*
Y961387D01*
X1395734D01*
X1398273Y958848D01*
Y953770D01*
X1395734Y951231D01*
X1388117D01*
X1393195D02*
X1398273Y946152D01*
X1403352D02*
X1410969D01*
X1413508Y948692D01*
X1410969Y951231D01*
X1405891D01*
X1403352Y953770D01*
X1405891Y956309D01*
X1413508D01*
X1428743Y946152D02*
X1418587D01*
X1428743Y956309D01*
Y958848D01*
X1426204Y961387D01*
X1421126D01*
X1418587Y958848D01*
X1389126Y1043178D02*
Y1058413D01*
X1396743D01*
X1399283Y1055874D01*
Y1050796D01*
X1396743Y1048256D01*
X1389126D01*
X1394204D02*
X1399283Y1043178D01*
X1404361D02*
X1411979D01*
X1414518Y1045717D01*
X1411979Y1048256D01*
X1406900D01*
X1404361Y1050796D01*
X1406900Y1053335D01*
X1414518D01*
X1419596Y1043178D02*
X1424675D01*
X1422135D01*
Y1058413D01*
X1419596Y1055874D01*
X1289064Y477523D02*
Y492757D01*
X1296681D01*
X1299220Y490218D01*
Y485140D01*
X1296681Y482601D01*
X1289064D01*
X1294142D02*
X1299220Y477523D01*
X1306838D02*
X1311916D01*
X1314455Y480062D01*
Y485140D01*
X1311916Y487679D01*
X1306838D01*
X1304299Y485140D01*
Y480062D01*
X1306838Y477523D01*
X1329690Y487679D02*
X1322073D01*
X1319534Y485140D01*
Y480062D01*
X1322073Y477523D01*
X1329690D01*
X1337308Y490218D02*
Y487679D01*
X1334769D01*
X1339847D01*
X1337308D01*
Y480062D01*
X1339847Y477523D01*
X1350004D02*
X1355082D01*
X1357621Y480062D01*
Y485140D01*
X1355082Y487679D01*
X1350004D01*
X1347465Y485140D01*
Y480062D01*
X1350004Y477523D01*
X1362700Y490218D02*
X1365239Y492757D01*
X1370317D01*
X1372856Y490218D01*
Y487679D01*
X1370317Y485140D01*
X1367778D01*
X1370317D01*
X1372856Y482601D01*
Y480062D01*
X1370317Y477523D01*
X1365239D01*
X1362700Y480062D01*
X1317004Y786133D02*
Y801367D01*
X1324621D01*
X1327160Y798828D01*
Y793750D01*
X1324621Y791211D01*
X1317004D01*
X1322082D02*
X1327160Y786133D01*
X1334778D02*
X1339856D01*
X1342395Y788672D01*
Y793750D01*
X1339856Y796289D01*
X1334778D01*
X1332239Y793750D01*
Y788672D01*
X1334778Y786133D01*
X1357630Y796289D02*
X1350013D01*
X1347474Y793750D01*
Y788672D01*
X1350013Y786133D01*
X1357630D01*
X1365248Y798828D02*
Y796289D01*
X1362709D01*
X1367787D01*
X1365248D01*
Y788672D01*
X1367787Y786133D01*
X1377944D02*
X1383022D01*
X1385561Y788672D01*
Y793750D01*
X1383022Y796289D01*
X1377944D01*
X1375405Y793750D01*
Y788672D01*
X1377944Y786133D01*
X1400797D02*
X1390640D01*
X1400797Y796289D01*
Y798828D01*
X1398257Y801367D01*
X1393179D01*
X1390640Y798828D01*
X1311923Y1186182D02*
Y1201417D01*
X1319540D01*
X1322079Y1198878D01*
Y1193800D01*
X1319540Y1191261D01*
X1311923D01*
X1317001D02*
X1322079Y1186182D01*
X1329697D02*
X1334775D01*
X1337314Y1188722D01*
Y1193800D01*
X1334775Y1196339D01*
X1329697D01*
X1327158Y1193800D01*
Y1188722D01*
X1329697Y1186182D01*
X1352550Y1196339D02*
X1344932D01*
X1342393Y1193800D01*
Y1188722D01*
X1344932Y1186182D01*
X1352550D01*
X1360167Y1198878D02*
Y1196339D01*
X1357628D01*
X1362706D01*
X1360167D01*
Y1188722D01*
X1362706Y1186182D01*
X1372863D02*
X1377941D01*
X1380481Y1188722D01*
Y1193800D01*
X1377941Y1196339D01*
X1372863D01*
X1370324Y1193800D01*
Y1188722D01*
X1372863Y1186182D01*
X1385559D02*
X1390637D01*
X1388098D01*
Y1201417D01*
X1385559Y1198878D01*
X1728481Y444502D02*
Y459738D01*
X1736099D01*
X1738638Y457198D01*
Y452120D01*
X1736099Y449581D01*
X1728481D01*
X1733560D02*
X1738638Y444502D01*
X1753873Y459738D02*
X1743717D01*
Y444502D01*
X1753873D01*
X1743717Y452120D02*
X1748795D01*
X1758952Y459738D02*
Y444502D01*
X1769108D01*
X1784343Y459738D02*
X1774187D01*
Y444502D01*
X1784343D01*
X1774187Y452120D02*
X1779265D01*
X1789422Y457198D02*
X1791961Y459738D01*
X1797039D01*
X1799579Y457198D01*
Y454659D01*
X1797039Y452120D01*
X1794500D01*
X1797039D01*
X1799579Y449581D01*
Y447042D01*
X1797039Y444502D01*
X1791961D01*
X1789422Y447042D01*
X1635491Y908053D02*
Y923288D01*
X1643109D01*
X1645648Y920748D01*
Y915670D01*
X1643109Y913131D01*
X1635491D01*
X1640570D02*
X1645648Y908053D01*
X1660883Y923288D02*
X1650727D01*
Y908053D01*
X1660883D01*
X1650727Y915670D02*
X1655805D01*
X1665962Y923288D02*
Y908053D01*
X1676118D01*
X1691353Y923288D02*
X1681197D01*
Y908053D01*
X1691353D01*
X1681197Y915670D02*
X1686275D01*
X1706588Y908053D02*
X1696432D01*
X1706588Y918209D01*
Y920748D01*
X1704049Y923288D01*
X1698971D01*
X1696432Y920748D01*
X1588781Y1238252D02*
Y1253487D01*
X1596398D01*
X1598937Y1250948D01*
Y1245870D01*
X1596398Y1243331D01*
X1588781D01*
X1593859D02*
X1598937Y1238252D01*
X1614173Y1253487D02*
X1604016D01*
Y1238252D01*
X1614173D01*
X1604016Y1245870D02*
X1609094D01*
X1619251Y1253487D02*
Y1238252D01*
X1629408D01*
X1644643Y1253487D02*
X1634486D01*
Y1238252D01*
X1644643D01*
X1634486Y1245870D02*
X1639564D01*
X1649721Y1238252D02*
X1654799D01*
X1652260D01*
Y1253487D01*
X1649721Y1250948D01*
X1346962Y683511D02*
Y673354D01*
Y678432D01*
X1349501Y680972D01*
X1352040Y683511D01*
X1354579D01*
X1372354Y688589D02*
Y673354D01*
X1364736D01*
X1362197Y675893D01*
Y680972D01*
X1364736Y683511D01*
X1372354D01*
X1377432Y686050D02*
X1379971Y688589D01*
X1385050D01*
X1387589Y686050D01*
Y683511D01*
X1385050Y680972D01*
X1382511D01*
X1385050D01*
X1387589Y678432D01*
Y675893D01*
X1385050Y673354D01*
X1379971D01*
X1377432Y675893D01*
X1310647Y942339D02*
Y932182D01*
Y937261D01*
X1313186Y939800D01*
X1315725Y942339D01*
X1318264D01*
X1336038Y947418D02*
Y932182D01*
X1328421D01*
X1325882Y934722D01*
Y939800D01*
X1328421Y942339D01*
X1336038D01*
X1351273Y932182D02*
X1341117D01*
X1351273Y942339D01*
Y944878D01*
X1348734Y947418D01*
X1343656D01*
X1341117Y944878D01*
X1242066Y1330959D02*
Y1320802D01*
Y1325881D01*
X1244605Y1328420D01*
X1247144Y1330959D01*
X1249683D01*
X1267458Y1336037D02*
Y1320802D01*
X1259840D01*
X1257301Y1323342D01*
Y1328420D01*
X1259840Y1330959D01*
X1267458D01*
X1272536Y1320802D02*
X1277614D01*
X1275075D01*
Y1336037D01*
X1272536Y1333498D01*
X721363Y1366513D02*
X736598D01*
Y1358896D01*
X734058Y1356357D01*
X728980D01*
X726441Y1358896D01*
Y1366513D01*
Y1361435D02*
X721363Y1356357D01*
X734058Y1351278D02*
X736598Y1348739D01*
Y1343661D01*
X734058Y1341122D01*
X723902D01*
X721363Y1343661D01*
Y1348739D01*
X723902Y1351278D01*
X734058D01*
X723902Y1336043D02*
X721363Y1333504D01*
Y1328426D01*
X723902Y1325887D01*
X734058D01*
X736598Y1328426D01*
Y1333504D01*
X734058Y1336043D01*
X731519D01*
X728980Y1333504D01*
Y1325887D01*
X935412Y818077D02*
Y833312D01*
X943029D01*
X945569Y830773D01*
Y825695D01*
X943029Y823155D01*
X935412D01*
X940490D02*
X945569Y818077D01*
X950647Y833312D02*
X960804D01*
Y830773D01*
X950647Y820616D01*
Y818077D01*
X804602Y835857D02*
Y851092D01*
X812219D01*
X814759Y848553D01*
Y843475D01*
X812219Y840935D01*
X804602D01*
X809680D02*
X814759Y835857D01*
X829994Y851092D02*
X824915Y848553D01*
X819837Y843475D01*
Y838396D01*
X822376Y835857D01*
X827455D01*
X829994Y838396D01*
Y840935D01*
X827455Y843475D01*
X819837D01*
X554920Y474161D02*
Y489396D01*
X562537D01*
X565077Y486857D01*
Y481779D01*
X562537Y479239D01*
X554920D01*
X559998D02*
X565077Y474161D01*
X580312Y489396D02*
X570155D01*
Y481779D01*
X575233Y484318D01*
X577773D01*
X580312Y481779D01*
Y476700D01*
X577773Y474161D01*
X572694D01*
X570155Y476700D01*
X977830Y331921D02*
Y347156D01*
X985447D01*
X987987Y344617D01*
Y339539D01*
X985447Y336999D01*
X977830D01*
X982908D02*
X987987Y331921D01*
X1000683D02*
Y347156D01*
X993065Y339539D01*
X1003222D01*
X706054Y369515D02*
Y384751D01*
X713672D01*
X716211Y382211D01*
Y377133D01*
X713672Y374594D01*
X706054D01*
X711133D02*
X716211Y369515D01*
X721289Y382211D02*
X723828Y384751D01*
X728907D01*
X731446Y382211D01*
Y379672D01*
X728907Y377133D01*
X726367D01*
X728907D01*
X731446Y374594D01*
Y372055D01*
X728907Y369515D01*
X723828D01*
X721289Y372055D01*
X618420Y368497D02*
Y383732D01*
X626037D01*
X628577Y381193D01*
Y376115D01*
X626037Y373575D01*
X618420D01*
X623498D02*
X628577Y368497D01*
X643812D02*
X633655D01*
X643812Y378654D01*
Y381193D01*
X641273Y383732D01*
X636194D01*
X633655Y381193D01*
X773360Y346907D02*
Y362142D01*
X780977D01*
X783517Y359603D01*
Y354525D01*
X780977Y351985D01*
X773360D01*
X778438D02*
X783517Y346907D01*
X788595D02*
X793673D01*
X791134D01*
Y362142D01*
X788595Y359603D01*
X781057Y1395733D02*
Y1410968D01*
X788674D01*
X791213Y1408428D01*
Y1403350D01*
X788674Y1400811D01*
X781057D01*
X786135D02*
X791213Y1395733D01*
X796292Y1408428D02*
X798831Y1410968D01*
X803909D01*
X806448Y1408428D01*
Y1398272D01*
X803909Y1395733D01*
X798831D01*
X796292Y1398272D01*
Y1408428D01*
X811527D02*
X814066Y1410968D01*
X819144D01*
X821683Y1408428D01*
Y1398272D01*
X819144Y1395733D01*
X814066D01*
X811527Y1398272D01*
Y1408428D01*
X1455423Y510542D02*
Y520698D01*
X1452884Y523237D01*
X1447806D01*
X1445267Y520698D01*
Y510542D01*
X1447806Y508003D01*
X1452884D01*
X1450345Y513081D02*
X1455423Y508003D01*
X1452884D02*
X1455423Y510542D01*
X1460502Y520698D02*
X1463041Y523237D01*
X1468119D01*
X1470658Y520698D01*
Y510542D01*
X1468119Y508003D01*
X1463041D01*
X1460502Y510542D01*
Y520698D01*
X1475737D02*
X1478276Y523237D01*
X1483354D01*
X1485893Y520698D01*
Y518159D01*
X1483354Y515620D01*
X1485893Y513081D01*
Y510542D01*
X1483354Y508003D01*
X1478276D01*
X1475737Y510542D01*
Y513081D01*
X1478276Y515620D01*
X1475737Y518159D01*
Y520698D01*
X1478276Y515620D02*
X1483354D01*
X1493518Y722633D02*
X1483362D01*
X1480822Y720094D01*
Y715016D01*
X1483362Y712477D01*
X1493518D01*
X1496057Y715016D01*
Y720094D01*
X1490979Y717555D02*
X1496057Y722633D01*
Y720094D02*
X1493518Y722633D01*
X1483362Y727712D02*
X1480822Y730251D01*
Y735329D01*
X1483362Y737868D01*
X1493518D01*
X1496057Y735329D01*
Y730251D01*
X1493518Y727712D01*
X1483362D01*
X1480822Y753103D02*
X1483362Y748025D01*
X1488440Y742947D01*
X1493518D01*
X1496057Y745486D01*
Y750564D01*
X1493518Y753103D01*
X1490979D01*
X1488440Y750564D01*
Y742947D01*
X1376678Y1118873D02*
X1366522D01*
X1363982Y1116334D01*
Y1111256D01*
X1366522Y1108717D01*
X1376678D01*
X1379218Y1111256D01*
Y1116334D01*
X1374139Y1113795D02*
X1379218Y1118873D01*
Y1116334D02*
X1376678Y1118873D01*
X1366522Y1123952D02*
X1363982Y1126491D01*
Y1131569D01*
X1366522Y1134108D01*
X1376678D01*
X1379218Y1131569D01*
Y1126491D01*
X1376678Y1123952D01*
X1366522D01*
X1379218Y1146804D02*
X1363982D01*
X1371600Y1139187D01*
Y1149343D01*
X889689Y791152D02*
Y801309D01*
X887150Y803848D01*
X882071D01*
X879532Y801309D01*
Y791152D01*
X882071Y788613D01*
X887150D01*
X884610Y793691D02*
X889689Y788613D01*
X887150D02*
X889689Y791152D01*
X904924Y788613D02*
X894767D01*
X904924Y798770D01*
Y801309D01*
X902385Y803848D01*
X897306D01*
X894767Y801309D01*
X888419Y861002D02*
Y871159D01*
X885880Y873698D01*
X880801D01*
X878262Y871159D01*
Y861002D01*
X880801Y858463D01*
X885880D01*
X883340Y863541D02*
X888419Y858463D01*
X885880D02*
X888419Y861002D01*
X893497Y858463D02*
X898575D01*
X896036D01*
Y873698D01*
X893497Y871159D01*
X1764792Y570484D02*
Y585719D01*
X1772410D01*
X1774949Y583180D01*
Y578102D01*
X1772410Y575562D01*
X1764792D01*
X1780027Y585719D02*
Y570484D01*
Y578102D01*
X1790184D01*
Y585719D01*
Y570484D01*
X1805419Y585719D02*
X1795262D01*
Y578102D01*
X1800341Y580641D01*
X1802880D01*
X1805419Y578102D01*
Y573023D01*
X1802880Y570484D01*
X1797801D01*
X1795262Y573023D01*
X1033780Y1483106D02*
Y1498341D01*
X1041397D01*
X1043937Y1495802D01*
Y1490724D01*
X1041397Y1488184D01*
X1033780D01*
X1049015Y1498341D02*
Y1483106D01*
Y1490724D01*
X1059172D01*
Y1498341D01*
Y1483106D01*
X1071868D02*
Y1498341D01*
X1064250Y1490724D01*
X1074407D01*
X1760982Y887984D02*
Y903219D01*
X1768600D01*
X1771139Y900680D01*
Y895602D01*
X1768600Y893062D01*
X1760982D01*
X1776217Y903219D02*
Y887984D01*
Y895602D01*
X1786374D01*
Y903219D01*
Y887984D01*
X1791452Y900680D02*
X1793991Y903219D01*
X1799070D01*
X1801609Y900680D01*
Y898141D01*
X1799070Y895602D01*
X1796530D01*
X1799070D01*
X1801609Y893062D01*
Y890523D01*
X1799070Y887984D01*
X1793991D01*
X1791452Y890523D01*
X1742694Y1194308D02*
Y1209543D01*
X1750311D01*
X1752851Y1207004D01*
Y1201926D01*
X1750311Y1199386D01*
X1742694D01*
X1757929Y1209543D02*
Y1194308D01*
Y1201926D01*
X1768086D01*
Y1209543D01*
Y1194308D01*
X1783321D02*
X1773164D01*
X1783321Y1204465D01*
Y1207004D01*
X1780782Y1209543D01*
X1775703D01*
X1773164Y1207004D01*
X1229358Y1474476D02*
X1214122D01*
Y1482093D01*
X1216662Y1484633D01*
X1221740D01*
X1224279Y1482093D01*
Y1474476D01*
X1214122Y1489711D02*
X1229358D01*
X1221740D01*
Y1499868D01*
X1214122D01*
X1229358D01*
Y1504946D02*
Y1510024D01*
Y1507485D01*
X1214122D01*
X1216662Y1504946D01*
X1355099Y614678D02*
X1350021D01*
X1347482Y612138D01*
Y601982D01*
X1350021Y599442D01*
X1355099D01*
X1357638Y601982D01*
Y612138D01*
X1355099Y614678D01*
X1372873Y612138D02*
X1370334Y614678D01*
X1365256D01*
X1362717Y612138D01*
Y601982D01*
X1365256Y599442D01*
X1370334D01*
X1372873Y601982D01*
X1377952Y614678D02*
X1388108D01*
X1383030D01*
Y599442D01*
X1400804Y614678D02*
X1395726D01*
X1393187Y612138D01*
Y601982D01*
X1395726Y599442D01*
X1400804D01*
X1403343Y601982D01*
Y612138D01*
X1400804Y614678D01*
X1408422Y612138D02*
X1410961Y614678D01*
X1416039D01*
X1418578Y612138D01*
Y609599D01*
X1416039Y607060D01*
X1413500D01*
X1416039D01*
X1418578Y604521D01*
Y601982D01*
X1416039Y599442D01*
X1410961D01*
X1408422Y601982D01*
X1365259Y888997D02*
X1360181D01*
X1357641Y886458D01*
Y876302D01*
X1360181Y873763D01*
X1365259D01*
X1367798Y876302D01*
Y886458D01*
X1365259Y888997D01*
X1383033Y886458D02*
X1380494Y888997D01*
X1375416D01*
X1372877Y886458D01*
Y876302D01*
X1375416Y873763D01*
X1380494D01*
X1383033Y876302D01*
X1388112Y888997D02*
X1398268D01*
X1393190D01*
Y873763D01*
X1410964Y888997D02*
X1405886D01*
X1403347Y886458D01*
Y876302D01*
X1405886Y873763D01*
X1410964D01*
X1413503Y876302D01*
Y886458D01*
X1410964Y888997D01*
X1428739Y873763D02*
X1418582D01*
X1428739Y883919D01*
Y886458D01*
X1426199Y888997D01*
X1421121D01*
X1418582Y886458D01*
X1325888Y1311908D02*
X1320810D01*
X1318271Y1309368D01*
Y1299212D01*
X1320810Y1296673D01*
X1325888D01*
X1328427Y1299212D01*
Y1309368D01*
X1325888Y1311908D01*
X1343663Y1309368D02*
X1341123Y1311908D01*
X1336045D01*
X1333506Y1309368D01*
Y1299212D01*
X1336045Y1296673D01*
X1341123D01*
X1343663Y1299212D01*
X1348741Y1311908D02*
X1358898D01*
X1353819D01*
Y1296673D01*
X1371593Y1311908D02*
X1366515D01*
X1363976Y1309368D01*
Y1299212D01*
X1366515Y1296673D01*
X1371593D01*
X1374133Y1299212D01*
Y1309368D01*
X1371593Y1311908D01*
X1379211Y1296673D02*
X1384289D01*
X1381750D01*
Y1311908D01*
X1379211Y1309368D01*
X474148Y899865D02*
Y915100D01*
X479226Y910022D01*
X484305Y915100D01*
Y899865D01*
X489383Y915100D02*
Y899865D01*
X497001D01*
X499540Y902404D01*
Y912561D01*
X497001Y915100D01*
X489383D01*
X504618Y899865D02*
X509697D01*
X507157D01*
Y915100D01*
X504618Y912561D01*
X866645Y210561D02*
X861566D01*
X864106D01*
Y197865D01*
X861566Y195326D01*
X859027D01*
X856488Y197865D01*
X871723Y208022D02*
X874262Y210561D01*
X879341D01*
X881880Y208022D01*
Y205483D01*
X879341Y202943D01*
X876801D01*
X879341D01*
X881880Y200404D01*
Y197865D01*
X879341Y195326D01*
X874262D01*
X871723Y197865D01*
X750497Y995618D02*
X745418D01*
X747958D01*
Y982922D01*
X745418Y980383D01*
X742879D01*
X740340Y982922D01*
X765732Y980383D02*
X755575D01*
X765732Y990540D01*
Y993079D01*
X763193Y995618D01*
X758114D01*
X755575Y993079D01*
X410137Y976568D02*
X405058D01*
X407598D01*
Y963872D01*
X405058Y961333D01*
X402519D01*
X399980Y963872D01*
X415215Y961333D02*
X420293D01*
X417754D01*
Y976568D01*
X415215Y974029D01*
X1238264Y619757D02*
Y604523D01*
X1245881D01*
X1248420Y607062D01*
Y617218D01*
X1245881Y619757D01*
X1238264D01*
X1256038Y604523D02*
X1261116D01*
X1263655Y607062D01*
Y612140D01*
X1261116Y614679D01*
X1256038D01*
X1253499Y612140D01*
Y607062D01*
X1256038Y604523D01*
X1278890Y614679D02*
X1271273D01*
X1268734Y612140D01*
Y607062D01*
X1271273Y604523D01*
X1278890D01*
X1286508Y617218D02*
Y614679D01*
X1283969D01*
X1289047D01*
X1286508D01*
Y607062D01*
X1289047Y604523D01*
X1299204D02*
X1304282D01*
X1306821Y607062D01*
Y612140D01*
X1304282Y614679D01*
X1299204D01*
X1296665Y612140D01*
Y607062D01*
X1299204Y604523D01*
X1311900Y617218D02*
X1314439Y619757D01*
X1319517D01*
X1322056Y617218D01*
Y614679D01*
X1319517Y612140D01*
X1316978D01*
X1319517D01*
X1322056Y609601D01*
Y607062D01*
X1319517Y604523D01*
X1314439D01*
X1311900Y607062D01*
X1134123Y1273808D02*
Y1258572D01*
X1141740D01*
X1144279Y1261112D01*
Y1271268D01*
X1141740Y1273808D01*
X1134123D01*
X1151897Y1258572D02*
X1156975D01*
X1159514Y1261112D01*
Y1266190D01*
X1156975Y1268729D01*
X1151897D01*
X1149358Y1266190D01*
Y1261112D01*
X1151897Y1258572D01*
X1174750Y1268729D02*
X1167132D01*
X1164593Y1266190D01*
Y1261112D01*
X1167132Y1258572D01*
X1174750D01*
X1182367Y1271268D02*
Y1268729D01*
X1179828D01*
X1184906D01*
X1182367D01*
Y1261112D01*
X1184906Y1258572D01*
X1195063D02*
X1200141D01*
X1202681Y1261112D01*
Y1266190D01*
X1200141Y1268729D01*
X1195063D01*
X1192524Y1266190D01*
Y1261112D01*
X1195063Y1258572D01*
X1207759D02*
X1212837D01*
X1210298D01*
Y1273808D01*
X1207759Y1271268D01*
X1216671Y885188D02*
Y869952D01*
X1224289D01*
X1226828Y872492D01*
Y882648D01*
X1224289Y885188D01*
X1216671D01*
X1234445Y869952D02*
X1239524D01*
X1242063Y872492D01*
Y877570D01*
X1239524Y880109D01*
X1234445D01*
X1231906Y877570D01*
Y872492D01*
X1234445Y869952D01*
X1257298Y880109D02*
X1249680D01*
X1247141Y877570D01*
Y872492D01*
X1249680Y869952D01*
X1257298D01*
X1264915Y882648D02*
Y880109D01*
X1262376D01*
X1267455D01*
X1264915D01*
Y872492D01*
X1267455Y869952D01*
X1285229D02*
X1275072D01*
X1285229Y880109D01*
Y882648D01*
X1282690Y885188D01*
X1277611D01*
X1275072Y882648D01*
X791648Y418276D02*
Y403041D01*
X799266D01*
X801805Y405580D01*
Y415737D01*
X799266Y418276D01*
X791648D01*
X806883Y415737D02*
X809422Y418276D01*
X814501D01*
X817040Y415737D01*
Y413198D01*
X814501Y410659D01*
X811961D01*
X814501D01*
X817040Y408119D01*
Y405580D01*
X814501Y403041D01*
X809422D01*
X806883Y405580D01*
X891216Y344362D02*
Y329127D01*
X898833D01*
X901373Y331666D01*
Y341823D01*
X898833Y344362D01*
X891216D01*
X916608Y329127D02*
X906451D01*
X916608Y339284D01*
Y341823D01*
X914069Y344362D01*
X908990D01*
X906451Y341823D01*
X781488Y492444D02*
Y477209D01*
X789106D01*
X791645Y479748D01*
Y489905D01*
X789106Y492444D01*
X781488D01*
X796723Y477209D02*
X801801D01*
X799262D01*
Y492444D01*
X796723Y489905D01*
X1468125Y1056638D02*
X1465586Y1059177D01*
X1460508D01*
X1457969Y1056638D01*
Y1046482D01*
X1460508Y1043942D01*
X1465586D01*
X1468125Y1046482D01*
X1473204Y1056638D02*
X1475743Y1059177D01*
X1480821D01*
X1483360Y1056638D01*
Y1046482D01*
X1480821Y1043942D01*
X1475743D01*
X1473204Y1046482D01*
Y1056638D01*
X1488439Y1043942D02*
X1493517D01*
X1490978D01*
Y1059177D01*
X1488439Y1056638D01*
X1511291Y1043942D02*
X1501135D01*
X1511291Y1054099D01*
Y1056638D01*
X1508752Y1059177D01*
X1503674D01*
X1501135Y1056638D01*
X1495295Y994914D02*
X1492755Y997453D01*
X1487677D01*
X1485138Y994914D01*
Y984757D01*
X1487677Y982218D01*
X1492755D01*
X1495295Y984757D01*
X1500373Y982218D02*
X1505451D01*
X1502912D01*
Y997453D01*
X1500373Y994914D01*
X1513069Y982218D02*
X1518147D01*
X1515608D01*
Y997453D01*
X1513069Y994914D01*
X1023039Y348173D02*
X1020499Y350712D01*
X1015421D01*
X1012882Y348173D01*
Y338016D01*
X1015421Y335477D01*
X1020499D01*
X1023039Y338016D01*
X1028117Y335477D02*
X1033195D01*
X1030656D01*
Y350712D01*
X1028117Y348173D01*
X1040813D02*
X1043352Y350712D01*
X1048430D01*
X1050970Y348173D01*
Y338016D01*
X1048430Y335477D01*
X1043352D01*
X1040813Y338016D01*
Y348173D01*
X579809Y438343D02*
X577270Y440882D01*
X572191D01*
X569652Y438343D01*
Y428186D01*
X572191Y425647D01*
X577270D01*
X579809Y428186D01*
X584887D02*
X587426Y425647D01*
X592505D01*
X595044Y428186D01*
Y438343D01*
X592505Y440882D01*
X587426D01*
X584887Y438343D01*
Y435804D01*
X587426Y433265D01*
X595044D01*
X899163Y1323338D02*
X896624Y1325878D01*
X891546D01*
X889007Y1323338D01*
Y1313182D01*
X891546Y1310643D01*
X896624D01*
X899163Y1313182D01*
X904242Y1323338D02*
X906781Y1325878D01*
X911859D01*
X914398Y1323338D01*
Y1313182D01*
X911859Y1310643D01*
X906781D01*
X904242Y1313182D01*
Y1323338D01*
X919477D02*
X922016Y1325878D01*
X927094D01*
X929633Y1323338D01*
Y1320799D01*
X927094Y1318260D01*
X929633Y1315721D01*
Y1313182D01*
X927094Y1310643D01*
X922016D01*
X919477Y1313182D01*
Y1315721D01*
X922016Y1318260D01*
X919477Y1320799D01*
Y1323338D01*
X922016Y1318260D02*
X927094D01*
X1024309Y437073D02*
X1021769Y439612D01*
X1016691D01*
X1014152Y437073D01*
Y426916D01*
X1016691Y424377D01*
X1021769D01*
X1024309Y426916D01*
X1029387Y439612D02*
X1039544D01*
Y437073D01*
X1029387Y426916D01*
Y424377D01*
X981129Y435803D02*
X978589Y438342D01*
X973511D01*
X970972Y435803D01*
Y425646D01*
X973511Y423107D01*
X978589D01*
X981129Y425646D01*
X996364Y438342D02*
X991285Y435803D01*
X986207Y430725D01*
Y425646D01*
X988746Y423107D01*
X993825D01*
X996364Y425646D01*
Y428185D01*
X993825Y430725D01*
X986207D01*
X855399Y419293D02*
X852859Y421832D01*
X847781D01*
X845242Y419293D01*
Y409136D01*
X847781Y406597D01*
X852859D01*
X855399Y409136D01*
X870634Y421832D02*
X860477D01*
Y414215D01*
X865555Y416754D01*
X868095D01*
X870634Y414215D01*
Y409136D01*
X868095Y406597D01*
X863016D01*
X860477Y409136D01*
X619433Y980887D02*
X616894Y983426D01*
X611815D01*
X609276Y980887D01*
Y970730D01*
X611815Y968191D01*
X616894D01*
X619433Y970730D01*
X632129Y968191D02*
Y983426D01*
X624511Y975809D01*
X634668D01*
X751259Y475681D02*
X748719Y478220D01*
X743641D01*
X741102Y475681D01*
Y465524D01*
X743641Y462985D01*
X748719D01*
X751259Y465524D01*
X756337Y475681D02*
X758876Y478220D01*
X763955D01*
X766494Y475681D01*
Y473142D01*
X763955Y470603D01*
X761415D01*
X763955D01*
X766494Y468063D01*
Y465524D01*
X763955Y462985D01*
X758876D01*
X756337Y465524D01*
X870385Y710377D02*
X867846Y712916D01*
X862767D01*
X860228Y710377D01*
Y700220D01*
X862767Y697681D01*
X867846D01*
X870385Y700220D01*
X885620Y697681D02*
X875463D01*
X885620Y707838D01*
Y710377D01*
X883081Y712916D01*
X878002D01*
X875463Y710377D01*
X450015Y966917D02*
X447476Y969456D01*
X442397D01*
X439858Y966917D01*
Y956760D01*
X442397Y954221D01*
X447476D01*
X450015Y956760D01*
X455093Y954221D02*
X460171D01*
X457632D01*
Y969456D01*
X455093Y966917D01*
X834828Y605729D02*
X844985Y595572D01*
X834828D02*
X844985Y605729D01*
X834828Y600651D02*
X844985D01*
X839906Y595572D02*
Y605729D01*
X850063Y593033D02*
X855141D01*
X852602D01*
Y608268D01*
X850063Y605729D01*
D17*
X897249Y419311D02*
X905712Y410847D01*
X897249D02*
X905712Y419311D01*
X897249Y415079D02*
X905712D01*
X901480Y410847D02*
Y419311D01*
M02*
