M48
;Layer_Color=9474304
;FILE_FORMAT=4:4
METRIC,LZ
;TYPE=PLATED
T01F00S00C0.3000
T03F00S00C0.6500
T04F00S00C0.7112
T05F00S00C0.7900
T06F00S00C0.8500
T07F00S00C0.8700
T08F00S00C1.0200
T09F00S00C1.1000
T10F00S00C1.2900
T11F00S00C1.3200
T12F00S00C2.9972
;TYPE=NON_PLATED
T13F00S00C0.8000
%
T01
X0069469Y0028829
X0070351Y00328873
X007124Y00321253
X0072002Y00317443
X0074288Y00322523
X0075812Y00306013
X0075558Y00344113
X0078225Y00369513
X0073406Y0025781
X0088004Y00379673
X010033Y0036957
X01064223Y00351305
X0111252Y0034798
X0096901Y002159
X0095504Y002032
X0142875Y0078486
X0108966Y006858
X0105156Y0067056
X0100203Y0070866
X0090163Y00727653
X0080511Y00751783
X0079749Y00773373
X0088138Y0057277
X0094608Y00557473
X0093592Y00530803
X00941Y00507943
X0098164Y00521913
X008255Y0048895
X0081781Y00454603
X0088004Y00405073
X0077209Y00402533
X0076447Y00457143
X0051555Y00478733
X004711Y00528263
X0041021Y0043053
X0037973Y0042672
X0036322Y0067183
X0037973Y0070358
X0037465Y0071628
X0038989Y0073914
X0037846Y0075438
X0039116Y0083312
X0047625Y0099314
X007874Y0096393
X0078232Y0086868
X007874Y0084963
X0077209Y00820363
X008509Y0087503
X0093091Y0086106
X0094869Y0092329
X0094488Y0095123
X0094361Y0098044
X0089408Y0097917
X0085725Y0104013
X0080264Y009271
X0102743Y0099949
X0105918Y0110871
X0092837Y0114681
X0090551Y0118491
X0100584Y0081915
X0147193Y0092837
X010922Y0131953
X0100838Y0130175
X0094234Y0134112
X0087376Y0136652
X0078486Y0134874
T03
X00682617Y00301113
X00732673Y00272213
T04
X0070224Y00687013
T05
X0147618Y0044323
Y0046863
Y0049403
X0145796Y0071501
Y0074041
Y0076581
X0144062Y0110109
Y0112649
Y0115189
T06
X0135763Y0054737
Y0057277
X0143383
Y0054737
X0143002Y0082423
Y0084963
X0135382
Y0082423
X0139192Y0124968
Y0127508
X0131572
Y0124968
T07
X0127635Y0054864
Y0057404
X0128397Y0081915
Y0084455
X0124714Y0125857
Y0128397
T08
X0041014Y00483813
Y00509213
Y00534613
Y00560013
Y00585413
Y00610813
Y00636213
Y00661613
Y00687013
Y00712413
Y00737813
Y00763213
Y00788613
X007505Y00782263
Y00756863
Y00731463
Y00706063
Y00680663
Y00655263
Y00629863
Y00604463
Y00579063
Y00553663
Y00528263
Y00502863
Y00807663
Y00833063
Y00858463
Y00883863
Y00909263
Y00934663
Y00960063
X0041014Y00941013
Y00915613
Y00890213
Y00864813
Y00839413
Y00814013
X0104521Y0146177
X0107061
X0109601
T09
X0180594Y0048387
Y0053467
X0180213Y0080137
Y0085217
X0178399Y01107775
Y01158575
X01304002Y01428886
X01261398Y01456554
T10
X0153825Y0050419
X0153416Y0081534
X0151158Y0115189
T11
X0168025Y0044419
Y0056419
X0167616Y0075534
X0155416
X0155825Y0056419
Y0044419
X0155416Y0087534
X0153158Y0109189
X0165358
X0167616Y0087534
X0165358Y0121189
X0153158
T12
X0114808Y0016129
X016383Y0066167
X0068453Y0121539
T13
X0048369Y00413963
X0050169
X0056613Y00970223
X0058413
M30
