G04*
G04 #@! TF.GenerationSoftware,Altium Limited,Altium Designer,25.5.2 (35)*
G04*
G04 Layer_Color=8421504*
%FSLAX44Y44*%
%MOMM*%
G71*
G04*
G04 #@! TF.SameCoordinates,1C876D45-0CCD-4BF8-8A60-7BCD78DFC47F*
G04*
G04*
G04 #@! TF.FilePolarity,Positive*
G04*
G01*
G75*
G04:AMPARAMS|DCode=18|XSize=1mm|YSize=1.8mm|CornerRadius=0.5mm|HoleSize=0mm|Usage=FLASHONLY|Rotation=330.000|XOffset=0mm|YOffset=0mm|HoleType=Round|Shape=RoundedRectangle|*
%AMROUNDEDRECTD18*
21,1,1.0000,0.8000,0,0,330.0*
21,1,0.0000,1.8000,0,0,330.0*
1,1,1.0000,-0.2000,-0.3464*
1,1,1.0000,-0.2000,-0.3464*
1,1,1.0000,0.2000,0.3464*
1,1,1.0000,0.2000,0.3464*
%
%ADD18ROUNDEDRECTD18*%
G04:AMPARAMS|DCode=19|XSize=1mm|YSize=2.1mm|CornerRadius=0.5mm|HoleSize=0mm|Usage=FLASHONLY|Rotation=330.000|XOffset=0mm|YOffset=0mm|HoleType=Round|Shape=RoundedRectangle|*
%AMROUNDEDRECTD19*
21,1,1.0000,1.1000,0,0,330.0*
21,1,0.0000,2.1000,0,0,330.0*
1,1,1.0000,-0.2750,-0.4763*
1,1,1.0000,-0.2750,-0.4763*
1,1,1.0000,0.2750,0.4763*
1,1,1.0000,0.2750,0.4763*
%
%ADD19ROUNDEDRECTD19*%
%ADD20R,0.9000X1.6000*%
%ADD21R,0.5500X0.2500*%
%ADD22R,2.4741X0.6221*%
G04:AMPARAMS|DCode=23|XSize=2.4741mm|YSize=0.6221mm|CornerRadius=0.3111mm|HoleSize=0mm|Usage=FLASHONLY|Rotation=180.000|XOffset=0mm|YOffset=0mm|HoleType=Round|Shape=RoundedRectangle|*
%AMROUNDEDRECTD23*
21,1,2.4741,0.0000,0,0,180.0*
21,1,1.8519,0.6221,0,0,180.0*
1,1,0.6221,-0.9260,0.0000*
1,1,0.6221,0.9260,0.0000*
1,1,0.6221,0.9260,0.0000*
1,1,0.6221,-0.9260,0.0000*
%
%ADD23ROUNDEDRECTD23*%
%ADD24R,1.3562X1.0546*%
G04:AMPARAMS|DCode=25|XSize=0.3mm|YSize=1.15mm|CornerRadius=0mm|HoleSize=0mm|Usage=FLASHONLY|Rotation=330.000|XOffset=0mm|YOffset=0mm|HoleType=Round|Shape=Rectangle|*
%AMROTATEDRECTD25*
4,1,4,-0.4174,-0.4230,0.1576,0.5730,0.4174,0.4230,-0.1576,-0.5730,-0.4174,-0.4230,0.0*
%
%ADD25ROTATEDRECTD25*%

%ADD26R,1.5500X1.2500*%
%ADD27R,1.2500X1.5500*%
%ADD28R,0.9500X1.4500*%
%ADD29R,1.5500X1.5500*%
%ADD30R,1.8000X0.6400*%
%ADD31R,1.5500X1.5000*%
%ADD32R,0.7000X1.0000*%
%ADD33R,1.1303X0.4318*%
%ADD34R,1.5500X1.5500*%
%ADD35R,1.3500X1.0000*%
G04:AMPARAMS|DCode=36|XSize=1.2mm|YSize=1.8mm|CornerRadius=0mm|HoleSize=0mm|Usage=FLASHONLY|Rotation=152.000|XOffset=0mm|YOffset=0mm|HoleType=Round|Shape=Rectangle|*
%AMROTATEDRECTD36*
4,1,4,0.9523,0.5130,0.1072,-1.0763,-0.9523,-0.5130,-0.1072,1.0763,0.9523,0.5130,0.0*
%
%ADD36ROTATEDRECTD36*%

G04:AMPARAMS|DCode=37|XSize=0.6mm|YSize=1.55mm|CornerRadius=0mm|HoleSize=0mm|Usage=FLASHONLY|Rotation=332.000|XOffset=0mm|YOffset=0mm|HoleType=Round|Shape=Rectangle|*
%AMROTATEDRECTD37*
4,1,4,-0.6287,-0.5434,0.0990,0.8251,0.6287,0.5434,-0.0990,-0.8251,-0.6287,-0.5434,0.0*
%
%ADD37ROTATEDRECTD37*%

%ADD38R,1.5000X0.9500*%
%ADD39R,1.5000X1.5500*%
%ADD40R,2.0000X0.9000*%
%ADD41R,5.0000X5.0000*%
%ADD42R,1.5500X1.4000*%
%ADD43R,1.2500X1.2200*%
%ADD44R,0.7000X0.6000*%
%ADD45R,0.9000X0.8000*%
%ADD46R,1.5000X1.5000*%
D18*
X726681Y233274D02*
D03*
X651764Y276234D02*
D03*
D19*
X747636Y269569D02*
D03*
X672846Y312749D02*
D03*
D20*
X847410Y1348620D02*
D03*
D21*
X834660Y1356120D02*
D03*
Y1351120D02*
D03*
Y1346120D02*
D03*
Y1341120D02*
D03*
X860160D02*
D03*
Y1346120D02*
D03*
Y1351120D02*
D03*
Y1356120D02*
D03*
D22*
X1612931Y985520D02*
D03*
D23*
Y998220D02*
D03*
Y1010920D02*
D03*
Y1023620D02*
D03*
X1564609Y1010920D02*
D03*
Y998220D02*
D03*
Y1023620D02*
D03*
Y985520D02*
D03*
D24*
X1525270Y1012190D02*
D03*
Y1026706D02*
D03*
X896620Y1338942D02*
D03*
Y1353458D02*
D03*
X1494790Y967378D02*
D03*
Y952862D02*
D03*
D25*
X732456Y284636D02*
D03*
X728125Y287136D02*
D03*
X723795Y289636D02*
D03*
X719465Y292136D02*
D03*
X715135Y294636D02*
D03*
X710805Y297136D02*
D03*
X706475Y299636D02*
D03*
X702145Y302136D02*
D03*
X697815Y304636D02*
D03*
X690886Y308636D02*
D03*
X693484Y307136D02*
D03*
X735054Y283136D02*
D03*
X741982Y279136D02*
D03*
X686556Y311136D02*
D03*
X683958Y312636D02*
D03*
X739384Y280636D02*
D03*
D26*
X1372870Y769710D02*
D03*
Y749210D02*
D03*
X1337310Y913220D02*
D03*
Y892720D02*
D03*
X754380Y1360260D02*
D03*
Y1339760D02*
D03*
X807720Y1378040D02*
D03*
Y1357540D02*
D03*
X1393190Y491580D02*
D03*
Y471080D02*
D03*
X1357630Y654140D02*
D03*
X1408430Y1202780D02*
D03*
Y1182280D02*
D03*
X1357630Y633640D02*
D03*
X815270Y816643D02*
D03*
Y796143D02*
D03*
X946080Y778363D02*
D03*
Y798863D02*
D03*
D27*
X1318350Y1325880D02*
D03*
X1297850D02*
D03*
X1398090Y977900D02*
D03*
X1418590D02*
D03*
X1097370Y1399540D02*
D03*
X1076870D02*
D03*
X1398180Y1022350D02*
D03*
X563810Y453333D02*
D03*
X584310D02*
D03*
X1418680Y1022350D02*
D03*
D28*
X797080Y330143D02*
D03*
X777580D02*
D03*
X622640Y351733D02*
D03*
X642140D02*
D03*
D29*
X889290Y676853D02*
D03*
X468920Y933393D02*
D03*
X870790Y676853D02*
D03*
X450420Y933393D02*
D03*
D30*
X845180Y573983D02*
D03*
Y510483D02*
D03*
Y548583D02*
D03*
Y561283D02*
D03*
Y535883D02*
D03*
X907280Y573983D02*
D03*
Y561283D02*
D03*
Y548583D02*
D03*
Y535883D02*
D03*
Y523183D02*
D03*
Y510483D02*
D03*
Y497783D02*
D03*
Y485083D02*
D03*
X845180D02*
D03*
Y497783D02*
D03*
Y523183D02*
D03*
D31*
X1024820Y385913D02*
D03*
X981640Y384753D02*
D03*
X855910Y368133D02*
D03*
X580320Y387183D02*
D03*
Y405183D02*
D03*
X981640Y402753D02*
D03*
X1024820Y403913D02*
D03*
X855910Y386133D02*
D03*
D32*
X803680Y445833D02*
D03*
D33*
X902963Y396183D02*
D03*
X930777Y405683D02*
D03*
X902963D02*
D03*
Y386683D02*
D03*
X930777D02*
D03*
D34*
X1023550Y296403D02*
D03*
X751770Y423763D02*
D03*
Y442263D02*
D03*
X1023550Y314903D02*
D03*
D35*
X984180Y297283D02*
D03*
Y317283D02*
D03*
D36*
X916516Y113738D02*
D03*
X867071Y140028D02*
D03*
D37*
X896741Y168139D02*
D03*
X923229Y154055D02*
D03*
X914400Y158750D02*
D03*
X905571Y163445D02*
D03*
D38*
X575130Y949473D02*
D03*
X492690Y393213D02*
D03*
X575130Y990973D02*
D03*
X492690Y434713D02*
D03*
D39*
X637470Y947363D02*
D03*
X619470D02*
D03*
D40*
X660080Y815353D02*
D03*
X490080D02*
D03*
Y637553D02*
D03*
Y802653D02*
D03*
Y789953D02*
D03*
Y777253D02*
D03*
Y764553D02*
D03*
Y751853D02*
D03*
Y739153D02*
D03*
Y726453D02*
D03*
Y713753D02*
D03*
Y701053D02*
D03*
Y688353D02*
D03*
Y675653D02*
D03*
Y662953D02*
D03*
Y650253D02*
D03*
Y624853D02*
D03*
Y612153D02*
D03*
Y599453D02*
D03*
Y586753D02*
D03*
X660080D02*
D03*
Y599453D02*
D03*
Y612153D02*
D03*
Y624853D02*
D03*
Y637553D02*
D03*
Y650253D02*
D03*
Y662953D02*
D03*
Y675653D02*
D03*
Y688353D02*
D03*
Y701053D02*
D03*
Y713753D02*
D03*
Y726453D02*
D03*
Y739153D02*
D03*
Y751853D02*
D03*
Y764553D02*
D03*
Y777253D02*
D03*
Y789953D02*
D03*
Y802653D02*
D03*
D41*
X565080Y740353D02*
D03*
D42*
X751770Y362553D02*
D03*
Y381553D02*
D03*
D43*
X796710Y386023D02*
D03*
X826210D02*
D03*
D44*
X783680Y443833D02*
D03*
Y462833D02*
D03*
X803680D02*
D03*
D45*
X901470Y829253D02*
D03*
X902740Y759403D02*
D03*
X881470Y838753D02*
D03*
Y819753D02*
D03*
X882740Y768903D02*
D03*
Y749903D02*
D03*
D46*
X898100Y311093D02*
D03*
X933100D02*
D03*
M02*
