G04*
G04 #@! TF.GenerationSoftware,Altium Limited,Altium Designer,25.5.2 (35)*
G04*
G04 Layer_Color=2752767*
%FSLAX44Y44*%
%MOMM*%
G71*
G04*
G04 #@! TF.SameCoordinates,1C876D45-0CCD-4BF8-8A60-7BCD78DFC47F*
G04*
G04*
G04 #@! TF.FilePolarity,Positive*
G04*
G01*
G75*
%ADD11C,0.1270*%
%ADD110C,0.1693*%
%ADD111C,0.1016*%
D11*
X677537Y296033D02*
X680077Y301113D01*
X677537Y306193D01*
X682617Y303653D01*
X687697Y306193D01*
X685157Y301113D01*
X687697Y296033D01*
X682617Y298573D01*
X677537Y296033D01*
X727593Y267133D02*
X730133Y272213D01*
X727593Y277293D01*
X732673Y274753D01*
X737753Y277293D01*
X735213Y272213D01*
X737753Y267133D01*
X732673Y269673D01*
X727593Y267133D01*
X651833Y271313D02*
X646753Y281473D01*
X656913D01*
X651833Y271313D01*
X726657Y228113D02*
X729197Y230653D01*
X731737D01*
X729197Y233193D01*
X731737Y235733D01*
X729197D01*
X726657Y238273D01*
X724117Y235733D01*
X721577D01*
X724117Y233193D01*
X721577Y230653D01*
X724117D01*
X726657Y228113D01*
X1633220Y656590D02*
X1635760D01*
X1638300Y659130D01*
X1640840Y656590D01*
X1643380D01*
Y659130D01*
X1640840Y661670D01*
X1643380Y664210D01*
Y666750D01*
X1640840D01*
X1638300Y664210D01*
X1635760Y666750D01*
X1633220D01*
Y664210D01*
X1635760Y661670D01*
X1633220Y659130D01*
Y656590D01*
X1635252Y658622D02*
X1636776D01*
X1638300Y660146D01*
X1639824Y658622D01*
X1641348D01*
Y660146D01*
X1639824Y661670D01*
X1641348Y663194D01*
Y664718D01*
X1639824D01*
X1638300Y663194D01*
X1636776Y664718D01*
X1635252D01*
Y663194D01*
X1636776Y661670D01*
X1635252Y660146D01*
Y658622D01*
X679450Y1210310D02*
X681990D01*
X684530Y1212850D01*
X687070Y1210310D01*
X689610D01*
Y1212850D01*
X687070Y1215390D01*
X689610Y1217930D01*
Y1220470D01*
X687070D01*
X684530Y1217930D01*
X681990Y1220470D01*
X679450D01*
Y1217930D01*
X681990Y1215390D01*
X679450Y1212850D01*
Y1210310D01*
X681482Y1212342D02*
X683006D01*
X684530Y1213866D01*
X686054Y1212342D01*
X687578D01*
Y1213866D01*
X686054Y1215390D01*
X687578Y1216914D01*
Y1218438D01*
X686054D01*
X684530Y1216914D01*
X683006Y1218438D01*
X681482D01*
Y1216914D01*
X683006Y1215390D01*
X681482Y1213866D01*
Y1212342D01*
X1143000Y156210D02*
X1145540D01*
X1148080Y158750D01*
X1150620Y156210D01*
X1153160D01*
Y158750D01*
X1150620Y161290D01*
X1153160Y163830D01*
Y166370D01*
X1150620D01*
X1148080Y163830D01*
X1145540Y166370D01*
X1143000D01*
Y163830D01*
X1145540Y161290D01*
X1143000Y158750D01*
Y156210D01*
X1145032Y158242D02*
X1146556D01*
X1148080Y159766D01*
X1149604Y158242D01*
X1151128D01*
Y159766D01*
X1149604Y161290D01*
X1151128Y162814D01*
Y164338D01*
X1149604D01*
X1148080Y162814D01*
X1146556Y164338D01*
X1145032D01*
Y162814D01*
X1146556Y161290D01*
X1145032Y159766D01*
Y158242D01*
X1476180Y488950D02*
X1478720Y491490D01*
X1481260D01*
X1478720Y494030D01*
X1481260Y496570D01*
X1478720D01*
X1476180Y499110D01*
X1473640Y496570D01*
X1471100D01*
X1473640Y494030D01*
X1471100Y491490D01*
X1473640D01*
X1476180Y488950D01*
Y490982D02*
X1477704Y492506D01*
X1479228D01*
X1477704Y494030D01*
X1479228Y495554D01*
X1477704D01*
X1476180Y497078D01*
X1474656Y495554D01*
X1473132D01*
X1474656Y494030D01*
X1473132Y492506D01*
X1474656D01*
X1476180Y490982D01*
Y463550D02*
X1478720Y466090D01*
X1481260D01*
X1478720Y468630D01*
X1481260Y471170D01*
X1478720D01*
X1476180Y473710D01*
X1473640Y471170D01*
X1471100D01*
X1473640Y468630D01*
X1471100Y466090D01*
X1473640D01*
X1476180Y463550D01*
Y465582D02*
X1477704Y467106D01*
X1479228D01*
X1477704Y468630D01*
X1479228Y470154D01*
X1477704D01*
X1476180Y471678D01*
X1474656Y470154D01*
X1473132D01*
X1474656Y468630D01*
X1473132Y467106D01*
X1474656D01*
X1476180Y465582D01*
Y438150D02*
X1478720Y440690D01*
X1481260D01*
X1478720Y443230D01*
X1481260Y445770D01*
X1478720D01*
X1476180Y448310D01*
X1473640Y445770D01*
X1471100D01*
X1473640Y443230D01*
X1471100Y440690D01*
X1473640D01*
X1476180Y438150D01*
Y440182D02*
X1477704Y441706D01*
X1479228D01*
X1477704Y443230D01*
X1479228Y444754D01*
X1477704D01*
X1476180Y446278D01*
X1474656Y444754D01*
X1473132D01*
X1474656Y443230D01*
X1473132Y441706D01*
X1474656D01*
X1476180Y440182D01*
X1276350Y568960D02*
X1271270Y579120D01*
X1281430D01*
X1276350Y568960D01*
Y570992D02*
X1273302Y577088D01*
X1279398D01*
X1276350Y570992D01*
Y543560D02*
X1271270Y553720D01*
X1281430D01*
X1276350Y543560D01*
Y545592D02*
X1273302Y551688D01*
X1279398D01*
X1276350Y545592D01*
X1283970Y839470D02*
X1278890Y849630D01*
X1289050D01*
X1283970Y839470D01*
Y841502D02*
X1280922Y847598D01*
X1287018D01*
X1283970Y841502D01*
Y814070D02*
X1278890Y824230D01*
X1289050D01*
X1283970Y814070D01*
Y816102D02*
X1280922Y822198D01*
X1287018D01*
X1283970Y816102D01*
X1247140Y1278890D02*
X1242060Y1289050D01*
X1252220D01*
X1247140Y1278890D01*
Y1280922D02*
X1244092Y1287018D01*
X1250188D01*
X1247140Y1280922D01*
Y1253490D02*
X1242060Y1263650D01*
X1252220D01*
X1247140Y1253490D01*
Y1255522D02*
X1244092Y1261618D01*
X1250188D01*
X1247140Y1255522D01*
X1256318Y1451474D02*
X1258858D01*
X1261398Y1454014D01*
X1263938Y1451474D01*
X1266478D01*
Y1454014D01*
X1263938Y1456554D01*
X1266478Y1459094D01*
Y1461634D01*
X1263938D01*
X1261398Y1459094D01*
X1258858Y1461634D01*
X1256318D01*
Y1459094D01*
X1258858Y1456554D01*
X1256318Y1454014D01*
Y1451474D01*
X1298922Y1423806D02*
X1301462D01*
X1304002Y1426346D01*
X1306542Y1423806D01*
X1309082D01*
Y1426346D01*
X1306542Y1428886D01*
X1309082Y1431426D01*
Y1433966D01*
X1306542D01*
X1304002Y1431426D01*
X1301462Y1433966D01*
X1298922D01*
Y1431426D01*
X1301462Y1428886D01*
X1298922Y1426346D01*
Y1423806D01*
X1671080Y875340D02*
X1676160Y880420D01*
X1681240Y875340D01*
X1676160Y870260D01*
X1671080Y875340D01*
Y755340D02*
X1676160Y760420D01*
X1681240Y755340D01*
X1676160Y750260D01*
X1671080Y755340D01*
X1549080D02*
X1554160Y760420D01*
X1559240Y755340D01*
X1554160Y750260D01*
X1549080Y755340D01*
X1529080Y810260D02*
Y820420D01*
X1539240D01*
Y810260D01*
X1529080D01*
X1531112Y812292D02*
Y818388D01*
X1537208D01*
Y812292D01*
X1531112D01*
X1549080Y875340D02*
X1554160Y880420D01*
X1559240Y875340D01*
X1554160Y870260D01*
X1549080Y875340D01*
X1675170Y444190D02*
X1680250Y449270D01*
X1685330Y444190D01*
X1680250Y439110D01*
X1675170Y444190D01*
X1648500Y1091890D02*
X1653580Y1096970D01*
X1658660Y1091890D01*
X1653580Y1086810D01*
X1648500Y1091890D01*
X1457960Y760730D02*
X1460500Y763270D01*
X1463040D01*
X1460500Y765810D01*
X1463040Y768350D01*
X1460500D01*
X1457960Y770890D01*
X1455420Y768350D01*
X1452880D01*
X1455420Y765810D01*
X1452880Y763270D01*
X1455420D01*
X1457960Y760730D01*
Y762762D02*
X1459484Y764286D01*
X1461008D01*
X1459484Y765810D01*
X1461008Y767334D01*
X1459484D01*
X1457960Y768858D01*
X1456436Y767334D01*
X1454912D01*
X1456436Y765810D01*
X1454912Y764286D01*
X1456436D01*
X1457960Y762762D01*
X1553170Y564190D02*
X1558250Y569270D01*
X1563330Y564190D01*
X1558250Y559110D01*
X1553170Y564190D01*
X1526500Y1211890D02*
X1531580Y1216970D01*
X1536660Y1211890D01*
X1531580Y1206810D01*
X1526500Y1211890D01*
X1797050Y847090D02*
X1799590D01*
X1802130Y849630D01*
X1804670Y847090D01*
X1807210D01*
Y849630D01*
X1804670Y852170D01*
X1807210Y854710D01*
Y857250D01*
X1804670D01*
X1802130Y854710D01*
X1799590Y857250D01*
X1797050D01*
Y854710D01*
X1799590Y852170D01*
X1797050Y849630D01*
Y847090D01*
X1457960Y735330D02*
X1460500Y737870D01*
X1463040D01*
X1460500Y740410D01*
X1463040Y742950D01*
X1460500D01*
X1457960Y745490D01*
X1455420Y742950D01*
X1452880D01*
X1455420Y740410D01*
X1452880Y737870D01*
X1455420D01*
X1457960Y735330D01*
Y737362D02*
X1459484Y738886D01*
X1461008D01*
X1459484Y740410D01*
X1461008Y741934D01*
X1459484D01*
X1457960Y743458D01*
X1456436Y741934D01*
X1454912D01*
X1456436Y740410D01*
X1454912Y738886D01*
X1456436D01*
X1457960Y737362D01*
Y709930D02*
X1460500Y712470D01*
X1463040D01*
X1460500Y715010D01*
X1463040Y717550D01*
X1460500D01*
X1457960Y720090D01*
X1455420Y717550D01*
X1452880D01*
X1455420Y715010D01*
X1452880Y712470D01*
X1455420D01*
X1457960Y709930D01*
Y711962D02*
X1459484Y713486D01*
X1461008D01*
X1459484Y715010D01*
X1461008Y716534D01*
X1459484D01*
X1457960Y718058D01*
X1456436Y716534D01*
X1454912D01*
X1456436Y715010D01*
X1454912Y713486D01*
X1456436D01*
X1457960Y711962D01*
X1648500Y1211890D02*
X1653580Y1216970D01*
X1658660Y1211890D01*
X1653580Y1206810D01*
X1648500Y1211890D01*
X1526500Y1091890D02*
X1531580Y1096970D01*
X1536660Y1091890D01*
X1531580Y1086810D01*
X1526500Y1091890D01*
X1506500Y1146810D02*
Y1156970D01*
X1516660D01*
Y1146810D01*
X1506500D01*
X1508532Y1148842D02*
Y1154938D01*
X1514628D01*
Y1148842D01*
X1508532D01*
X1675170Y564190D02*
X1680250Y569270D01*
X1685330Y564190D01*
X1680250Y559110D01*
X1675170Y564190D01*
X1553170Y444190D02*
X1558250Y449270D01*
X1563330Y444190D01*
X1558250Y439110D01*
X1553170Y444190D01*
X1533170Y499110D02*
Y509270D01*
X1543330D01*
Y499110D01*
X1533170D01*
X1535202Y501142D02*
Y507238D01*
X1541298D01*
Y501142D01*
X1535202D01*
X1440620Y1146810D02*
X1443160Y1149350D01*
X1445700D01*
X1443160Y1151890D01*
X1445700Y1154430D01*
X1443160D01*
X1440620Y1156970D01*
X1438080Y1154430D01*
X1435540D01*
X1438080Y1151890D01*
X1435540Y1149350D01*
X1438080D01*
X1440620Y1146810D01*
Y1148842D02*
X1442144Y1150366D01*
X1443668D01*
X1442144Y1151890D01*
X1443668Y1153414D01*
X1442144D01*
X1440620Y1154938D01*
X1439096Y1153414D01*
X1437572D01*
X1439096Y1151890D01*
X1437572Y1150366D01*
X1439096D01*
X1440620Y1148842D01*
Y1121410D02*
X1443160Y1123950D01*
X1445700D01*
X1443160Y1126490D01*
X1445700Y1129030D01*
X1443160D01*
X1440620Y1131570D01*
X1438080Y1129030D01*
X1435540D01*
X1438080Y1126490D01*
X1435540Y1123950D01*
X1438080D01*
X1440620Y1121410D01*
Y1123442D02*
X1442144Y1124966D01*
X1443668D01*
X1442144Y1126490D01*
X1443668Y1128014D01*
X1442144D01*
X1440620Y1129538D01*
X1439096Y1128014D01*
X1437572D01*
X1439096Y1126490D01*
X1437572Y1124966D01*
X1439096D01*
X1440620Y1123442D01*
Y1096010D02*
X1443160Y1098550D01*
X1445700D01*
X1443160Y1101090D01*
X1445700Y1103630D01*
X1443160D01*
X1440620Y1106170D01*
X1438080Y1103630D01*
X1435540D01*
X1438080Y1101090D01*
X1435540Y1098550D01*
X1438080D01*
X1440620Y1096010D01*
Y1098042D02*
X1442144Y1099566D01*
X1443668D01*
X1442144Y1101090D01*
X1443668Y1102614D01*
X1442144D01*
X1440620Y1104138D01*
X1439096Y1102614D01*
X1437572D01*
X1439096Y1101090D01*
X1437572Y1099566D01*
X1439096D01*
X1440620Y1098042D01*
X1040130Y1456690D02*
Y1466850D01*
X1050290D01*
Y1456690D01*
X1040130D01*
X745420Y954983D02*
Y965143D01*
X755580D01*
Y954983D01*
X745420D01*
Y802583D02*
Y812743D01*
X755580D01*
Y802583D01*
X745420D01*
X405060Y605733D02*
Y615893D01*
X415220D01*
Y605733D01*
X405060D01*
X745420Y904183D02*
Y914343D01*
X755580D01*
Y904183D01*
X745420D01*
X405060Y529533D02*
Y539693D01*
X415220D01*
Y529533D01*
X405060D01*
Y656533D02*
Y666693D01*
X415220D01*
Y656533D01*
X405060D01*
Y707333D02*
Y717493D01*
X415220D01*
Y707333D01*
X405060D01*
X745420Y751783D02*
Y761943D01*
X755580D01*
Y751783D01*
X745420D01*
Y726383D02*
Y736543D01*
X755580D01*
Y726383D01*
X745420D01*
Y548583D02*
Y558743D01*
X755580D01*
Y548583D01*
X745420D01*
X405060Y834333D02*
Y844493D01*
X415220D01*
Y834333D01*
X405060D01*
Y885133D02*
Y895293D01*
X415220D01*
Y885133D01*
X405060D01*
X745420Y878783D02*
Y888943D01*
X755580D01*
Y878783D01*
X745420D01*
Y624783D02*
Y634943D01*
X755580D01*
Y624783D01*
X745420D01*
Y573983D02*
Y584143D01*
X755580D01*
Y573983D01*
X745420D01*
X405060Y681933D02*
Y692093D01*
X415220D01*
Y681933D01*
X405060D01*
X745420Y929583D02*
Y939743D01*
X755580D01*
Y929583D01*
X745420D01*
X405060Y554933D02*
Y565093D01*
X415220D01*
Y554933D01*
X405060D01*
Y631133D02*
Y641293D01*
X415220D01*
Y631133D01*
X405060D01*
Y808933D02*
Y819093D01*
X415220D01*
Y808933D01*
X405060D01*
X745420Y853383D02*
Y863543D01*
X755580D01*
Y853383D01*
X745420D01*
Y777183D02*
Y787343D01*
X755580D01*
Y777183D01*
X745420D01*
Y599383D02*
Y609543D01*
X755580D01*
Y599383D01*
X745420D01*
Y497783D02*
Y507943D01*
X755580D01*
Y497783D01*
X745420D01*
X405060Y783533D02*
Y793693D01*
X415220D01*
Y783533D01*
X405060D01*
X745420Y675583D02*
Y685743D01*
X755580D01*
Y675583D01*
X745420D01*
X405060Y732733D02*
Y742893D01*
X415220D01*
Y732733D01*
X405060D01*
X745420Y827983D02*
Y838143D01*
X755580D01*
Y827983D01*
X745420D01*
Y523183D02*
Y533343D01*
X755580D01*
Y523183D01*
X745420D01*
X405060Y504133D02*
Y514293D01*
X415220D01*
Y504133D01*
X405060D01*
Y580333D02*
Y590493D01*
X415220D01*
Y580333D01*
X405060D01*
X745420Y700983D02*
Y711143D01*
X755580D01*
Y700983D01*
X745420D01*
Y650183D02*
Y660343D01*
X755580D01*
Y650183D01*
X745420D01*
X1065530Y1456690D02*
Y1466850D01*
X1075690D01*
Y1456690D01*
X1065530D01*
X405060Y758133D02*
Y768293D01*
X415220D01*
Y758133D01*
X405060D01*
Y859733D02*
Y869893D01*
X415220D01*
Y859733D01*
X405060D01*
Y910533D02*
Y920693D01*
X415220D01*
Y910533D01*
X405060D01*
Y935933D02*
Y946093D01*
X415220D01*
Y935933D01*
X405060D01*
X1090930Y1456690D02*
Y1466850D01*
X1101090D01*
Y1456690D01*
X1090930D01*
X1778910Y1102695D02*
X1781450D01*
X1783990Y1105235D01*
X1786530Y1102695D01*
X1789070D01*
Y1105235D01*
X1786530Y1107775D01*
X1789070Y1110315D01*
Y1112855D01*
X1786530D01*
X1783990Y1110315D01*
X1781450Y1112855D01*
X1778910D01*
Y1110315D01*
X1781450Y1107775D01*
X1778910Y1105235D01*
Y1102695D01*
Y1153495D02*
X1781450D01*
X1783990Y1156035D01*
X1786530Y1153495D01*
X1789070D01*
Y1156035D01*
X1786530Y1158575D01*
X1789070Y1161115D01*
Y1163655D01*
X1786530D01*
X1783990Y1161115D01*
X1781450Y1163655D01*
X1778910D01*
Y1161115D01*
X1781450Y1158575D01*
X1778910Y1156035D01*
Y1153495D01*
X1797050Y796290D02*
X1799590D01*
X1802130Y798830D01*
X1804670Y796290D01*
X1807210D01*
Y798830D01*
X1804670Y801370D01*
X1807210Y803910D01*
Y806450D01*
X1804670D01*
X1802130Y803910D01*
X1799590Y806450D01*
X1797050D01*
Y803910D01*
X1799590Y801370D01*
X1797050Y798830D01*
Y796290D01*
X1800860Y478790D02*
X1803400D01*
X1805940Y481330D01*
X1808480Y478790D01*
X1811020D01*
Y481330D01*
X1808480Y483870D01*
X1811020Y486410D01*
Y488950D01*
X1808480D01*
X1805940Y486410D01*
X1803400Y488950D01*
X1800860D01*
Y486410D01*
X1803400Y483870D01*
X1800860Y481330D01*
Y478790D01*
Y529590D02*
X1803400D01*
X1805940Y532130D01*
X1808480Y529590D01*
X1811020D01*
Y532130D01*
X1808480Y534670D01*
X1811020Y537210D01*
Y539750D01*
X1808480D01*
X1805940Y537210D01*
X1803400Y539750D01*
X1800860D01*
Y537210D01*
X1803400Y534670D01*
X1800860Y532130D01*
Y529590D01*
X405060Y478733D02*
Y488893D01*
X415220D01*
Y478733D01*
X405060D01*
X581590Y967683D02*
Y965143D01*
X586670D01*
Y967683D01*
X589210D01*
Y972763D01*
X586670D01*
Y975303D01*
X581590D01*
Y972763D01*
X579050D01*
Y967683D01*
X581590D01*
X563590D02*
Y965143D01*
X568670D01*
Y967683D01*
X571210D01*
Y972763D01*
X568670D01*
Y975303D01*
X563590D01*
Y972763D01*
X561050D01*
Y967683D01*
X563590D01*
X499150Y411423D02*
Y408883D01*
X504230D01*
Y411423D01*
X506770D01*
Y416503D01*
X504230D01*
Y419043D01*
X499150D01*
Y416503D01*
X496610D01*
Y411423D01*
X499150D01*
X481150D02*
Y408883D01*
X486230D01*
Y411423D01*
X488770D01*
Y416503D01*
X486230D01*
Y419043D01*
X481150D01*
Y416503D01*
X478610D01*
Y411423D01*
X481150D01*
X937260Y1336040D02*
X939800Y1341120D01*
X937260Y1346200D01*
X942340Y1343660D01*
X947420Y1346200D01*
X944880Y1341120D01*
X947420Y1336040D01*
X942340Y1338580D01*
X937260Y1336040D01*
X939292Y1338072D02*
X940816Y1341120D01*
X939292Y1344168D01*
X942340Y1342644D01*
X945388Y1344168D01*
X943864Y1341120D01*
X945388Y1338072D01*
X942340Y1339596D01*
X939292Y1338072D01*
X1003300Y1296670D02*
X1005840Y1301750D01*
X1003300Y1306830D01*
X1008380Y1304290D01*
X1013460Y1306830D01*
X1010920Y1301750D01*
X1013460Y1296670D01*
X1008380Y1299210D01*
X1003300Y1296670D01*
X1005332Y1298702D02*
X1006856Y1301750D01*
X1005332Y1304798D01*
X1008380Y1303274D01*
X1011428Y1304798D01*
X1009904Y1301750D01*
X1011428Y1298702D01*
X1008380Y1300226D01*
X1005332Y1298702D01*
X1423670Y779780D02*
X1426210Y784860D01*
X1423670Y789940D01*
X1428750Y787400D01*
X1433830Y789940D01*
X1431290Y784860D01*
X1433830Y779780D01*
X1428750Y782320D01*
X1423670Y779780D01*
X1425702Y781812D02*
X1427226Y784860D01*
X1425702Y787908D01*
X1428750Y786384D01*
X1431798Y787908D01*
X1430274Y784860D01*
X1431798Y781812D01*
X1428750Y783336D01*
X1425702Y781812D01*
X728980Y252730D02*
X731520Y257810D01*
X728980Y262890D01*
X734060Y260350D01*
X739140Y262890D01*
X736600Y257810D01*
X739140Y252730D01*
X734060Y255270D01*
X728980Y252730D01*
X731012Y254762D02*
X732536Y257810D01*
X731012Y260858D01*
X734060Y259334D01*
X737108Y260858D01*
X735584Y257810D01*
X737108Y254762D01*
X734060Y256286D01*
X731012Y254762D01*
X689610Y283210D02*
X692150Y288290D01*
X689610Y293370D01*
X694690Y290830D01*
X699770Y293370D01*
X697230Y288290D01*
X699770Y283210D01*
X694690Y285750D01*
X689610Y283210D01*
X691642Y285242D02*
X693166Y288290D01*
X691642Y291338D01*
X694690Y289814D01*
X697738Y291338D01*
X696214Y288290D01*
X697738Y285242D01*
X694690Y286766D01*
X691642Y285242D01*
X374650Y421640D02*
X377190Y426720D01*
X374650Y431800D01*
X379730Y429260D01*
X384810Y431800D01*
X382270Y426720D01*
X384810Y421640D01*
X379730Y424180D01*
X374650Y421640D01*
X376682Y423672D02*
X378206Y426720D01*
X376682Y429768D01*
X379730Y428244D01*
X382778Y429768D01*
X381254Y426720D01*
X382778Y423672D01*
X379730Y425196D01*
X376682Y423672D01*
X876300Y567690D02*
X878840Y572770D01*
X876300Y577850D01*
X881380Y575310D01*
X886460Y577850D01*
X883920Y572770D01*
X886460Y567690D01*
X881380Y570230D01*
X876300Y567690D01*
X878332Y569722D02*
X879856Y572770D01*
X878332Y575818D01*
X881380Y574294D01*
X884428Y575818D01*
X882904Y572770D01*
X884428Y569722D01*
X881380Y571246D01*
X878332Y569722D01*
X820420Y483870D02*
X822960Y488950D01*
X820420Y494030D01*
X825500Y491490D01*
X830580Y494030D01*
X828040Y488950D01*
X830580Y483870D01*
X825500Y486410D01*
X820420Y483870D01*
X822452Y485902D02*
X823976Y488950D01*
X822452Y491998D01*
X825500Y490474D01*
X828548Y491998D01*
X827024Y488950D01*
X828548Y485902D01*
X825500Y487426D01*
X822452Y485902D01*
X374650Y698500D02*
X377190Y703580D01*
X374650Y708660D01*
X379730Y706120D01*
X384810Y708660D01*
X382270Y703580D01*
X384810Y698500D01*
X379730Y701040D01*
X374650Y698500D01*
X376682Y700532D02*
X378206Y703580D01*
X376682Y706628D01*
X379730Y705104D01*
X382778Y706628D01*
X381254Y703580D01*
X382778Y700532D01*
X379730Y702056D01*
X376682Y700532D01*
X369570Y711200D02*
X372110Y716280D01*
X369570Y721360D01*
X374650Y718820D01*
X379730Y721360D01*
X377190Y716280D01*
X379730Y711200D01*
X374650Y713740D01*
X369570Y711200D01*
X371602Y713232D02*
X373126Y716280D01*
X371602Y719328D01*
X374650Y717804D01*
X377698Y719328D01*
X376174Y716280D01*
X377698Y713232D01*
X374650Y714756D01*
X371602Y713232D01*
X358140Y666750D02*
X360680Y671830D01*
X358140Y676910D01*
X363220Y674370D01*
X368300Y676910D01*
X365760Y671830D01*
X368300Y666750D01*
X363220Y669290D01*
X358140Y666750D01*
X360172Y668782D02*
X361696Y671830D01*
X360172Y674878D01*
X363220Y673354D01*
X366268Y674878D01*
X364744Y671830D01*
X366268Y668782D01*
X363220Y670306D01*
X360172Y668782D01*
X868680Y1361440D02*
X871220Y1366520D01*
X868680Y1371600D01*
X873760Y1369060D01*
X878840Y1371600D01*
X876300Y1366520D01*
X878840Y1361440D01*
X873760Y1363980D01*
X868680Y1361440D01*
X870712Y1363472D02*
X872236Y1366520D01*
X870712Y1369568D01*
X873760Y1368044D01*
X876808Y1369568D01*
X875284Y1366520D01*
X876808Y1363472D01*
X873760Y1364996D01*
X870712Y1363472D01*
X1000760Y814070D02*
X1003300Y819150D01*
X1000760Y824230D01*
X1005840Y821690D01*
X1010920Y824230D01*
X1008380Y819150D01*
X1010920Y814070D01*
X1005840Y816610D01*
X1000760Y814070D01*
X1002792Y816102D02*
X1004316Y819150D01*
X1002792Y822198D01*
X1005840Y820674D01*
X1008888Y822198D01*
X1007364Y819150D01*
X1008888Y816102D01*
X1005840Y817626D01*
X1002792Y816102D01*
X1084580Y680720D02*
X1087120Y685800D01*
X1084580Y690880D01*
X1089660Y688340D01*
X1094740Y690880D01*
X1092200Y685800D01*
X1094740Y680720D01*
X1089660Y683260D01*
X1084580Y680720D01*
X1086612Y682752D02*
X1088136Y685800D01*
X1086612Y688848D01*
X1089660Y687324D01*
X1092708Y688848D01*
X1091184Y685800D01*
X1092708Y682752D01*
X1089660Y684276D01*
X1086612Y682752D01*
X1107440Y342900D02*
X1109980Y347980D01*
X1107440Y353060D01*
X1112520Y350520D01*
X1117600Y353060D01*
X1115060Y347980D01*
X1117600Y342900D01*
X1112520Y345440D01*
X1107440Y342900D01*
X1109472Y344932D02*
X1110996Y347980D01*
X1109472Y351028D01*
X1112520Y349504D01*
X1115568Y351028D01*
X1114044Y347980D01*
X1115568Y344932D01*
X1112520Y346456D01*
X1109472Y344932D01*
X949960Y198120D02*
X952500Y203200D01*
X949960Y208280D01*
X955040Y205740D01*
X960120Y208280D01*
X957580Y203200D01*
X960120Y198120D01*
X955040Y200660D01*
X949960Y198120D01*
X951992Y200152D02*
X953516Y203200D01*
X951992Y206248D01*
X955040Y204724D01*
X958088Y206248D01*
X956564Y203200D01*
X958088Y200152D01*
X955040Y201676D01*
X951992Y200152D01*
X998220Y364490D02*
X1000760Y369570D01*
X998220Y374650D01*
X1003300Y372110D01*
X1008380Y374650D01*
X1005840Y369570D01*
X1008380Y364490D01*
X1003300Y367030D01*
X998220Y364490D01*
X1000252Y366522D02*
X1001776Y369570D01*
X1000252Y372618D01*
X1003300Y371094D01*
X1006348Y372618D01*
X1004824Y369570D01*
X1006348Y366522D01*
X1003300Y368046D01*
X1000252Y366522D01*
X939800Y946150D02*
X942340Y951230D01*
X939800Y956310D01*
X944880Y953770D01*
X949960Y956310D01*
X947420Y951230D01*
X949960Y946150D01*
X944880Y948690D01*
X939800Y946150D01*
X941832Y948182D02*
X943356Y951230D01*
X941832Y954278D01*
X944880Y952754D01*
X947928Y954278D01*
X946404Y951230D01*
X947928Y948182D01*
X944880Y949706D01*
X941832Y948182D01*
X1046480Y665480D02*
X1049020Y670560D01*
X1046480Y675640D01*
X1051560Y673100D01*
X1056640Y675640D01*
X1054100Y670560D01*
X1056640Y665480D01*
X1051560Y668020D01*
X1046480Y665480D01*
X1048512Y667512D02*
X1050036Y670560D01*
X1048512Y673608D01*
X1051560Y672084D01*
X1054608Y673608D01*
X1053084Y670560D01*
X1054608Y667512D01*
X1051560Y669036D01*
X1048512Y667512D01*
X1059143Y346225D02*
X1061683Y351305D01*
X1059143Y356385D01*
X1064223Y353844D01*
X1069303Y356385D01*
X1066763Y351305D01*
X1069303Y346225D01*
X1064223Y348764D01*
X1059143Y346225D01*
X1061175Y348256D02*
X1062699Y351305D01*
X1061175Y354352D01*
X1064223Y352828D01*
X1067271Y354352D01*
X1065747Y351305D01*
X1067271Y348256D01*
X1064223Y349781D01*
X1061175Y348256D01*
X963930Y210820D02*
X966470Y215900D01*
X963930Y220980D01*
X969010Y218440D01*
X974090Y220980D01*
X971550Y215900D01*
X974090Y210820D01*
X969010Y213360D01*
X963930Y210820D01*
X965962Y212852D02*
X967486Y215900D01*
X965962Y218948D01*
X969010Y217424D01*
X972058Y218948D01*
X970534Y215900D01*
X972058Y212852D01*
X969010Y214376D01*
X965962Y212852D01*
X777240Y863600D02*
X779780Y868680D01*
X777240Y873760D01*
X782320Y871220D01*
X787400Y873760D01*
X784860Y868680D01*
X787400Y863600D01*
X782320Y866140D01*
X777240Y863600D01*
X779272Y865632D02*
X780796Y868680D01*
X779272Y871728D01*
X782320Y870204D01*
X785368Y871728D01*
X783844Y868680D01*
X785368Y865632D01*
X782320Y867156D01*
X779272Y865632D01*
X782320Y844550D02*
X784860Y849630D01*
X782320Y854710D01*
X787400Y852170D01*
X792480Y854710D01*
X789940Y849630D01*
X792480Y844550D01*
X787400Y847090D01*
X782320Y844550D01*
X784352Y846582D02*
X785876Y849630D01*
X784352Y852678D01*
X787400Y851154D01*
X790448Y852678D01*
X788924Y849630D01*
X790448Y846582D01*
X787400Y848106D01*
X784352Y846582D01*
X925830Y855980D02*
X928370Y861060D01*
X925830Y866140D01*
X930910Y863600D01*
X935990Y866140D01*
X933450Y861060D01*
X935990Y855980D01*
X930910Y858520D01*
X925830Y855980D01*
X927862Y858012D02*
X929386Y861060D01*
X927862Y864108D01*
X930910Y862584D01*
X933958Y864108D01*
X932434Y861060D01*
X933958Y858012D01*
X930910Y859536D01*
X927862Y858012D01*
X943610Y918210D02*
X946150Y923290D01*
X943610Y928370D01*
X948690Y925830D01*
X953770Y928370D01*
X951230Y923290D01*
X953770Y918210D01*
X948690Y920750D01*
X943610Y918210D01*
X945642Y920242D02*
X947166Y923290D01*
X945642Y926338D01*
X948690Y924814D01*
X951738Y926338D01*
X950214Y923290D01*
X951738Y920242D01*
X948690Y921766D01*
X945642Y920242D01*
X1022350Y994410D02*
X1024890Y999490D01*
X1022350Y1004570D01*
X1027430Y1002030D01*
X1032510Y1004570D01*
X1029970Y999490D01*
X1032510Y994410D01*
X1027430Y996950D01*
X1022350Y994410D01*
X1024382Y996442D02*
X1025906Y999490D01*
X1024382Y1002538D01*
X1027430Y1001014D01*
X1030478Y1002538D01*
X1028954Y999490D01*
X1030478Y996442D01*
X1027430Y997966D01*
X1024382Y996442D01*
X852170Y1035050D02*
X854710Y1040130D01*
X852170Y1045210D01*
X857250Y1042670D01*
X862330Y1045210D01*
X859790Y1040130D01*
X862330Y1035050D01*
X857250Y1037590D01*
X852170Y1035050D01*
X854202Y1037082D02*
X855726Y1040130D01*
X854202Y1043178D01*
X857250Y1041654D01*
X860298Y1043178D01*
X858774Y1040130D01*
X860298Y1037082D01*
X857250Y1038606D01*
X854202Y1037082D01*
X779780Y1343660D02*
X782320Y1348740D01*
X779780Y1353820D01*
X784860Y1351280D01*
X789940Y1353820D01*
X787400Y1348740D01*
X789940Y1343660D01*
X784860Y1346200D01*
X779780Y1343660D01*
X781812Y1345692D02*
X783336Y1348740D01*
X781812Y1351788D01*
X784860Y1350264D01*
X787908Y1351788D01*
X786384Y1348740D01*
X787908Y1345692D01*
X784860Y1347216D01*
X781812Y1345692D01*
X797560Y922020D02*
X800100Y927100D01*
X797560Y932180D01*
X802640Y929640D01*
X807720Y932180D01*
X805180Y927100D01*
X807720Y922020D01*
X802640Y924560D01*
X797560Y922020D01*
X799592Y924052D02*
X801116Y927100D01*
X799592Y930148D01*
X802640Y928624D01*
X805688Y930148D01*
X804164Y927100D01*
X805688Y924052D01*
X802640Y925576D01*
X799592Y924052D01*
X938530Y975360D02*
X941070Y980440D01*
X938530Y985520D01*
X943610Y982980D01*
X948690Y985520D01*
X946150Y980440D01*
X948690Y975360D01*
X943610Y977900D01*
X938530Y975360D01*
X940562Y977392D02*
X942086Y980440D01*
X940562Y983488D01*
X943610Y981964D01*
X946658Y983488D01*
X945134Y980440D01*
X946658Y977392D01*
X943610Y978916D01*
X940562Y977392D01*
X900430Y1179830D02*
X902970Y1184910D01*
X900430Y1189990D01*
X905510Y1187450D01*
X910590Y1189990D01*
X908050Y1184910D01*
X910590Y1179830D01*
X905510Y1182370D01*
X900430Y1179830D01*
X902462Y1181862D02*
X903986Y1184910D01*
X902462Y1187958D01*
X905510Y1186434D01*
X908558Y1187958D01*
X907034Y1184910D01*
X908558Y1181862D01*
X905510Y1183386D01*
X902462Y1181862D01*
X1087120Y1314450D02*
X1089660Y1319530D01*
X1087120Y1324610D01*
X1092200Y1322070D01*
X1097280Y1324610D01*
X1094740Y1319530D01*
X1097280Y1314450D01*
X1092200Y1316990D01*
X1087120Y1314450D01*
X1089152Y1316482D02*
X1090676Y1319530D01*
X1089152Y1322578D01*
X1092200Y1321054D01*
X1095248Y1322578D01*
X1093724Y1319530D01*
X1095248Y1316482D01*
X1092200Y1318006D01*
X1089152Y1316482D01*
X1054100Y1103630D02*
X1056640Y1108710D01*
X1054100Y1113790D01*
X1059180Y1111250D01*
X1064260Y1113790D01*
X1061720Y1108710D01*
X1064260Y1103630D01*
X1059180Y1106170D01*
X1054100Y1103630D01*
X1056132Y1105662D02*
X1057656Y1108710D01*
X1056132Y1111758D01*
X1059180Y1110234D01*
X1062228Y1111758D01*
X1060704Y1108710D01*
X1062228Y1105662D01*
X1059180Y1107186D01*
X1056132Y1105662D01*
X923290Y1141730D02*
X925830Y1146810D01*
X923290Y1151890D01*
X928370Y1149350D01*
X933450Y1151890D01*
X930910Y1146810D01*
X933450Y1141730D01*
X928370Y1144270D01*
X923290Y1141730D01*
X925322Y1143762D02*
X926846Y1146810D01*
X925322Y1149858D01*
X928370Y1148334D01*
X931418Y1149858D01*
X929894Y1146810D01*
X931418Y1143762D01*
X928370Y1145286D01*
X925322Y1143762D01*
X845820Y869950D02*
X848360Y875030D01*
X845820Y880110D01*
X850900Y877570D01*
X855980Y880110D01*
X853440Y875030D01*
X855980Y869950D01*
X850900Y872490D01*
X845820Y869950D01*
X847852Y871982D02*
X849376Y875030D01*
X847852Y878078D01*
X850900Y876554D01*
X853948Y878078D01*
X852424Y875030D01*
X853948Y871982D01*
X850900Y873506D01*
X847852Y871982D01*
X782320Y958850D02*
X784860Y963930D01*
X782320Y969010D01*
X787400Y966470D01*
X792480Y969010D01*
X789940Y963930D01*
X792480Y958850D01*
X787400Y961390D01*
X782320Y958850D01*
X784352Y960882D02*
X785876Y963930D01*
X784352Y966978D01*
X787400Y965454D01*
X790448Y966978D01*
X788924Y963930D01*
X790448Y960882D01*
X787400Y962406D01*
X784352Y960882D01*
X889000Y974090D02*
X891540Y979170D01*
X889000Y984250D01*
X894080Y981710D01*
X899160Y984250D01*
X896620Y979170D01*
X899160Y974090D01*
X894080Y976630D01*
X889000Y974090D01*
X891032Y976122D02*
X892556Y979170D01*
X891032Y982218D01*
X894080Y980694D01*
X897128Y982218D01*
X895604Y979170D01*
X897128Y976122D01*
X894080Y977646D01*
X891032Y976122D01*
X1466850Y923290D02*
X1469390Y928370D01*
X1466850Y933450D01*
X1471930Y930910D01*
X1477010Y933450D01*
X1474470Y928370D01*
X1477010Y923290D01*
X1471930Y925830D01*
X1466850Y923290D01*
X1468882Y925322D02*
X1470406Y928370D01*
X1468882Y931418D01*
X1471930Y929894D01*
X1474978Y931418D01*
X1473454Y928370D01*
X1474978Y925322D01*
X1471930Y926846D01*
X1468882Y925322D01*
X405130Y425450D02*
X407670Y430530D01*
X405130Y435610D01*
X410210Y433070D01*
X415290Y435610D01*
X412750Y430530D01*
X415290Y425450D01*
X410210Y427990D01*
X405130Y425450D01*
X407162Y427482D02*
X408686Y430530D01*
X407162Y433578D01*
X410210Y432054D01*
X413258Y433578D01*
X411734Y430530D01*
X413258Y427482D01*
X410210Y429006D01*
X407162Y427482D01*
X996950Y703580D02*
X999490Y708660D01*
X996950Y713740D01*
X1002030Y711200D01*
X1007110Y713740D01*
X1004570Y708660D01*
X1007110Y703580D01*
X1002030Y706120D01*
X996950Y703580D01*
X998982Y705612D02*
X1000506Y708660D01*
X998982Y711708D01*
X1002030Y710184D01*
X1005078Y711708D01*
X1003554Y708660D01*
X1005078Y705612D01*
X1002030Y707136D01*
X998982Y705612D01*
X386080Y828040D02*
X388620Y833120D01*
X386080Y838200D01*
X391160Y835660D01*
X396240Y838200D01*
X393700Y833120D01*
X396240Y828040D01*
X391160Y830580D01*
X386080Y828040D01*
X388112Y830072D02*
X389636Y833120D01*
X388112Y836168D01*
X391160Y834644D01*
X394208Y836168D01*
X392684Y833120D01*
X394208Y830072D01*
X391160Y831596D01*
X388112Y830072D01*
X384810Y734060D02*
X387350Y739140D01*
X384810Y744220D01*
X389890Y741680D01*
X394970Y744220D01*
X392430Y739140D01*
X394970Y734060D01*
X389890Y736600D01*
X384810Y734060D01*
X386842Y736092D02*
X388366Y739140D01*
X386842Y742188D01*
X389890Y740664D01*
X392938Y742188D01*
X391414Y739140D01*
X392938Y736092D01*
X389890Y737616D01*
X386842Y736092D01*
X466020Y523183D02*
X468560Y528263D01*
X466020Y533343D01*
X471100Y530803D01*
X476180Y533343D01*
X473640Y528263D01*
X476180Y523183D01*
X471100Y525723D01*
X466020Y523183D01*
X468052Y525215D02*
X469576Y528263D01*
X468052Y531311D01*
X471100Y529787D01*
X474148Y531311D01*
X472624Y528263D01*
X474148Y525215D01*
X471100Y526739D01*
X468052Y525215D01*
X759390Y452063D02*
X761930Y457143D01*
X759390Y462223D01*
X764470Y459683D01*
X769550Y462223D01*
X767010Y457143D01*
X769550Y452063D01*
X764470Y454603D01*
X759390Y452063D01*
X761422Y454095D02*
X762946Y457143D01*
X761422Y460191D01*
X764470Y458667D01*
X767518Y460191D01*
X765994Y457143D01*
X767518Y454095D01*
X764470Y455619D01*
X761422Y454095D01*
X373380Y749300D02*
X375920Y754380D01*
X373380Y759460D01*
X378460Y756920D01*
X383540Y759460D01*
X381000Y754380D01*
X383540Y749300D01*
X378460Y751840D01*
X373380Y749300D01*
X375412Y751332D02*
X376936Y754380D01*
X375412Y757428D01*
X378460Y755904D01*
X381508Y757428D01*
X379984Y754380D01*
X381508Y751332D01*
X378460Y752856D01*
X375412Y751332D01*
X471170Y988060D02*
X473710Y993140D01*
X471170Y998220D01*
X476250Y995680D01*
X481330Y998220D01*
X478790Y993140D01*
X481330Y988060D01*
X476250Y990600D01*
X471170Y988060D01*
X473202Y990092D02*
X474726Y993140D01*
X473202Y996188D01*
X476250Y994664D01*
X479298Y996188D01*
X477774Y993140D01*
X479298Y990092D01*
X476250Y991616D01*
X473202Y990092D01*
X767010Y815283D02*
X769550Y820363D01*
X767010Y825443D01*
X772090Y822903D01*
X777170Y825443D01*
X774630Y820363D01*
X777170Y815283D01*
X772090Y817823D01*
X767010Y815283D01*
X769042Y817315D02*
X770566Y820363D01*
X769042Y823411D01*
X772090Y821887D01*
X775138Y823411D01*
X773614Y820363D01*
X775138Y817315D01*
X772090Y818839D01*
X769042Y817315D01*
X792410Y768293D02*
X794950Y773373D01*
X792410Y778453D01*
X797490Y775913D01*
X802570Y778453D01*
X800030Y773373D01*
X802570Y768293D01*
X797490Y770833D01*
X792410Y768293D01*
X794442Y770325D02*
X795966Y773373D01*
X794442Y776421D01*
X797490Y774897D01*
X800538Y776421D01*
X799014Y773373D01*
X800538Y770325D01*
X797490Y771849D01*
X794442Y770325D01*
X699700Y684473D02*
Y681933D01*
X704780D01*
Y684473D01*
X707320D01*
Y689553D01*
X704780D01*
Y692093D01*
X699700D01*
Y689553D01*
X697160D01*
Y684473D01*
X699700D01*
X700716Y685489D02*
Y683965D01*
X703764D01*
Y685489D01*
X705288D01*
Y688537D01*
X703764D01*
Y690061D01*
X700716D01*
Y688537D01*
X699192D01*
Y685489D01*
X700716D01*
X800030Y746703D02*
X802570Y751783D01*
X800030Y756863D01*
X805110Y754323D01*
X810190Y756863D01*
X807650Y751783D01*
X810190Y746703D01*
X805110Y749243D01*
X800030Y746703D01*
X802062Y748735D02*
X803586Y751783D01*
X802062Y754831D01*
X805110Y753307D01*
X808158Y754831D01*
X806634Y751783D01*
X808158Y748735D01*
X805110Y750259D01*
X802062Y748735D01*
X896550Y722573D02*
X899090Y727653D01*
X896550Y732733D01*
X901630Y730193D01*
X906710Y732733D01*
X904170Y727653D01*
X906710Y722573D01*
X901630Y725113D01*
X896550Y722573D01*
X898582Y724605D02*
X900106Y727653D01*
X898582Y730701D01*
X901630Y729177D01*
X904678Y730701D01*
X903154Y727653D01*
X904678Y724605D01*
X901630Y726129D01*
X898582Y724605D01*
X930840Y525723D02*
X933380Y530803D01*
X930840Y535883D01*
X935920Y533343D01*
X941000Y535883D01*
X938460Y530803D01*
X941000Y525723D01*
X935920Y528263D01*
X930840Y525723D01*
X932872Y527755D02*
X934396Y530803D01*
X932872Y533851D01*
X935920Y532327D01*
X938968Y533851D01*
X937444Y530803D01*
X938968Y527755D01*
X935920Y529279D01*
X932872Y527755D01*
X941000Y552393D02*
X943540Y557473D01*
X941000Y562553D01*
X946080Y560013D01*
X951160Y562553D01*
X948620Y557473D01*
X951160Y552393D01*
X946080Y554933D01*
X941000Y552393D01*
X943032Y554425D02*
X944556Y557473D01*
X943032Y560521D01*
X946080Y558997D01*
X949128Y560521D01*
X947604Y557473D01*
X949128Y554425D01*
X946080Y555949D01*
X943032Y554425D01*
X935920Y502863D02*
X938460Y507943D01*
X935920Y513023D01*
X941000Y510483D01*
X946080Y513023D01*
X943540Y507943D01*
X946080Y502863D01*
X941000Y505403D01*
X935920Y502863D01*
X937952Y504895D02*
X939476Y507943D01*
X937952Y510991D01*
X941000Y509467D01*
X944048Y510991D01*
X942524Y507943D01*
X944048Y504895D01*
X941000Y506419D01*
X937952Y504895D01*
X976560Y516833D02*
X979100Y521913D01*
X976560Y526993D01*
X981640Y524453D01*
X986720Y526993D01*
X984180Y521913D01*
X986720Y516833D01*
X981640Y519373D01*
X976560Y516833D01*
X978592Y518865D02*
X980116Y521913D01*
X978592Y524961D01*
X981640Y523437D01*
X984688Y524961D01*
X983164Y521913D01*
X984688Y518865D01*
X981640Y520389D01*
X978592Y518865D01*
X767010Y397453D02*
X769550Y402533D01*
X767010Y407613D01*
X772090Y405073D01*
X777170Y407613D01*
X774630Y402533D01*
X777170Y397453D01*
X772090Y399993D01*
X767010Y397453D01*
X769042Y399485D02*
X770566Y402533D01*
X769042Y405581D01*
X772090Y404057D01*
X775138Y405581D01*
X773614Y402533D01*
X775138Y399485D01*
X772090Y401009D01*
X769042Y399485D01*
X510470Y473653D02*
X513010Y478733D01*
X510470Y483813D01*
X515550Y481273D01*
X520630Y483813D01*
X518090Y478733D01*
X520630Y473653D01*
X515550Y476193D01*
X510470Y473653D01*
X512502Y475685D02*
X514026Y478733D01*
X512502Y481781D01*
X515550Y480257D01*
X518598Y481781D01*
X517074Y478733D01*
X518598Y475685D01*
X515550Y477209D01*
X512502Y475685D01*
X777170Y364433D02*
X779710Y369513D01*
X777170Y374593D01*
X782250Y372053D01*
X787330Y374593D01*
X784790Y369513D01*
X787330Y364433D01*
X782250Y366973D01*
X777170Y364433D01*
X779202Y366465D02*
X780726Y369513D01*
X779202Y372561D01*
X782250Y371037D01*
X785298Y372561D01*
X783774Y369513D01*
X785298Y366465D01*
X782250Y367989D01*
X779202Y366465D01*
X874960Y399993D02*
X877500Y405073D01*
X874960Y410153D01*
X880040Y407613D01*
X885120Y410153D01*
X882580Y405073D01*
X885120Y399993D01*
X880040Y402533D01*
X874960Y399993D01*
X876992Y402025D02*
X878516Y405073D01*
X876992Y408121D01*
X880040Y406597D01*
X883088Y408121D01*
X881564Y405073D01*
X883088Y402025D01*
X880040Y403549D01*
X876992Y402025D01*
X874960Y374593D02*
X877500Y379673D01*
X874960Y384753D01*
X880040Y382213D01*
X885120Y384753D01*
X882580Y379673D01*
X885120Y374593D01*
X880040Y377133D01*
X874960Y374593D01*
X876992Y376625D02*
X878516Y379673D01*
X876992Y382721D01*
X880040Y381197D01*
X883088Y382721D01*
X881564Y379673D01*
X883088Y376625D01*
X880040Y378149D01*
X876992Y376625D01*
X750500Y339033D02*
X753040Y344113D01*
X750500Y349193D01*
X755580Y346653D01*
X760660Y349193D01*
X758120Y344113D01*
X760660Y339033D01*
X755580Y341573D01*
X750500Y339033D01*
X752532Y341065D02*
X754056Y344113D01*
X752532Y347161D01*
X755580Y345637D01*
X758628Y347161D01*
X757104Y344113D01*
X758628Y341065D01*
X755580Y342589D01*
X752532Y341065D01*
X698430Y323793D02*
X700970Y328873D01*
X698430Y333953D01*
X703510Y331413D01*
X708590Y333953D01*
X706050Y328873D01*
X708590Y323793D01*
X703510Y326333D01*
X698430Y323793D01*
X700462Y325825D02*
X701986Y328873D01*
X700462Y331921D01*
X703510Y330397D01*
X706558Y331921D01*
X705034Y328873D01*
X706558Y325825D01*
X703510Y327349D01*
X700462Y325825D01*
X714940Y312363D02*
X717480Y317443D01*
X714940Y322523D01*
X720020Y319983D01*
X725100Y322523D01*
X722560Y317443D01*
X725100Y312363D01*
X720020Y314903D01*
X714940Y312363D01*
X716972Y314395D02*
X718496Y317443D01*
X716972Y320491D01*
X720020Y318967D01*
X723068Y320491D01*
X721544Y317443D01*
X723068Y314395D01*
X720020Y315919D01*
X716972Y314395D01*
X737800Y317443D02*
X740340Y322523D01*
X737800Y327603D01*
X742880Y325063D01*
X747960Y327603D01*
X745420Y322523D01*
X747960Y317443D01*
X742880Y319983D01*
X737800Y317443D01*
X739832Y319475D02*
X741356Y322523D01*
X739832Y325571D01*
X742880Y324047D01*
X745928Y325571D01*
X744404Y322523D01*
X745928Y319475D01*
X742880Y320999D01*
X739832Y319475D01*
X812730Y449523D02*
X815270Y454603D01*
X812730Y459683D01*
X817810Y457143D01*
X822890Y459683D01*
X820350Y454603D01*
X822890Y449523D01*
X817810Y452063D01*
X812730Y449523D01*
X814762Y451555D02*
X816286Y454603D01*
X814762Y457651D01*
X817810Y456127D01*
X820858Y457651D01*
X819334Y454603D01*
X820858Y451555D01*
X817810Y453079D01*
X814762Y451555D01*
X707320Y316173D02*
X709860Y321253D01*
X707320Y326333D01*
X712400Y323793D01*
X717480Y326333D01*
X714940Y321253D01*
X717480Y316173D01*
X712400Y318713D01*
X707320Y316173D01*
X709352Y318205D02*
X710876Y321253D01*
X709352Y324301D01*
X712400Y322777D01*
X715448Y324301D01*
X713924Y321253D01*
X715448Y318205D01*
X712400Y319729D01*
X709352Y318205D01*
X753040Y300933D02*
X755580Y306013D01*
X753040Y311093D01*
X758120Y308553D01*
X763200Y311093D01*
X760660Y306013D01*
X763200Y300933D01*
X758120Y303473D01*
X753040Y300933D01*
X755072Y302965D02*
X756596Y306013D01*
X755072Y309061D01*
X758120Y307537D01*
X761168Y309061D01*
X759644Y306013D01*
X761168Y302965D01*
X758120Y304489D01*
X755072Y302965D01*
D110*
X752637Y269393D02*
G03*
X752637Y269393I-5080J0D01*
G01*
X677813Y312593D02*
G03*
X677813Y312593I-5080J0D01*
G01*
X1438910Y572770D02*
G03*
X1438910Y572770I-5080J0D01*
G01*
Y547370D02*
G03*
X1438910Y547370I-5080J0D01*
G01*
X1362710D02*
G03*
X1362710Y547370I-5080J0D01*
G01*
Y572770D02*
G03*
X1362710Y572770I-5080J0D01*
G01*
X1397000Y1275080D02*
G03*
X1397000Y1275080I-5080J0D01*
G01*
Y1249680D02*
G03*
X1397000Y1249680I-5080J0D01*
G01*
X1320800D02*
G03*
X1320800Y1249680I-5080J0D01*
G01*
Y1275080D02*
G03*
X1320800Y1275080I-5080J0D01*
G01*
X1435100Y849630D02*
G03*
X1435100Y849630I-5080J0D01*
G01*
Y824230D02*
G03*
X1435100Y824230I-5080J0D01*
G01*
X1358900D02*
G03*
X1358900Y824230I-5080J0D01*
G01*
Y849630D02*
G03*
X1358900Y849630I-5080J0D01*
G01*
D111*
X1436878Y572770D02*
G03*
X1436878Y572770I-3048J0D01*
G01*
Y547370D02*
G03*
X1436878Y547370I-3048J0D01*
G01*
X1360678D02*
G03*
X1360678Y547370I-3048J0D01*
G01*
Y572770D02*
G03*
X1360678Y572770I-3048J0D01*
G01*
X1394968Y1275080D02*
G03*
X1394968Y1275080I-3048J0D01*
G01*
Y1249680D02*
G03*
X1394968Y1249680I-3048J0D01*
G01*
X1318768D02*
G03*
X1318768Y1249680I-3048J0D01*
G01*
Y1275080D02*
G03*
X1318768Y1275080I-3048J0D01*
G01*
X1433068Y849630D02*
G03*
X1433068Y849630I-3048J0D01*
G01*
Y824230D02*
G03*
X1433068Y824230I-3048J0D01*
G01*
X1356868D02*
G03*
X1356868Y824230I-3048J0D01*
G01*
Y849630D02*
G03*
X1356868Y849630I-3048J0D01*
G01*
M02*
