G04*
G04 #@! TF.GenerationSoftware,Altium Limited,Altium Designer,25.5.2 (35)*
G04*
G04 Layer_Physical_Order=2*
G04 Layer_Color=16711680*
%FSLAX44Y44*%
%MOMM*%
G71*
G04*
G04 #@! TF.SameCoordinates,1C876D45-0CCD-4BF8-8A60-7BCD78DFC47F*
G04*
G04*
G04 #@! TF.FilePolarity,Positive*
G04*
G01*
G75*
%ADD11C,0.1270*%
%ADD16C,0.2540*%
G04:AMPARAMS|DCode=18|XSize=1mm|YSize=1.8mm|CornerRadius=0.5mm|HoleSize=0mm|Usage=FLASHONLY|Rotation=330.000|XOffset=0mm|YOffset=0mm|HoleType=Round|Shape=RoundedRectangle|*
%AMROUNDEDRECTD18*
21,1,1.0000,0.8000,0,0,330.0*
21,1,0.0000,1.8000,0,0,330.0*
1,1,1.0000,-0.2000,-0.3464*
1,1,1.0000,-0.2000,-0.3464*
1,1,1.0000,0.2000,0.3464*
1,1,1.0000,0.2000,0.3464*
%
%ADD18ROUNDEDRECTD18*%
G04:AMPARAMS|DCode=19|XSize=1mm|YSize=2.1mm|CornerRadius=0.5mm|HoleSize=0mm|Usage=FLASHONLY|Rotation=330.000|XOffset=0mm|YOffset=0mm|HoleType=Round|Shape=RoundedRectangle|*
%AMROUNDEDRECTD19*
21,1,1.0000,1.1000,0,0,330.0*
21,1,0.0000,2.1000,0,0,330.0*
1,1,1.0000,-0.2750,-0.4763*
1,1,1.0000,-0.2750,-0.4763*
1,1,1.0000,0.2750,0.4763*
1,1,1.0000,0.2750,0.4763*
%
%ADD19ROUNDEDRECTD19*%
%ADD34R,1.5500X1.5500*%
%ADD86C,0.6350*%
%ADD87C,1.2700*%
%ADD88C,6.3500*%
%ADD89C,1.2980*%
%ADD90R,1.2980X1.2980*%
%ADD91C,1.2600*%
%ADD92R,1.2600X1.2600*%
%ADD93C,1.3780*%
%ADD94R,1.3780X1.3780*%
%ADD95C,1.6500*%
%ADD96P,2.3335X4X192.0*%
%ADD97C,1.9800*%
%ADD98C,1.9350*%
%ADD99R,1.9800X1.9800*%
%ADD100C,1.5500*%
%ADD101C,1.9050*%
%ADD102R,1.6500X1.6500*%
%ADD103C,0.8000*%
%ADD104C,0.6000*%
%ADD105C,1.2700*%
%ADD106C,0.6500*%
D11*
X873760Y999490D02*
Y1366520D01*
X969010Y1461770D01*
X1457960Y715010D02*
X1502410Y670560D01*
X1487945Y449085D02*
X1502410Y463550D01*
X1476180Y443230D02*
X1482035Y449085D01*
X1502410Y463550D02*
Y670560D01*
X1482035Y449085D02*
X1487945D01*
X1402520Y369570D02*
X1476180Y443230D01*
X1003300Y369570D02*
X1402520D01*
X782250Y330143D02*
Y369513D01*
X725170Y257810D02*
X734060D01*
X694690Y288290D02*
X725170Y257810D01*
X488950Y529590D02*
X488950Y529590D01*
X488950Y529590D02*
Y542290D01*
X410140Y610813D02*
X411283Y609670D01*
X421570D01*
X488950Y542290D01*
X386080Y426720D02*
X488950Y529590D01*
X379730Y426720D02*
X386080D01*
X806380Y478733D02*
X880040Y405073D01*
X515550Y478733D02*
X806380D01*
X381911Y716280D02*
X398710Y733079D01*
X374650Y716280D02*
X381911D01*
X398710Y733079D02*
Y854690D01*
X363220Y671830D02*
X367220Y667831D01*
Y448865D02*
Y667831D01*
Y448865D02*
X370314Y445770D01*
X388607D01*
X471100Y528263D01*
X410140Y915613D02*
X483175Y842578D01*
Y825964D02*
Y842578D01*
X1005840Y769620D02*
Y819150D01*
Y769620D02*
X1089660Y685800D01*
X1112520Y309880D02*
Y347980D01*
X1005840Y203200D02*
X1112520Y309880D01*
X955040Y203200D02*
X1005840D01*
X928370Y967740D02*
X944880Y951230D01*
X928370Y967740D02*
Y1146810D01*
X802640Y927100D02*
X905510D01*
X989330Y843280D01*
Y732790D02*
Y843280D01*
Y732790D02*
X1051560Y670560D01*
X1064223Y311113D02*
Y351305D01*
X969010Y215900D02*
X1064223Y311113D01*
X967740Y759460D02*
Y848360D01*
X941070Y875030D02*
X967740Y848360D01*
X863543Y655263D02*
X967740Y759460D01*
X850900Y875030D02*
X941070D01*
X750500Y858463D02*
X772103D01*
X782320Y868680D01*
X787400Y849630D02*
X805110Y831920D01*
X778497Y861060D02*
X930910D01*
X750500Y833063D02*
X778497Y861060D01*
X948690Y923290D02*
X949595Y924195D01*
X952135D01*
X1027430Y999490D01*
X784860Y1112520D02*
X857250Y1040130D01*
X805110Y751783D02*
Y831920D01*
X784860Y1112520D02*
Y1348740D01*
X750500Y909263D02*
X768337Y927100D01*
X802640D01*
X943610Y980440D02*
X974090Y1010920D01*
Y1176020D01*
X965200Y1184910D02*
X974090Y1176020D01*
X905510Y1184910D02*
X965200D01*
X394900Y925773D02*
X410140Y941013D01*
X750500Y655263D02*
X863543D01*
X894010Y720033D02*
X901630Y727653D01*
X589106Y720033D02*
X894010D01*
X969010Y1461770D02*
X1045210D01*
X750500Y960063D02*
X753462Y963025D01*
X786495D01*
X787400Y963930D01*
X873760Y999490D02*
X894080Y979170D01*
X1471930Y728980D02*
Y928370D01*
X1457960Y715010D02*
X1471930Y728980D01*
X394900Y858500D02*
X398710Y854690D01*
X394900Y858500D02*
Y925773D01*
X483175Y825964D02*
X589106Y720033D01*
X772090Y798773D02*
Y820363D01*
Y798773D02*
X797490Y773373D01*
X744807Y252807D02*
Y266643D01*
X726657Y234657D02*
X744807Y252807D01*
X651833Y277857D02*
X669983Y296007D01*
Y309843D01*
X935920Y530803D02*
X946080Y540963D01*
Y557473D01*
X941000Y507943D02*
X967670D01*
X981640Y521913D01*
X758120Y306013D02*
X782250Y330143D01*
X744807Y266643D02*
X747557Y269393D01*
X726657Y233193D02*
Y234657D01*
X669983Y309843D02*
X672733Y312593D01*
X651833Y276393D02*
Y277857D01*
X735260Y344113D02*
X755580D01*
X712400Y321253D02*
X735260Y344113D01*
D16*
X1554160Y875340D02*
Y1086903D01*
X1531580Y1109483D02*
X1554160Y1086903D01*
X1531580Y1109483D02*
Y1211890D01*
X1455110D02*
X1531580D01*
X1391920Y1275080D02*
X1455110Y1211890D01*
X942340Y1341120D02*
X981710Y1301750D01*
X1008380D01*
X1433830Y572770D02*
Y779780D01*
X1428750Y784860D02*
X1433830Y779780D01*
X782250Y369513D02*
X799973Y351790D01*
X929640D01*
X979170Y401320D01*
X1262380D01*
X1433830Y572770D01*
X747960Y327603D02*
X776710Y356353D01*
Y371808D01*
X817810Y412908D01*
X881380Y544830D02*
Y572770D01*
X825500Y488950D02*
X881380Y544830D01*
X389228Y739802D02*
Y743612D01*
X378460Y754380D02*
X389228Y743612D01*
Y739802D02*
X389890Y739140D01*
X735895Y839113D02*
X737165Y840383D01*
X735895Y827013D02*
Y839113D01*
Y827013D02*
X737165Y825743D01*
Y840383D02*
Y946728D01*
Y820998D02*
Y825743D01*
X1092200Y1141730D02*
Y1319530D01*
X1059180Y1108710D02*
X1092200Y1141730D01*
X375920Y848360D02*
Y955040D01*
X414020Y993140D01*
X476250D01*
X375920Y848360D02*
X391160Y833120D01*
X1440620Y959680D02*
X1471930Y928370D01*
X1440620Y959680D02*
Y1101090D01*
X703510Y396183D02*
X764470Y457143D01*
X702240Y687013D02*
X723308D01*
X817810Y412908D02*
Y454603D01*
X737165Y946728D02*
X750500Y960063D01*
X737165Y820998D02*
X750500Y807663D01*
X765740Y396183D02*
X772090Y402533D01*
X703510Y396183D02*
X765740D01*
X880040Y379673D02*
Y405073D01*
X703510Y328873D02*
Y396183D01*
X720020Y317443D02*
X730180Y327603D01*
X747960D01*
X742880Y322523D02*
X747960Y327603D01*
X729658Y680663D02*
X750500D01*
X723308Y687013D02*
X729658Y680663D01*
D18*
X651833Y276393D02*
D03*
X726657Y233193D02*
D03*
D19*
X747557Y269393D02*
D03*
X672733Y312593D02*
D03*
D34*
X1096010Y1461770D02*
D03*
D86*
X379730Y703580D02*
X388563Y712413D01*
X410140D01*
X410210Y430530D02*
X468573Y488893D01*
X364490Y951692D02*
X413383Y1000585D01*
X364490Y689610D02*
Y951692D01*
X389378Y687013D02*
X410140D01*
X386895Y684530D02*
X389378Y687013D01*
X369570Y684530D02*
X386895D01*
X364490Y689610D02*
X369570Y684530D01*
X413383Y1000585D02*
X849805D01*
X1276350Y574040D01*
Y548640D02*
X1276985Y548005D01*
X1356995D01*
X1357630Y547370D01*
X468573Y488893D02*
X782263D01*
X1002030Y708660D01*
D87*
X1538250Y504190D02*
Y505989D01*
X1534160Y510079D02*
X1538250Y505989D01*
X1304002Y1428886D02*
X1426058Y1306830D01*
X1584935D01*
X1783990Y1107775D01*
X1534160Y510079D02*
Y815340D01*
X1511580Y837920D02*
X1534160Y815340D01*
X1511580Y837920D02*
Y1151890D01*
X1805940Y483870D02*
X1818000Y495930D01*
X1821810D01*
Y781690D01*
X1802130Y801370D02*
X1821810Y781690D01*
X1802130Y801370D02*
X1818000Y817240D01*
Y1073765D01*
X1783990Y1107775D02*
X1818000Y1073765D01*
D88*
X1638300Y661670D02*
D03*
X684530Y1215390D02*
D03*
X1148080Y161290D02*
D03*
D89*
X1476180Y494030D02*
D03*
Y468630D02*
D03*
X1457960Y765810D02*
D03*
Y740410D02*
D03*
X1440620Y1151890D02*
D03*
Y1126490D02*
D03*
D90*
X1476180Y443230D02*
D03*
X1457960Y715010D02*
D03*
X1440620Y1101090D02*
D03*
D91*
X1433830Y572770D02*
D03*
Y547370D02*
D03*
X1357630D02*
D03*
X1391920Y1275080D02*
D03*
Y1249680D02*
D03*
X1315720D02*
D03*
X1430020Y849630D02*
D03*
Y824230D02*
D03*
X1353820D02*
D03*
D92*
X1357630Y572770D02*
D03*
X1315720Y1275080D02*
D03*
X1353820Y849630D02*
D03*
D93*
X1276350Y574040D02*
D03*
X1283970Y844550D02*
D03*
X1247140Y1283970D02*
D03*
D94*
X1276350Y548640D02*
D03*
X1283970Y819150D02*
D03*
X1247140Y1258570D02*
D03*
D95*
X1261398Y1456554D02*
D03*
X1802130Y852170D02*
D03*
X1783990Y1158575D02*
D03*
X1805940Y534670D02*
D03*
D96*
X1304002Y1428886D02*
D03*
D97*
X1676160Y875340D02*
D03*
Y755340D02*
D03*
X1554160D02*
D03*
X1680250Y444190D02*
D03*
X1653580Y1091890D02*
D03*
Y1211890D02*
D03*
X1531580Y1091890D02*
D03*
X1680250Y564190D02*
D03*
X1558250Y444190D02*
D03*
D98*
X1534160Y815340D02*
D03*
X1511580Y1151890D02*
D03*
X1538250Y504190D02*
D03*
D99*
X1554160Y875340D02*
D03*
X1558250Y564190D02*
D03*
X1531580Y1211890D02*
D03*
D100*
X1045210Y1461770D02*
D03*
X1070610D02*
D03*
D101*
X750500Y960063D02*
D03*
Y807663D02*
D03*
X410140Y610813D02*
D03*
X750500Y909263D02*
D03*
X410140Y534613D02*
D03*
Y661613D02*
D03*
Y712413D02*
D03*
X750500Y756863D02*
D03*
Y731463D02*
D03*
Y553663D02*
D03*
X410140Y839413D02*
D03*
Y890213D02*
D03*
X750500Y883863D02*
D03*
Y629863D02*
D03*
Y579063D02*
D03*
X410140Y687013D02*
D03*
X750500Y934663D02*
D03*
X410140Y560013D02*
D03*
Y636213D02*
D03*
Y814013D02*
D03*
X750500Y858463D02*
D03*
Y782263D02*
D03*
Y604463D02*
D03*
Y502863D02*
D03*
X410140Y788613D02*
D03*
X750500Y680663D02*
D03*
X410140Y737813D02*
D03*
X750500Y833063D02*
D03*
Y528263D02*
D03*
X410140Y509213D02*
D03*
Y585413D02*
D03*
X750500Y706063D02*
D03*
Y655263D02*
D03*
X410140Y763213D02*
D03*
Y864813D02*
D03*
Y915613D02*
D03*
Y941013D02*
D03*
Y483813D02*
D03*
D102*
X1783990Y1107775D02*
D03*
X1802130Y801370D02*
D03*
X1805940Y483870D02*
D03*
D103*
X584130Y970223D02*
D03*
X566130D02*
D03*
X501690Y413963D02*
D03*
X483690D02*
D03*
D104*
X942340Y1341120D02*
D03*
X1008380Y1301750D02*
D03*
X1428750Y784860D02*
D03*
X734060Y257810D02*
D03*
X694690Y288290D02*
D03*
X379730Y426720D02*
D03*
X881380Y572770D02*
D03*
X825500Y488950D02*
D03*
X379730Y703580D02*
D03*
X374650Y716280D02*
D03*
X363220Y671830D02*
D03*
X873760Y1366520D02*
D03*
X1005840Y819150D02*
D03*
X1089660Y685800D02*
D03*
X1112520Y347980D02*
D03*
X955040Y203200D02*
D03*
X1003300Y369570D02*
D03*
X944880Y951230D02*
D03*
X1051560Y670560D02*
D03*
X1064223Y351305D02*
D03*
X969010Y215900D02*
D03*
X782320Y868680D02*
D03*
X787400Y849630D02*
D03*
X930910Y861060D02*
D03*
X948690Y923290D02*
D03*
X1027430Y999490D02*
D03*
X857250Y1040130D02*
D03*
X784860Y1348740D02*
D03*
X802640Y927100D02*
D03*
X943610Y980440D02*
D03*
X905510Y1184910D02*
D03*
X1092200Y1319530D02*
D03*
X1059180Y1108710D02*
D03*
X928370Y1146810D02*
D03*
X850900Y875030D02*
D03*
X787400Y963930D02*
D03*
X894080Y979170D02*
D03*
X1471930Y928370D02*
D03*
X410210Y430530D02*
D03*
X1002030Y708660D02*
D03*
X391160Y833120D02*
D03*
X389890Y739140D02*
D03*
X471100Y528263D02*
D03*
X764470Y457143D02*
D03*
X378460Y754380D02*
D03*
X476250Y993140D02*
D03*
X772090Y820363D02*
D03*
X797490Y773373D02*
D03*
X805110Y751783D02*
D03*
X901630Y727653D02*
D03*
X935920Y530803D02*
D03*
X946080Y557473D02*
D03*
X941000Y507943D02*
D03*
X981640Y521913D02*
D03*
X772090Y402533D02*
D03*
X515550Y478733D02*
D03*
X782250Y369513D02*
D03*
X880040Y405073D02*
D03*
Y379673D02*
D03*
X755580Y344113D02*
D03*
X703510Y328873D02*
D03*
X720020Y317443D02*
D03*
X742880Y322523D02*
D03*
X817810Y454603D02*
D03*
X712400Y321253D02*
D03*
X758120Y306013D02*
D03*
D105*
X702240Y687013D02*
D03*
D106*
X682617Y301113D02*
D03*
X732673Y272213D02*
D03*
M02*
