G04*
G04 #@! TF.GenerationSoftware,Altium Limited,Altium Designer,25.5.2 (35)*
G04*
G04 Layer_Color=128*
%FSLAX44Y44*%
%MOMM*%
G71*
G04*
G04 #@! TF.SameCoordinates,1C876D45-0CCD-4BF8-8A60-7BCD78DFC47F*
G04*
G04*
G04 #@! TF.FilePolarity,Positive*
G04*
G01*
G75*
%ADD11C,0.1270*%
D11*
X679367Y301113D02*
X685867D01*
X682617Y297863D02*
Y304363D01*
X729423Y272213D02*
X735923D01*
X732673Y268963D02*
Y275463D01*
X645833Y276393D02*
X657833D01*
X651833Y270393D02*
Y282393D01*
X719657Y233193D02*
X733657D01*
X726657Y226193D02*
Y240193D01*
X739057Y269393D02*
X756057D01*
X747557Y260893D02*
Y277893D01*
X664233Y312593D02*
X681233D01*
X672733Y304093D02*
Y321093D01*
X1623314Y661670D02*
X1653286D01*
X1638300Y646684D02*
Y676656D01*
X669544Y1215390D02*
X699516D01*
X684530Y1200404D02*
Y1230376D01*
X1133094Y161290D02*
X1163066D01*
X1148080Y146304D02*
Y176276D01*
X1472230Y494030D02*
X1480130D01*
X1476180Y490080D02*
Y497980D01*
X1472230Y468630D02*
X1480130D01*
X1476180Y464680D02*
Y472580D01*
X1472230Y443230D02*
X1480130D01*
X1476180Y439280D02*
Y447180D01*
X1429580Y572770D02*
X1438080D01*
X1433830Y568520D02*
Y577020D01*
X1429580Y547370D02*
X1438080D01*
X1433830Y543120D02*
Y551620D01*
X1353380Y547370D02*
X1361880D01*
X1357630Y543120D02*
Y551620D01*
X1353380Y572770D02*
X1361880D01*
X1357630Y568520D02*
Y577020D01*
X1272000Y574040D02*
X1280700D01*
X1276350Y569690D02*
Y578390D01*
X1272000Y548640D02*
X1280700D01*
X1276350Y544290D02*
Y552990D01*
X1279620Y844550D02*
X1288320D01*
X1283970Y840200D02*
Y848900D01*
X1279620Y819150D02*
X1288320D01*
X1283970Y814800D02*
Y823500D01*
X1387670Y1275080D02*
X1396170D01*
X1391920Y1270830D02*
Y1279330D01*
X1387670Y1249680D02*
X1396170D01*
X1391920Y1245430D02*
Y1253930D01*
X1311470Y1249680D02*
X1319970D01*
X1315720Y1245430D02*
Y1253930D01*
X1311470Y1275080D02*
X1319970D01*
X1315720Y1270830D02*
Y1279330D01*
X1242790Y1283970D02*
X1251490D01*
X1247140Y1279620D02*
Y1288320D01*
X1242790Y1258570D02*
X1251490D01*
X1247140Y1254220D02*
Y1262920D01*
X1255898Y1456554D02*
X1266898D01*
X1261398Y1451054D02*
Y1462054D01*
X1298502Y1428886D02*
X1309502D01*
X1304002Y1423386D02*
Y1434386D01*
X1669560Y875340D02*
X1682760D01*
X1676160Y868740D02*
Y881940D01*
X1669560Y755340D02*
X1682760D01*
X1676160Y748740D02*
Y761940D01*
X1547560Y755340D02*
X1560760D01*
X1554160Y748740D02*
Y761940D01*
X1527710Y815340D02*
X1540610D01*
X1534160Y808890D02*
Y821790D01*
X1547560Y875340D02*
X1560760D01*
X1554160Y868740D02*
Y881940D01*
X1673650Y444190D02*
X1686850D01*
X1680250Y437590D02*
Y450790D01*
X1646980Y1091890D02*
X1660180D01*
X1653580Y1085290D02*
Y1098490D01*
X1454010Y765810D02*
X1461910D01*
X1457960Y761860D02*
Y769760D01*
X1551650Y564190D02*
X1564850D01*
X1558250Y557590D02*
Y570790D01*
X1425770Y849630D02*
X1434270D01*
X1430020Y845380D02*
Y853880D01*
X1524980Y1211890D02*
X1538180D01*
X1531580Y1205290D02*
Y1218490D01*
X1796630Y852170D02*
X1807630D01*
X1802130Y846670D02*
Y857670D01*
X1454010Y740410D02*
X1461910D01*
X1457960Y736460D02*
Y744360D01*
X1454010Y715010D02*
X1461910D01*
X1457960Y711060D02*
Y718960D01*
X1646980Y1211890D02*
X1660180D01*
X1653580Y1205290D02*
Y1218490D01*
X1524980Y1091890D02*
X1538180D01*
X1531580Y1085290D02*
Y1098490D01*
X1505130Y1151890D02*
X1518030D01*
X1511580Y1145440D02*
Y1158340D01*
X1673650Y564190D02*
X1686850D01*
X1680250Y557590D02*
Y570790D01*
X1551650Y444190D02*
X1564850D01*
X1558250Y437590D02*
Y450790D01*
X1531800Y504190D02*
X1544700D01*
X1538250Y497740D02*
Y510640D01*
X1436670Y1151890D02*
X1444570D01*
X1440620Y1147940D02*
Y1155840D01*
X1436670Y1126490D02*
X1444570D01*
X1440620Y1122540D02*
Y1130440D01*
X1436670Y1101090D02*
X1444570D01*
X1440620Y1097140D02*
Y1105040D01*
X1425770Y824230D02*
X1434270D01*
X1430020Y819980D02*
Y828480D01*
X1349570Y824230D02*
X1358070D01*
X1353820Y819980D02*
Y828480D01*
X1349570Y849630D02*
X1358070D01*
X1353820Y845380D02*
Y853880D01*
X1040110Y1461770D02*
X1050310D01*
X1045210Y1456670D02*
Y1466870D01*
X745400Y960063D02*
X755600D01*
X750500Y954963D02*
Y965163D01*
X745400Y807663D02*
X755600D01*
X750500Y802563D02*
Y812763D01*
X405040Y610813D02*
X415240D01*
X410140Y605713D02*
Y615913D01*
X745400Y909263D02*
X755600D01*
X750500Y904163D02*
Y914363D01*
X405040Y534613D02*
X415240D01*
X410140Y529513D02*
Y539713D01*
X405040Y661613D02*
X415240D01*
X410140Y656513D02*
Y666713D01*
X405040Y712413D02*
X415240D01*
X410140Y707313D02*
Y717513D01*
X745400Y756863D02*
X755600D01*
X750500Y751763D02*
Y761963D01*
X745400Y731463D02*
X755600D01*
X750500Y726363D02*
Y736563D01*
X745400Y553663D02*
X755600D01*
X750500Y548563D02*
Y558763D01*
X405040Y839413D02*
X415240D01*
X410140Y834313D02*
Y844513D01*
X405040Y890213D02*
X415240D01*
X410140Y885113D02*
Y895313D01*
X745400Y883863D02*
X755600D01*
X750500Y878763D02*
Y888963D01*
X745400Y629863D02*
X755600D01*
X750500Y624763D02*
Y634963D01*
X745400Y579063D02*
X755600D01*
X750500Y573963D02*
Y584163D01*
X405040Y687013D02*
X415240D01*
X410140Y681913D02*
Y692113D01*
X745400Y934663D02*
X755600D01*
X750500Y929563D02*
Y939763D01*
X405040Y560013D02*
X415240D01*
X410140Y554913D02*
Y565113D01*
X405040Y636213D02*
X415240D01*
X410140Y631113D02*
Y641313D01*
X405040Y814013D02*
X415240D01*
X410140Y808913D02*
Y819113D01*
X745400Y858463D02*
X755600D01*
X750500Y853363D02*
Y863563D01*
X745400Y782263D02*
X755600D01*
X750500Y777163D02*
Y787363D01*
X745400Y604463D02*
X755600D01*
X750500Y599363D02*
Y609563D01*
X745400Y502863D02*
X755600D01*
X750500Y497763D02*
Y507963D01*
X405040Y788613D02*
X415240D01*
X410140Y783513D02*
Y793713D01*
X745400Y680663D02*
X755600D01*
X750500Y675563D02*
Y685763D01*
X405040Y737813D02*
X415240D01*
X410140Y732713D02*
Y742913D01*
X745400Y833063D02*
X755600D01*
X750500Y827963D02*
Y838163D01*
X745400Y528263D02*
X755600D01*
X750500Y523163D02*
Y533363D01*
X405040Y509213D02*
X415240D01*
X410140Y504113D02*
Y514313D01*
X405040Y585413D02*
X415240D01*
X410140Y580313D02*
Y590513D01*
X745400Y706063D02*
X755600D01*
X750500Y700963D02*
Y711163D01*
X745400Y655263D02*
X755600D01*
X750500Y650163D02*
Y660363D01*
X1065510Y1461770D02*
X1075710D01*
X1070610Y1456670D02*
Y1466870D01*
X405040Y763213D02*
X415240D01*
X410140Y758113D02*
Y768313D01*
X405040Y864813D02*
X415240D01*
X410140Y859713D02*
Y869913D01*
X405040Y915613D02*
X415240D01*
X410140Y910513D02*
Y920713D01*
X405040Y941013D02*
X415240D01*
X410140Y935913D02*
Y946113D01*
X1090910Y1461770D02*
X1101110D01*
X1096010Y1456670D02*
Y1466870D01*
X1778490Y1107775D02*
X1789490D01*
X1783990Y1102275D02*
Y1113275D01*
X1778490Y1158575D02*
X1789490D01*
X1783990Y1153075D02*
Y1164075D01*
X1796630Y801370D02*
X1807630D01*
X1802130Y795870D02*
Y806870D01*
X1800440Y483870D02*
X1811440D01*
X1805940Y478370D02*
Y489370D01*
X1800440Y534670D02*
X1811440D01*
X1805940Y529170D02*
Y540170D01*
X405040Y483813D02*
X415240D01*
X410140Y478713D02*
Y488913D01*
X580130Y970223D02*
X588130D01*
X584130Y966223D02*
Y974223D01*
X562130Y970223D02*
X570130D01*
X566130Y966223D02*
Y974223D01*
X497690Y413963D02*
X505690D01*
X501690Y409963D02*
Y417963D01*
X479690Y413963D02*
X487690D01*
X483690Y409963D02*
Y417963D01*
X940840Y1341120D02*
X943840D01*
X942340Y1339620D02*
Y1342620D01*
X1006880Y1301750D02*
X1009880D01*
X1008380Y1300250D02*
Y1303250D01*
X1427250Y784860D02*
X1430250D01*
X1428750Y783360D02*
Y786360D01*
X732560Y257810D02*
X735560D01*
X734060Y256310D02*
Y259310D01*
X693190Y288290D02*
X696190D01*
X694690Y286790D02*
Y289790D01*
X378230Y426720D02*
X381230D01*
X379730Y425220D02*
Y428220D01*
X879880Y572770D02*
X882880D01*
X881380Y571270D02*
Y574270D01*
X824000Y488950D02*
X827000D01*
X825500Y487450D02*
Y490450D01*
X378230Y703580D02*
X381230D01*
X379730Y702080D02*
Y705080D01*
X373150Y716280D02*
X376150D01*
X374650Y714780D02*
Y717780D01*
X361720Y671830D02*
X364720D01*
X363220Y670330D02*
Y673330D01*
X872260Y1366520D02*
X875260D01*
X873760Y1365020D02*
Y1368020D01*
X1004340Y819150D02*
X1007340D01*
X1005840Y817650D02*
Y820650D01*
X1088160Y685800D02*
X1091160D01*
X1089660Y684300D02*
Y687300D01*
X1111020Y347980D02*
X1114020D01*
X1112520Y346480D02*
Y349480D01*
X953540Y203200D02*
X956540D01*
X955040Y201700D02*
Y204700D01*
X1001800Y369570D02*
X1004800D01*
X1003300Y368070D02*
Y371070D01*
X943380Y951230D02*
X946380D01*
X944880Y949730D02*
Y952730D01*
X1050060Y670560D02*
X1053060D01*
X1051560Y669060D02*
Y672060D01*
X1062723Y351305D02*
X1065723D01*
X1064223Y349804D02*
Y352804D01*
X967510Y215900D02*
X970510D01*
X969010Y214400D02*
Y217400D01*
X780820Y868680D02*
X783820D01*
X782320Y867180D02*
Y870180D01*
X785900Y849630D02*
X788900D01*
X787400Y848130D02*
Y851130D01*
X929410Y861060D02*
X932410D01*
X930910Y859560D02*
Y862560D01*
X947190Y923290D02*
X950190D01*
X948690Y921790D02*
Y924790D01*
X1025930Y999490D02*
X1028930D01*
X1027430Y997990D02*
Y1000990D01*
X855750Y1040130D02*
X858750D01*
X857250Y1038630D02*
Y1041630D01*
X783360Y1348740D02*
X786360D01*
X784860Y1347240D02*
Y1350240D01*
X801140Y927100D02*
X804140D01*
X802640Y925600D02*
Y928600D01*
X942110Y980440D02*
X945110D01*
X943610Y978940D02*
Y981940D01*
X904010Y1184910D02*
X907010D01*
X905510Y1183410D02*
Y1186410D01*
X1090700Y1319530D02*
X1093700D01*
X1092200Y1318030D02*
Y1321030D01*
X1057680Y1108710D02*
X1060680D01*
X1059180Y1107210D02*
Y1110210D01*
X926870Y1146810D02*
X929870D01*
X928370Y1145310D02*
Y1148310D01*
X849400Y875030D02*
X852400D01*
X850900Y873530D02*
Y876530D01*
X785900Y963930D02*
X788900D01*
X787400Y962430D02*
Y965430D01*
X892580Y979170D02*
X895580D01*
X894080Y977670D02*
Y980670D01*
X1470430Y928370D02*
X1473430D01*
X1471930Y926870D02*
Y929870D01*
X408710Y430530D02*
X411710D01*
X410210Y429030D02*
Y432030D01*
X1000530Y708660D02*
X1003530D01*
X1002030Y707160D02*
Y710160D01*
X389660Y833120D02*
X392660D01*
X391160Y831620D02*
Y834620D01*
X388390Y739140D02*
X391390D01*
X389890Y737640D02*
Y740640D01*
X469600Y528263D02*
X472600D01*
X471100Y526763D02*
Y529763D01*
X762970Y457143D02*
X765970D01*
X764470Y455643D02*
Y458643D01*
X376960Y754380D02*
X379960D01*
X378460Y752880D02*
Y755880D01*
X474750Y993140D02*
X477750D01*
X476250Y991640D02*
Y994640D01*
X770590Y820363D02*
X773590D01*
X772090Y818863D02*
Y821863D01*
X795990Y773373D02*
X798990D01*
X797490Y771873D02*
Y774873D01*
X698684Y687013D02*
X705796D01*
X702240Y683457D02*
Y690569D01*
X803610Y751783D02*
X806610D01*
X805110Y750283D02*
Y753283D01*
X900130Y727653D02*
X903130D01*
X901630Y726153D02*
Y729153D01*
X934420Y530803D02*
X937420D01*
X935920Y529303D02*
Y532303D01*
X944580Y557473D02*
X947580D01*
X946080Y555973D02*
Y558973D01*
X939500Y507943D02*
X942500D01*
X941000Y506443D02*
Y509443D01*
X980140Y521913D02*
X983140D01*
X981640Y520413D02*
Y523413D01*
X770590Y402533D02*
X773590D01*
X772090Y401033D02*
Y404033D01*
X514050Y478733D02*
X517050D01*
X515550Y477233D02*
Y480233D01*
X780750Y369513D02*
X783750D01*
X782250Y368013D02*
Y371013D01*
X878540Y405073D02*
X881540D01*
X880040Y403573D02*
Y406573D01*
X878540Y379673D02*
X881540D01*
X880040Y378173D02*
Y381173D01*
X754080Y344113D02*
X757080D01*
X755580Y342613D02*
Y345613D01*
X702010Y328873D02*
X705010D01*
X703510Y327373D02*
Y330373D01*
X718520Y317443D02*
X721520D01*
X720020Y315943D02*
Y318943D01*
X741380Y322523D02*
X744380D01*
X742880Y321023D02*
Y324023D01*
X816310Y454603D02*
X819310D01*
X817810Y453103D02*
Y456103D01*
X710900Y321253D02*
X713900D01*
X712400Y319753D02*
Y322753D01*
X756620Y306013D02*
X759620D01*
X758120Y304513D02*
Y307513D01*
M02*
