G04*
G04 #@! TF.GenerationSoftware,Altium Limited,Altium Designer,25.5.2 (35)*
G04*
G04 Layer_Color=16711935*
%FSLAX44Y44*%
%MOMM*%
G71*
G04*
G04 #@! TF.SameCoordinates,1C876D45-0CCD-4BF8-8A60-7BCD78DFC47F*
G04*
G04*
G04 #@! TF.FilePolarity,Negative*
G04*
G01*
G75*
%ADD56R,1.7000X1.7000*%
G04:AMPARAMS|DCode=66|XSize=1.15mm|YSize=1.95mm|CornerRadius=0.575mm|HoleSize=0mm|Usage=FLASHONLY|Rotation=330.000|XOffset=0mm|YOffset=0mm|HoleType=Round|Shape=RoundedRectangle|*
%AMROUNDEDRECTD66*
21,1,1.1500,0.8000,0,0,330.0*
21,1,0.0000,1.9500,0,0,330.0*
1,1,1.1500,-0.2000,-0.3464*
1,1,1.1500,-0.2000,-0.3464*
1,1,1.1500,0.2000,0.3464*
1,1,1.1500,0.2000,0.3464*
%
%ADD66ROUNDEDRECTD66*%
G04:AMPARAMS|DCode=67|XSize=1.15mm|YSize=2.25mm|CornerRadius=0.575mm|HoleSize=0mm|Usage=FLASHONLY|Rotation=330.000|XOffset=0mm|YOffset=0mm|HoleType=Round|Shape=RoundedRectangle|*
%AMROUNDEDRECTD67*
21,1,1.1500,1.1000,0,0,330.0*
21,1,0.0000,2.2500,0,0,330.0*
1,1,1.1500,-0.2750,-0.4763*
1,1,1.1500,-0.2750,-0.4763*
1,1,1.1500,0.2750,0.4763*
1,1,1.1500,0.2750,0.4763*
%
%ADD67ROUNDEDRECTD67*%
%ADD68C,6.5000*%
%ADD69C,1.4480*%
%ADD70R,1.4480X1.4480*%
%ADD71C,1.4100*%
%ADD72R,1.4100X1.4100*%
%ADD73C,1.5280*%
%ADD74R,1.5280X1.5280*%
%ADD75C,1.8000*%
%ADD76P,2.5456X4X192.0*%
%ADD77C,2.1300*%
%ADD78C,2.0850*%
%ADD79R,2.1300X2.1300*%
%ADD80C,1.7000*%
%ADD81C,2.0550*%
%ADD82R,1.8000X1.8000*%
%ADD83C,0.9500*%
%ADD84C,0.7500*%
%ADD85C,1.4200*%
%ADD107C,0.8000*%
D56*
X1096010Y1461770D02*
D03*
D66*
X651833Y276393D02*
D03*
X726657Y233193D02*
D03*
D67*
X747557Y269393D02*
D03*
X672733Y312593D02*
D03*
D68*
X1638300Y661670D02*
D03*
X684530Y1215390D02*
D03*
X1148080Y161290D02*
D03*
D69*
X1476180Y494030D02*
D03*
Y468630D02*
D03*
X1457960Y765810D02*
D03*
Y740410D02*
D03*
X1440620Y1151890D02*
D03*
Y1126490D02*
D03*
D70*
X1476180Y443230D02*
D03*
X1457960Y715010D02*
D03*
X1440620Y1101090D02*
D03*
D71*
X1433830Y572770D02*
D03*
Y547370D02*
D03*
X1357630D02*
D03*
X1391920Y1275080D02*
D03*
Y1249680D02*
D03*
X1315720D02*
D03*
X1430020Y849630D02*
D03*
Y824230D02*
D03*
X1353820D02*
D03*
D72*
X1357630Y572770D02*
D03*
X1315720Y1275080D02*
D03*
X1353820Y849630D02*
D03*
D73*
X1276350Y574040D02*
D03*
X1283970Y844550D02*
D03*
X1247140Y1283970D02*
D03*
D74*
X1276350Y548640D02*
D03*
X1283970Y819150D02*
D03*
X1247140Y1258570D02*
D03*
D75*
X1261398Y1456554D02*
D03*
X1802130Y852170D02*
D03*
X1783990Y1158575D02*
D03*
X1805940Y534670D02*
D03*
D76*
X1304002Y1428886D02*
D03*
D77*
X1676160Y875340D02*
D03*
Y755340D02*
D03*
X1554160D02*
D03*
X1680250Y444190D02*
D03*
X1653580Y1091890D02*
D03*
Y1211890D02*
D03*
X1531580Y1091890D02*
D03*
X1680250Y564190D02*
D03*
X1558250Y444190D02*
D03*
D78*
X1534160Y815340D02*
D03*
X1511580Y1151890D02*
D03*
X1538250Y504190D02*
D03*
D79*
X1554160Y875340D02*
D03*
X1558250Y564190D02*
D03*
X1531580Y1211890D02*
D03*
D80*
X1045210Y1461770D02*
D03*
X1070610D02*
D03*
D81*
X750500Y960063D02*
D03*
Y807663D02*
D03*
X410140Y610813D02*
D03*
X750500Y909263D02*
D03*
X410140Y534613D02*
D03*
Y661613D02*
D03*
Y712413D02*
D03*
X750500Y756863D02*
D03*
Y731463D02*
D03*
Y553663D02*
D03*
X410140Y839413D02*
D03*
Y890213D02*
D03*
X750500Y883863D02*
D03*
Y629863D02*
D03*
Y579063D02*
D03*
X410140Y687013D02*
D03*
X750500Y934663D02*
D03*
X410140Y560013D02*
D03*
Y636213D02*
D03*
Y814013D02*
D03*
X750500Y858463D02*
D03*
Y782263D02*
D03*
Y604463D02*
D03*
Y502863D02*
D03*
X410140Y788613D02*
D03*
X750500Y680663D02*
D03*
X410140Y737813D02*
D03*
X750500Y833063D02*
D03*
Y528263D02*
D03*
X410140Y509213D02*
D03*
Y585413D02*
D03*
X750500Y706063D02*
D03*
Y655263D02*
D03*
X410140Y763213D02*
D03*
Y864813D02*
D03*
Y915613D02*
D03*
Y941013D02*
D03*
Y483813D02*
D03*
D82*
X1783990Y1107775D02*
D03*
X1802130Y801370D02*
D03*
X1805940Y483870D02*
D03*
D83*
X584130Y970223D02*
D03*
X566130D02*
D03*
X501690Y413963D02*
D03*
X483690D02*
D03*
D84*
X942340Y1341120D02*
D03*
X1008380Y1301750D02*
D03*
X1428750Y784860D02*
D03*
X734060Y257810D02*
D03*
X694690Y288290D02*
D03*
X379730Y426720D02*
D03*
X881380Y572770D02*
D03*
X825500Y488950D02*
D03*
X379730Y703580D02*
D03*
X374650Y716280D02*
D03*
X363220Y671830D02*
D03*
X873760Y1366520D02*
D03*
X1005840Y819150D02*
D03*
X1089660Y685800D02*
D03*
X1112520Y347980D02*
D03*
X955040Y203200D02*
D03*
X1003300Y369570D02*
D03*
X944880Y951230D02*
D03*
X1051560Y670560D02*
D03*
X1064223Y351305D02*
D03*
X969010Y215900D02*
D03*
X782320Y868680D02*
D03*
X787400Y849630D02*
D03*
X930910Y861060D02*
D03*
X948690Y923290D02*
D03*
X1027430Y999490D02*
D03*
X857250Y1040130D02*
D03*
X784860Y1348740D02*
D03*
X802640Y927100D02*
D03*
X943610Y980440D02*
D03*
X905510Y1184910D02*
D03*
X1092200Y1319530D02*
D03*
X1059180Y1108710D02*
D03*
X928370Y1146810D02*
D03*
X850900Y875030D02*
D03*
X787400Y963930D02*
D03*
X894080Y979170D02*
D03*
X1471930Y928370D02*
D03*
X410210Y430530D02*
D03*
X1002030Y708660D02*
D03*
X391160Y833120D02*
D03*
X389890Y739140D02*
D03*
X471100Y528263D02*
D03*
X764470Y457143D02*
D03*
X378460Y754380D02*
D03*
X476250Y993140D02*
D03*
X772090Y820363D02*
D03*
X797490Y773373D02*
D03*
X805110Y751783D02*
D03*
X901630Y727653D02*
D03*
X935920Y530803D02*
D03*
X946080Y557473D02*
D03*
X941000Y507943D02*
D03*
X981640Y521913D02*
D03*
X772090Y402533D02*
D03*
X515550Y478733D02*
D03*
X782250Y369513D02*
D03*
X880040Y405073D02*
D03*
Y379673D02*
D03*
X755580Y344113D02*
D03*
X703510Y328873D02*
D03*
X720020Y317443D02*
D03*
X742880Y322523D02*
D03*
X817810Y454603D02*
D03*
X712400Y321253D02*
D03*
X758120Y306013D02*
D03*
D85*
X702240Y687013D02*
D03*
D107*
X682617Y301113D02*
D03*
X732673Y272213D02*
D03*
M02*
